<svg width="188" height="26" viewBox="0 0 188 26" fill="none" xmlns="http://www.w3.org/2000/svg">
<rect y="1" width="4" height="24" fill="#1DBFD8"/>
<path d="M13.456 3.904H9.664L16.576 22.48H18.64L25.672 3.904H21.88L17.848 16.096H17.8L13.456 3.904ZM32.5521 3.904H29.0241V22H32.5521V3.904ZM46.8779 6.976V3.904H37.5179V22H46.8779V18.928H41.0459V14.032H46.6619V10.96H41.0459V6.976H46.8779ZM53.7006 3.904H50.0046L55.7646 22.36H58.3566L61.7646 10.528H61.8126L65.4126 22.36H68.0046L74.1246 3.904H70.4286L66.8766 16.24H66.8286L63.0846 3.664H60.9966L57.3966 16.24H57.3486L53.7006 3.904ZM83.4501 14.128C86.0661 13.816 87.7941 11.656 87.7941 9.064C87.7941 7.336 86.9301 5.632 85.4181 4.744C83.9781 3.928 82.2501 3.904 80.6421 3.904H77.9061V22H80.1621V14.344H81.0981L86.4261 22H89.1621L83.4501 14.128ZM80.1621 5.92H80.7621C82.9941 5.92 85.6821 6.328 85.6821 9.16C85.6821 12.04 83.1861 12.472 80.8821 12.472H80.1621V5.92ZM92.1374 22H101.857V19.936H94.3934V13.096H101.641V11.032H94.3934V5.968H101.857V3.904H92.1374V22ZM110.725 5.968H115.021V3.904H104.173V5.968H108.469V22H110.725V5.968ZM123.542 14.128C126.158 13.816 127.886 11.656 127.886 9.064C127.886 7.336 127.022 5.632 125.51 4.744C124.07 3.928 122.342 3.904 120.734 3.904H117.998V22H120.254V14.344H121.19L126.518 22H129.254L123.542 14.128ZM120.254 5.92H120.854C123.086 5.92 125.774 6.328 125.774 9.16C125.774 12.04 123.278 12.472 120.974 12.472H120.254V5.92ZM132.23 22H141.95V19.936H134.486V13.096H141.734V11.032H134.486V5.968H141.95V3.904H132.23V22ZM156.817 17.464L158.881 22H161.305L152.665 3.136L144.025 22H146.449L148.513 17.464H156.817ZM155.881 15.4H149.449L152.665 8.08L155.881 15.4ZM166.97 5.968H171.266V3.904H160.418V5.968H164.714V22H166.97V5.968ZM184.084 6.256C183.1 4.504 181.444 3.52 179.428 3.52C176.692 3.52 174.1 5.272 174.1 8.2C174.1 10.72 175.972 11.896 178.036 12.784L179.284 13.312C180.844 13.96 182.404 14.8 182.404 16.744C182.404 18.64 181.012 20.272 179.068 20.272C177.124 20.272 175.54 18.832 175.564 16.84L173.284 17.32C173.668 20.224 175.948 22.384 178.876 22.384C182.116 22.384 184.66 20.032 184.66 16.744C184.66 13.72 182.74 12.304 180.172 11.296L178.876 10.792C177.748 10.36 176.356 9.616 176.356 8.2C176.356 6.616 177.94 5.632 179.38 5.632C180.748 5.632 181.612 6.208 182.284 7.336L184.084 6.256Z" fill="white"/>
</svg>
