<?xml version="1.0" ?><!DOCTYPE svg  PUBLIC '-//W3C//DTD SVG 1.1//EN'  'http://www.w3.org/Graphics/SVG/1.1/DTD/svg11.dtd'><svg enable-background="new 0 0 512 512" height="512px" id="Layer_1" version="1.1" viewBox="0 0 512 512" width="512px" xml:space="preserve" xmlns="http://www.w3.org/2000/svg" xmlns:xlink="http://www.w3.org/1999/xlink"><g><path d="M448,128h-80v-24c0-30.922-25.063-56-56-56H200c-30.938,0-56,25.078-56,56v24H64c-26.508,0-48,21.484-48,48   v78.656c0,15.781,6.063,30.297,16,41.406V432c0,26.516,21.5,48,48,48h352c26.5,0,48-21.484,48-48V296.109   c9.938-11.109,16-25.625,16-41.453V176C496,149.484,474.516,128,448,128z M160,104c0-22.063,17.938-40,40-40h112   c22.063,0,40,17.938,40,40v24h-16v-24c0-13.234-10.766-24-24-24H200c-13.234,0-24,10.766-24,24v24h-16V104z M320,104v24H192v-24   c0-4.406,3.594-8,8-8h112C316.406,96,320,99.594,320,104z M464,432c0,17.641-14.344,32-32,32H80c-17.656,0-32-14.359-32-32V308.906   c5.508,3.094,11.469,5.516,17.922,6.828c31.648,6.469,76.086,13.875,126.078,17.672V344c0,13.25,10.742,24,24,24h80   c13.25,0,24-10.75,24-24v-10.594c50-3.797,94.438-11.203,126.078-17.672c6.453-1.313,12.422-3.734,17.922-6.813V432z M208,344v-32   c0-4.406,3.594-8,8-8h80c4.406,0,8,3.594,8,8v32c0,4.406-3.594,8-8,8h-80C211.594,352,208,348.406,208,344z M480,254.656   c0,21.922-15.609,41.016-37.125,45.406c-31.219,6.391-74.406,13.563-122.875,17.313V312c0-13.25-10.75-24-24-24h-80   c-13.258,0-24,10.75-24,24v5.375c-48.469-3.75-91.656-10.922-122.875-17.313C47.609,295.672,32,276.578,32,254.656V176   c0-17.641,14.344-32,32-32h384c17.656,0,32,14.359,32,32V254.656z" fill="#4D4D4D"/></g></svg>