<?xml version="1.0" ?><!DOCTYPE svg  PUBLIC '-//W3C//DTD SVG 1.1//EN'  'http://www.w3.org/Graphics/SVG/1.1/DTD/svg11.dtd'><svg enable-background="new 0 0 85 85" height="85px" id="Layer_1" version="1.1" viewBox="0 0 85 85" width="85px" xml:space="preserve" xmlns="http://www.w3.org/2000/svg" xmlns:xlink="http://www.w3.org/1999/xlink"><g><g><path d="M40.022,52.632c-0.203,0.352-0.434,0.708-0.691,1.068    c-5.021,7.708-10.949,17.846-2.111,19.041c0.029,0.007,0.066,0.014,0.098,0.019c10.315,1.675,23.101-4.044,16.151-17.737    c-1.098-2.293-2.195-4.138-3.227-5.662" fill="none" stroke="#394553" stroke-width="2.5"/><path d="M32.342,40.006c-0.343-0.199-0.69-0.423-1.042-0.674    c-7.705-5.023-17.842-10.949-19.043-2.114c-0.006,0.032-0.012,0.066-0.016,0.101c-1.678,10.317,4.045,23.103,17.736,16.148    c2.276-1.088,4.112-2.178,5.633-3.202" fill="none" stroke="#394553" stroke-width="2.5"/><path d="M44.98,32.366c0.203-0.351,0.432-0.706,0.689-1.066    c5.018-7.709,10.949-17.844,2.115-19.046c-0.037-0.005-0.07-0.01-0.102-0.013c-10.315-1.676-23.104,4.041-16.151,17.736    c1.062,2.224,2.127,4.025,3.131,5.523" fill="none" stroke="#394553" stroke-width="2.5"/><path d="M52.623,44.976c0.354,0.205,0.713,0.436,1.076,0.694    c7.709,5.019,17.848,10.948,19.045,2.114c0.006-0.032,0.012-0.07,0.016-0.104c1.672-10.315-4.045-23.101-17.736-16.15    c-2.279,1.091-4.117,2.183-5.639,3.209" fill="none" stroke="#394553" stroke-width="2.5"/></g><circle cx="42.502" cy="42.5" fill="none" r="5.316" stroke="#394553" stroke-miterlimit="10" stroke-width="2.5"/></g></svg>