<?xml version="1.0" ?><!DOCTYPE svg  PUBLIC '-//W3C//DTD SVG 1.1//EN'  'http://www.w3.org/Graphics/SVG/1.1/DTD/svg11.dtd'><svg enable-background="new 0 0 60 60" version="1.1" viewBox="0 0 60 60" xml:space="preserve" xmlns="http://www.w3.org/2000/svg" xmlns:xlink="http://www.w3.org/1999/xlink"><g id="background"/><g id="cards"/><g id="icons"><g><g><g><path d="M45.8536644,49.0673866H32.2382431c-0.4177246,0-0.8056793-0.1882172-1.0639973-0.5166321      c-0.2587967-0.3284187-0.3509846-0.7499847-0.2525558-1.1561852l1.3050289-5.4092941h13.6389503l1.305027,5.4092941      c0.0984306,0.4062004,0.0062447,0.8277664-0.252552,1.1561852      C46.6598244,48.8791695,46.2718697,49.0673866,45.8536644,49.0673866z M33.0007095,42.9686089l-1.1235332,4.6564293      c-0.0364914,0.1526833,0.0278473,0.2640762,0.0696201,0.317852c0.0412922,0.0528183,0.134922,0.1411629,0.2914467,0.1411629      h13.6154213c0.1570091,0,0.2506371-0.0883446,0.2919273-0.1421204c0.0417747-0.0528183,0.1061134-0.1642113,0.069622-0.3168945      l-1.1235352-4.6564293H33.0007095z"/></g><g><path d="M32.6137161,42.9686089h-4.123951c-0.2717609,0-0.4916668-0.2199059-0.4916668-0.4916687      c0-0.271759,0.2199059-0.4916649,0.4916668-0.4916649h4.123951c0.271759,0,0.4916649,0.2199059,0.4916649,0.4916649      C33.105381,42.748703,32.8854752,42.9686089,32.6137161,42.9686089z"/></g><g><path d="M57.6747932,42.9686089H45.478672c-0.271759,0-0.4916649-0.2199059-0.4916649-0.4916687      c0-0.271759,0.2199059-0.4916649,0.4916649-0.4916649h12.1961212c0.4642982,0,0.8416901-0.3773918,0.8416901-0.8421707      v-2.8290062H28.5094509c-0.2717609,0-0.4916668-0.2199059-0.4916668-0.4916649      c0-0.2717628,0.2199059-0.4916687,0.4916668-0.4916687h30.990366v3.8123398      C59.4998169,42.1494827,58.6811714,42.9686089,57.6747932,42.9686089z"/></g><g><path d="M59.0081482,38.3140984c-0.271759,0-0.4916649-0.2199059-0.4916649-0.4916649V12.7570353      c0-0.4638186-0.3773918-0.8412113-0.8416901-0.8412113H20.4175968c-0.4642982,0-0.8416901,0.3773928-0.8416901,0.8412113      v6.2716303c0,0.2717609-0.2199059,0.4916668-0.4916668,0.4916668s-0.4916668-0.2199059-0.4916668-0.4916668v-6.2716303      c0-1.0063801,0.8186436-1.824544,1.8250237-1.824544h37.2571945c1.0063782,0,1.8250237,0.8181639,1.8250237,1.824544v25.0653992      C59.4998169,38.0941925,59.279911,38.3140984,59.0081482,38.3140984z"/></g><g><path d="M45.47855,42.4765167"/></g><g><path d="M32.6137695,42.4765167"/></g></g><g><g><g><path d="M11.0341587,49.0673866H2.2542593c-0.9674886,0-1.7544434-0.7874336-1.7544434-1.7544441v-16.414175       c0-0.9670086,0.7869548-1.7544441,1.7544434-1.7544441h8.7798996c0.9674883,0,1.7544432,0.7874355,1.7544432,1.7544441       v16.414175C12.7886019,48.279953,12.001647,49.0673866,11.0341587,49.0673866z M2.2542593,30.1276569       c-0.4254069,0-0.7711101,0.3457031-0.7711101,0.7711105v16.414175c0,0.4254074,0.3457031,0.7711105,0.7711101,0.7711105       h8.7798996c0.4254065,0,0.7711096-0.3457031,0.7711096-0.7711105v-16.414175       c0-0.4254074-0.3457031-0.7711105-0.7711096-0.7711105H2.2542593z"/></g></g><g><path d="M12.2153111,32.7636452H1.167215c-0.2717611,0-0.4916666-0.2199059-0.4916666-0.4916687      c0-0.271759,0.2199056-0.4916668,0.4916666-0.4916668h11.0480957c0.2717609,0,0.4916668,0.2199078,0.4916668,0.4916668      C12.7069778,32.5437393,12.487072,32.7636452,12.2153111,32.7636452z"/></g><g><path d="M12.2153111,45.1667023H1.167215c-0.2717611,0-0.4916666-0.2199059-0.4916666-0.4916649      c0-0.2717628,0.2199056-0.4916687,0.4916666-0.4916687h11.0480957c0.2717609,0,0.4916668,0.2199059,0.4916668,0.4916687      C12.7069778,44.9467964,12.487072,45.1667023,12.2153111,45.1667023z"/></g><g><path d="M7.4806185,31.4461308H6.2178416c-0.2717609,0-0.4916668-0.2199059-0.4916668-0.4916668      s0.2199059-0.4916668,0.4916668-0.4916668h1.2627769c0.2717609,0,0.4916663,0.2199059,0.4916663,0.4916668      S7.7523794,31.4461308,7.4806185,31.4461308z"/></g><g><path d="M6.6442089,47.9323273c-0.6947675,0-1.260376-0.565609-1.260376-1.2608566      c0-0.6942863,0.5656085-1.2598953,1.260376-1.2598953s1.260376,0.565609,1.260376,1.2598953      C7.9045849,47.3667183,7.3389759,47.9323273,6.6442089,47.9323273z M6.6442089,46.3949089      c-0.1526856,0-0.2770429,0.1238785-0.2770429,0.2765617c0,0.1526871,0.1243572,0.277523,0.2770429,0.277523      s0.2770424-0.124836,0.2770424-0.277523C6.9212513,46.5187874,6.7968946,46.3949089,6.6442089,46.3949089z"/></g></g><g><g><g><path d="M24.2985954,49.0673866h-9.6484785c-0.2717609,0-0.4916668-0.2199059-0.4916668-0.4916649       c0-0.2717628,0.2199059-0.4916687,0.4916668-0.4916687h9.6484785c0.7254963,0,1.3155918-0.5905762,1.3155918-1.3155937       V23.2779331c0-0.7250156-0.5900955-1.3155918-1.3155918-1.3155918H11.7332468       c-0.7250166,0-1.3151121,0.5905762-1.3151121,1.3155918v4.2838383c0,0.2717609-0.2199059,0.4916668-0.4916668,0.4916668       s-0.4916668-0.2199059-0.4916668-0.4916668v-4.2838383c0-1.2675781,1.0308676-2.2989254,2.2984457-2.2989254h12.5653486       c1.2675781,0,2.2989254,1.0313473,2.2989254,2.2989254v23.4905262       C26.5975208,48.0360374,25.5661736,49.0673866,24.2985954,49.0673866z"/></g></g><g><path d="M25.988699,25.2993374H10.1775827c-0.2717609,0-0.4916668-0.2199059-0.4916668-0.4916668      s0.2199059-0.4916668,0.4916668-0.4916668H25.988699c0.2717609,0,0.4916668,0.2199059,0.4916668,0.4916668      S26.2604599,25.2993374,25.988699,25.2993374z"/></g><g><path d="M25.988699,44.3408585H14.7130156c-0.2717609,0-0.4916668-0.2199059-0.4916668-0.4916687      c0-0.271759,0.2199059-0.4916649,0.4916668-0.4916649H25.988699c0.2717609,0,0.4916668,0.2199059,0.4916668,0.4916649      C26.4803658,44.1209526,26.2604599,44.3408585,25.988699,44.3408585z"/></g><g><path d="M19.2124386,23.8512249h-1.8067799c-0.2717609,0-0.4916668-0.2199059-0.4916668-0.4916668      s0.2199059-0.4916668,0.4916668-0.4916668h1.8067799c0.2717609,0,0.4916668,0.2199059,0.4916668,0.4916668      S19.4841995,23.8512249,19.2124386,23.8512249z"/></g><g><path d="M18.0159206,47.8046112c-0.8777008,0-1.5916748-0.7144547-1.5916748-1.5921555s0.713974-1.5921555,1.5916748-1.5921555      c0.8777027,0,1.5916748,0.7144547,1.5916748,1.5921555S18.8936234,47.8046112,18.0159206,47.8046112z M18.0159206,45.6036339      c-0.335619,0-0.6083412,0.2727203-0.6083412,0.6088219s0.2727222,0.6088219,0.6083412,0.6088219      c0.3356209,0,0.6083412-0.2727203,0.6083412-0.6088219S18.3515415,45.6036339,18.0159206,45.6036339z"/></g></g><g><path d="M40.6604347,14.0102091h-3.2284813c-0.2717628,0-0.4916687-0.2199059-0.4916687-0.4916668     s0.2199059-0.4916668,0.4916687-0.4916668h3.2284813c0.2717628,0,0.4916687,0.2199059,0.4916687,0.4916668     S40.9321976,14.0102091,40.6604347,14.0102091z"/></g></g></g><g id="text"/><g id="artboards"/></svg>