<?xml version="1.0" ?><!DOCTYPE svg  PUBLIC '-//W3C//DTD SVG 1.1//EN'  'http://www.w3.org/Graphics/SVG/1.1/DTD/svg11.dtd'><svg enable-background="new 0 0 24 24" height="24px" id="Layer_1" version="1.1" viewBox="0 0 24 24" width="24px" xml:space="preserve" xmlns="http://www.w3.org/2000/svg" xmlns:xlink="http://www.w3.org/1999/xlink"><g><g><g><path d="M17.6,14H9.1c-0.2,0-0.4-0.2-0.4-0.4V7.8H7.5c-0.2,0-0.3-0.1-0.4-0.3c0-0.2,0-0.4,0.1-0.5l5.9-5.2c0.2-0.2,0.4-0.2,0.6,0     l5.9,5.2c0.1,0.1,0.2,0.3,0.1,0.5c-0.1,0.1-0.2,0.3-0.4,0.3h-1.2v5.8C18.1,13.8,17.9,14,17.6,14z M9.5,13.2h7.7V7.4     c0-0.2,0.2-0.4,0.4-0.4h0.5l-4.8-4.3L8.6,7h0.5c0.2,0,0.4,0.2,0.4,0.4V13.2z"/></g><g><path d="M9.5,4.8H8.7V2.3c0-0.3,0.2-0.4,0.4-0.4h2.2c0.2,0,0.4,0.2,0.4,0.4v0.5h-0.8V2.7H9.5V4.8z"/></g></g><g><g><g><g><g><path d="M4.6,22.2H2c-0.2,0-0.4-0.2-0.4-0.4v-7.1c0-0.2,0.2-0.4,0.4-0.4h2.6c0.4,0,0.8,0.3,0.8,0.7v6.5        C5.4,21.9,5,22.2,4.6,22.2z M2.5,21.4h2.1v-6.2H2.5V21.4z"/></g><g><path d="M13.6,22.3c-1.3,0-3.9-0.3-5.9-0.5c-1.2-0.1-2.2-0.2-2.7-0.3c-0.2,0-0.4-0.2-0.4-0.4v-5.5c0-0.2,0.1-0.3,0.3-0.4        c0.6-0.2,1.8-0.6,3.1-0.6c0.6,0,1.2,0.1,1.7,0.2c1.7,0.4,3.4,0.5,4.3,0.5c0.5,0,1.1,0,1.5-0.1c0.7,0,1.3,0.2,1.6,0.7        c0.1,0.2,0.2,0.5,0.2,0.9c0.8-0.3,2-0.8,2.6-1.2c0.3-0.2,0.7-0.3,1.1-0.3c0.8,0,1.3,0.6,1.4,1.1c0.2,0.8-0.2,1.4-1.1,1.9        c-0.2,0.1-0.6,0.4-1.1,0.6c-2.4,1.5-4.7,3.1-5.9,3.2C14,22.3,13.8,22.3,13.6,22.3z M5.4,20.7C6,20.8,6.8,20.9,7.7,21        c2.4,0.2,5.5,0.6,6.3,0.4c1.1-0.1,4-2,5.5-3c0.5-0.3,0.9-0.6,1.1-0.7c0.8-0.5,0.8-0.8,0.7-1.1c0-0.1-0.2-0.4-0.5-0.4        c-0.2,0-0.4,0.1-0.6,0.2c-1.1,0.6-3.5,1.5-3.6,1.6c-0.2,0.1-0.4,0-0.5-0.2c-0.1-0.2-0.1-0.3,0-0.5c0.2-0.4,0.3-0.7,0.1-0.9        c-0.1-0.2-0.4-0.4-0.8-0.3c-0.4,0.1-1,0.1-1.5,0.1c-1.1,0-2.8-0.1-4.6-0.6c-0.4-0.1-0.9-0.2-1.5-0.2c-1,0-1.9,0.2-2.5,0.4        V20.7z"/></g><g><path d="M11.5,19.2c0,0-0.1,0-0.1,0c-0.2-0.1-0.3-0.3-0.3-0.5c0.2-0.5,0.5-0.6,2.9-0.8c1.9-0.1,2.1-0.5,2.1-0.6        c0-0.3,0.2-0.4,0.4-0.4c0.2,0,0.4,0.2,0.4,0.4c0,0.4-0.4,1.2-2.9,1.3c-1.2,0.1-2,0.2-2.2,0.3C11.9,19.1,11.7,19.2,11.5,19.2z"/></g></g></g></g></g></g></svg>