<?xml version="1.0" ?><!DOCTYPE svg  PUBLIC '-//W3C//DTD SVG 1.1//EN'  'http://www.w3.org/Graphics/SVG/1.1/DTD/svg11.dtd'><svg height="30" version="1.1" viewBox="0 0 38 30" width="38" xml:space="preserve" xmlns="http://www.w3.org/2000/svg" xmlns:xlink="http://www.w3.org/1999/xlink"><g transform="translate(-108 -140)"><g id="Australia" xmlns="http://www.w3.org/2000/svg" xmlns:xlink="http://www.w3.org/1999/xlink"><g><path d="M140,149l-2-1l-1-4h-1v-3h-1l-1,4l-1,1l-4-2l1-2v-1h-5l-1,3h-1l-2-1l-1,1l-3,5l-6,2v3l3,6v3h2l2-2h3v-2h3h3l1,1l2,1v1h2     l1,3h3l1-1h2l2-3l2-4v-3L140,149z M142,156.764l-1.866,3.733L138.465,163h-1.879l-1,1h-1.865l-1-3H131v-0.618l-2.407-1.204     L127.414,158H120v2h-2.414l-2,2H115v-2.236l-3-6v-2.043l5.667-1.889l3.127-5.211l0.403-0.403l1.566,0.783h1.957l1-3h3.161     l-1.224,2.447l5.539,2.77l1.706-1.706l0.128-0.511h1.188l0.923,3.689l2.15,1.075l2.708,4.513V156.764z"/></g><polygon points="135,166 137,167 138,167 138,168 137,169 136,169 135,168   "/></g></g></svg>