<?xml version="1.0" ?><svg height="24" viewBox="0 0 24 24" width="24" xmlns="http://www.w3.org/2000/svg"><title/><g data-name="Layer 2" id="Layer_2"><g data-name="Layer 1" id="Layer_1-2"><path d="M12.05434,17.90163c6.94385.62921,8.83689-10.31949,8.83689-10.31949a19.78285,19.78285,0,0,0-6.00942,1.90479" fill="none" stroke="#000" stroke-linecap="round" stroke-linejoin="round"/><path d="M4.78295,12.46327A17.01474,17.01474,0,0,0,.70063,13.67145s5.67965,8.63623,11.35372,4.23018c5.67354,4.40619,11.35328-4.23018,11.35328-4.23018a17.01472,17.01472,0,0,0-4.08246-1.2082" fill="none" stroke="#000" stroke-linecap="round" stroke-linejoin="round"/><path d="M9.22595,9.48667A19.78326,19.78326,0,0,0,3.217,7.58214s1.89347,10.9487,8.83733,10.31949" fill="none" stroke="#000" stroke-linecap="round" stroke-linejoin="round"/><path d="M12.4184,17.80127c6.96419-4.2194-.36428-13.67368-.36428-13.67368s-7.32847,9.45428-.36428,13.67368A.71128.71128,0,0,0,12.4184,17.80127Z" fill="none" stroke="#000" stroke-linecap="round" stroke-linejoin="round"/></g><g data-name="Layer 2" id="Layer_2-2"><rect fill="none" height="24" width="24"/></g></g></svg>