<?xml version="1.0" ?><!DOCTYPE svg  PUBLIC '-//W3C//DTD SVG 1.1//EN'  'http://www.w3.org/Graphics/SVG/1.1/DTD/svg11.dtd'><svg height="24.35px" style="enable-background:new 0 0 29.5 24.35;" version="1.1" viewBox="0 0 29.5 24.35" width="29.5px" xml:space="preserve" xmlns="http://www.w3.org/2000/svg" xmlns:xlink="http://www.w3.org/1999/xlink"><g id="coffee_tea"><g><path d="M23.28,17.308c0.562,1.034,1.646,1.746,2.904,1.746c1.828,0,3.315-1.485,3.315-3.311    s-1.487-3.31-3.315-3.31c-0.711,0-1.38,0.225-1.929,0.617c0.029-0.395,0.049-0.793,0.049-1.2c0-0.276-0.224-0.5-0.5-0.5H3.231    c-0.276,0-0.5,0.224-0.5,0.5c0,5.307,2.58,9.638,6.439,11.5H0.5c-0.276,0-0.5,0.224-0.5,0.5s0.224,0.5,0.5,0.5h26    c0.276,0,0.5-0.224,0.5-0.5s-0.224-0.5-0.5-0.5h-8.636C20.281,22.184,22.187,20.044,23.28,17.308z M23.982,15.022    c0.313-0.95,1.198-1.589,2.202-1.589c1.276,0,2.315,1.035,2.315,2.31s-1.039,2.311-2.315,2.311c-1.277,0-2.316-1.036-2.316-2.311    c0-0.081,0.005-0.162,0.014-0.242c0.002-0.015-0.007-0.026-0.007-0.041c0.032-0.133,0.058-0.271,0.086-0.405    C23.966,15.043,23.979,15.035,23.982,15.022z M13.518,23.336c-5.436,0-9.569-4.688-9.778-10.986h19.557    C23.088,18.647,18.954,23.336,13.518,23.336z" style="fill:#575756;"/><path d="M12.743,8.944c0,0.276,0.224,0.5,0.5,0.5s0.5-0.224,0.5-0.5c0-0.542,0.173-0.782,0.413-1.114    c0.268-0.372,0.601-0.834,0.601-1.698c0-0.865-0.333-1.328-0.601-1.7c-0.24-0.333-0.413-0.573-0.413-1.116    s0.173-0.783,0.413-1.116c0.268-0.372,0.601-0.835,0.601-1.7c0-0.276-0.224-0.5-0.5-0.5s-0.5,0.224-0.5,0.5    c0,0.543-0.173,0.783-0.413,1.116c-0.268,0.372-0.601,0.835-0.601,1.7s0.333,1.328,0.601,1.7c0.24,0.333,0.413,0.573,0.413,1.116    c0,0.542-0.173,0.781-0.413,1.113C13.077,7.617,12.743,8.08,12.743,8.944z" style="fill:#575756;"/><path d="M9.162,8.944c0,0.276,0.224,0.5,0.5,0.5s0.5-0.224,0.5-0.5c0-0.542,0.173-0.782,0.413-1.114    c0.268-0.372,0.601-0.834,0.601-1.698c0-0.865-0.333-1.328-0.601-1.7c-0.24-0.333-0.413-0.573-0.413-1.116    s0.173-0.783,0.413-1.116c0.268-0.372,0.601-0.835,0.601-1.7c0-0.276-0.224-0.5-0.5-0.5s-0.5,0.224-0.5,0.5    c0,0.543-0.173,0.783-0.413,1.116c-0.268,0.372-0.601,0.835-0.601,1.7s0.333,1.328,0.601,1.7c0.24,0.333,0.413,0.573,0.413,1.116    c0,0.542-0.173,0.781-0.413,1.113C9.496,7.617,9.162,8.08,9.162,8.944z" style="fill:#575756;"/><path d="M16.324,8.944c0,0.276,0.224,0.5,0.5,0.5s0.5-0.224,0.5-0.5c0-0.542,0.173-0.782,0.412-1.114    c0.269-0.372,0.602-0.834,0.602-1.698c0-0.865-0.333-1.328-0.601-1.7c-0.24-0.333-0.413-0.573-0.413-1.116    s0.173-0.783,0.413-1.116c0.268-0.372,0.601-0.835,0.601-1.7c0-0.276-0.224-0.5-0.5-0.5s-0.5,0.224-0.5,0.5    c0,0.543-0.173,0.783-0.413,1.116c-0.268,0.372-0.601,0.835-0.601,1.7s0.333,1.328,0.601,1.7c0.24,0.333,0.413,0.573,0.413,1.116    c0,0.542-0.173,0.781-0.412,1.113C16.657,7.617,16.324,8.08,16.324,8.944z" style="fill:#575756;"/></g></g><g id="Warstwa_1"/></svg>