<?xml version="1.0" ?><svg enable-background="new 0 0 16 16" id="Слой_1" version="1.1" viewBox="0 0 16 16" xml:space="preserve" xmlns="http://www.w3.org/2000/svg" xmlns:xlink="http://www.w3.org/1999/xlink"><g><path d="M12.5,0.125h-9c-1.8608398,0-3.375,1.5141602-3.375,3.375v5c0,1.7324219,1.3173218,3.147644,3,3.3370361   V15.5c0,0.2070313,0.1679688,0.375,0.375,0.375c0.1035156,0,0.1972656-0.0419922,0.2651367-0.1098633L7.6552734,11.875H12.5   c1.8608398,0,3.375-1.5141602,3.375-3.375v-5C15.875,1.6391602,14.3608398,0.125,12.5,0.125z M12.5,11.125h-5   c-0.1035156,0-0.1972656,0.0419922-0.2651367,0.1098633L3.875,14.5947266V11.5c0-0.2070313-0.1679688-0.375-0.375-0.375   c-1.4472656,0-2.625-1.1777344-2.625-2.625v-5c0-1.4472656,1.1777344-2.625,2.625-2.625h9c1.4472656,0,2.625,1.1777344,2.625,2.625   v5C15.125,9.9472656,13.9472656,11.125,12.5,11.125z" fill="#1D1D1B"/><path d="M8,2.125C5.8632813,2.125,4.125,3.8632813,4.125,6S5.8632813,9.875,8,9.875S11.875,8.1367188,11.875,6   S10.1367188,2.125,8,2.125z M7.3780518,7.5h1.2438965C8.4688721,7.9887695,8.2553711,8.4643555,8,8.8637695   C7.7446289,8.4643555,7.5311279,7.9887695,7.3780518,7.5z M7.1954346,6.75C7.1509399,6.4920654,7.125,6.2388306,7.125,6   s0.0259399-0.4920654,0.0704346-0.75h1.6091309C8.8490601,5.5079346,8.875,5.7611694,8.875,6S8.8490601,6.4920654,8.8045654,6.75   H7.1954346z M4.875,6c0-0.2598267,0.0411987-0.5084839,0.1012573-0.75h1.4737549C6.4121094,5.5044556,6.375,5.7598877,6.375,6   s0.0371094,0.4955444,0.0750122,0.75H4.9762573C4.9161987,6.5084839,4.875,6.2598267,4.875,6z M8.6219482,4.5H7.3780518   C7.5311279,4.0112305,7.7446289,3.5356445,8,3.1362305C8.2553711,3.5356445,8.4688721,4.0112305,8.6219482,4.5z M9.5499878,5.25   h1.4737549C11.0838013,5.4915161,11.125,5.7401733,11.125,6s-0.0411987,0.5084839-0.1012573,0.75H9.5499878   C9.5878906,6.4955444,9.625,6.2401123,9.625,6S9.5878906,5.5044556,9.5499878,5.25z M10.7242432,4.5H9.3851318   C9.2376709,3.9664917,9.0375977,3.4466553,8.7738647,2.9836426C9.6154175,3.2001343,10.3129883,3.7564697,10.7242432,4.5z    M7.2261353,2.9836426C6.9624023,3.4466553,6.7623291,3.9664917,6.6148682,4.5H5.2757568   C5.6870117,3.7564697,6.3845825,3.2001343,7.2261353,2.9836426z M5.2757568,7.5h1.3391113   c0.1474609,0.5335083,0.3475342,1.0533447,0.6112671,1.5163574C6.3845825,8.7998657,5.6870117,8.2435303,5.2757568,7.5z    M8.7738647,9.0163574C9.0375977,8.5533447,9.2376709,8.0335083,9.3851318,7.5h1.3391113   C10.3129883,8.2435303,9.6154175,8.7998657,8.7738647,9.0163574z" fill="#1D1D1B"/></g></svg>