<?xml version="1.0" ?><!DOCTYPE svg  PUBLIC '-//W3C//DTD SVG 1.1//EN'  'http://www.w3.org/Graphics/SVG/1.1/DTD/svg11.dtd'><svg enable-background="new 0 0 25 25" id="Layer_1" version="1.1" viewBox="0 0 25 25" xml:space="preserve" xmlns="http://www.w3.org/2000/svg" xmlns:xlink="http://www.w3.org/1999/xlink"><g><path d="M17.44,11.68C17.44,11.68,17.44,11.68,17.44,11.68L17.44,11.68l0.25,0.2c0.04,0.03,0.08,0.05,0.12,0.07    l3.2,2.3c0.09,0.06,0.19,0.09,0.29,0.09c0.14,0,0.28-0.06,0.38-0.17l0.4-0.46c0.37-0.42,0.54-0.97,0.49-1.52    c-0.06-0.55-0.34-1.06-0.78-1.39l-1.7-1.29c-0.09-0.07-0.12-0.2-0.08-0.3c0.24-0.51,0.52-1.36,0.35-2.38    C20.65,6.93,20.96,7,21.3,7c1.65,0,3-1.35,3-3s-1.35-3-3-3s-3,1.35-3,3c0,0.01,0,0.01,0,0.02c-0.47-0.24-1.01-0.42-1.61-0.51    c-1.98-0.28-4.3,0.35-5.91,1.57L7.11,2.15C6.9,1.98,6.58,2.01,6.41,2.23c-0.17,0.22-0.14,0.53,0.08,0.7L17.44,11.68z M16.48,9.09    c-0.02,0.18-0.02,0.36-0.01,0.53l-1.12-0.89c0.35-0.09,0.73-0.11,1.14-0.05C16.5,8.8,16.5,8.94,16.48,9.09z M21.3,2    c1.1,0,2,0.9,2,2s-0.9,2-2,2s-2-0.9-2-2S20.2,2,21.3,2z M16.55,4.51c0.75,0.11,1.77,0.41,2.33,1.27c0.79,1.22,0.56,2.3,0.22,3.01    c-0.25,0.53-0.09,1.18,0.38,1.52l1.7,1.29c0.22,0.17,0.36,0.42,0.39,0.7c0.03,0.28-0.06,0.55-0.24,0.76l-0.1,0.12l-2.9-2.07    c0,0,0,0,0,0l-0.23-0.18c-0.47-0.44-0.71-1.07-0.62-1.69c0.07-0.56-0.02-1.02-0.03-1.07c-0.04-0.19-0.19-0.34-0.38-0.39    c-0.99-0.22-1.86-0.13-2.61,0.25l-2.87-2.29C12.98,4.76,14.9,4.27,16.55,4.51z M24.11,22.92c0.21,0.17,0.25,0.49,0.08,0.7    c-0.73,0.91-1.82,1.4-2.92,1.4c-0.61,0-1.24-0.15-1.81-0.47L0.6,14.05c-0.24-0.13-0.33-0.44-0.19-0.68    c0.13-0.24,0.44-0.33,0.68-0.19l8.62,4.8l2.55-3.1c-0.57-0.53-1.73-1.62-2.64-2.53c-1.21-1.21-1.95-3.32-0.41-5.62    C9.36,6.51,9.67,6.45,9.9,6.6c0.23,0.15,0.29,0.46,0.14,0.69c-1.52,2.25-0.16,3.9,0.29,4.35c1.23,1.23,2.94,2.8,2.95,2.82    c0.19,0.18,0.21,0.48,0.05,0.68l-2.73,3.32l2.33,1.3l2.85-3.54c0.85-1.01,0.76-2.51-0.19-3.42l-2.67-2.54    c-0.2-0.19-0.21-0.51-0.02-0.71c0.19-0.2,0.51-0.21,0.71-0.02l2.67,2.54c1.33,1.27,1.45,3.36,0.27,4.77l-2.73,3.4l6.14,3.42    c1.17,0.64,2.63,0.35,3.46-0.69C23.58,22.78,23.9,22.75,24.11,22.92z" fill="#494B4C"/></g></svg>