<?xml version="1.0" ?><!DOCTYPE svg  PUBLIC '-//W3C//DTD SVG 1.1//EN'  'http://www.w3.org/Graphics/SVG/1.1/DTD/svg11.dtd'><svg id="Layer_1" style="enable-background:new 0 0 64 64;" version="1.1" viewBox="0 0 64 64" xml:space="preserve" xmlns="http://www.w3.org/2000/svg" xmlns:xlink="http://www.w3.org/1999/xlink"><style type="text/css">
	.st0{fill:none;stroke:#221F20;stroke-width:2;stroke-linecap:round;stroke-linejoin:round;stroke-miterlimit:10;}
</style><g><path class="st0" d="M28.7,45L28.7,45c-9.3,0-16.3-8.2-15-17.4L16,12.7h25.4l2.3,14.9C45.1,36.8,38,45,28.7,45z"/><path class="st0" d="M13.8,27.8c-1.3,9.1,5.8,17.2,15,17.2l0,0c9.2,0,16.2-8.1,15-17.2H13.8z"/><polygon class="st0" points="34,59.4 23.4,59.4 18.1,63 39.3,63  "/><path class="st0" d="M30.5,44.9v14.5h-3.6V44.9c0.6,0.1,1.2,0.1,1.8,0.1C29.3,45,29.9,45,30.5,44.9z"/><path class="st0" d="M23.6,12.7H16l-1.1,7.5c-3.7-0.5-6.5-3.7-6.5-7.5C8.4,8.4,11.8,5,16,5S23.6,8.4,23.6,12.7z"/><polyline class="st0" points="55.6,1 39.3,7.2 24.4,39.7  "/></g></svg>