<?xml version="1.0" ?><!DOCTYPE svg  PUBLIC '-//W3C//DTD SVG 1.1//EN'  'http://www.w3.org/Graphics/SVG/1.1/DTD/svg11.dtd'><svg enable-background="new 0 0 24 24" height="24px" id="Layer_1" version="1.1" viewBox="0 0 24 24" width="24px" xml:space="preserve" xmlns="http://www.w3.org/2000/svg" xmlns:xlink="http://www.w3.org/1999/xlink"><g><g><g><path d="M19.2,21.9H5c-0.2,0-0.4-0.2-0.4-0.4v-9.9H2.3c-0.2,0-0.3-0.1-0.4-0.3c-0.1-0.2,0-0.3,0.1-0.5l9.8-8.7     C12,2,12.2,2,12.4,2.1l9.9,8.7c0.2,0.1,0.2,0.3,0.1,0.5c-0.1,0.2-0.3,0.3-0.4,0.3h-2.3v9.9C19.6,21.7,19.5,21.9,19.2,21.9z      M5.4,21.1h13.4v-9.9c0-0.2,0.2-0.4,0.4-0.4h1.6L12.1,3l-8.7,7.8H5c0.3,0,0.4,0.2,0.4,0.4V21.1z"/></g><g><path d="M5.4,6.9H4.5V2.6c0-0.2,0.2-0.4,0.4-0.4h3.7c0.3,0,0.4,0.2,0.4,0.4v1H8.3V3.1H5.4V6.9z"/></g></g><g><g><g><g><path d="M12.1,13.8c-0.9,0-1.6-0.7-1.6-1.6v-0.4c0-0.9,0.7-1.6,1.6-1.6s1.6,0.7,1.6,1.6c0,0.2-0.2,0.4-0.4,0.4       c-0.3,0-0.4-0.2-0.4-0.4c0-0.4-0.3-0.7-0.7-0.7s-0.7,0.3-0.7,0.7v0.4c0,0.4,0.3,0.8,0.7,0.8c0.2,0,0.4,0.2,0.4,0.4       S12.3,13.8,12.1,13.8z"/></g><g><path d="M12.1,16.6c-0.9,0-1.6-0.7-1.6-1.6c0-0.2,0.2-0.4,0.4-0.4c0.2,0,0.4,0.2,0.4,0.4c0,0.4,0.3,0.8,0.7,0.8       s0.7-0.3,0.7-0.8v-0.4c0-0.4-0.3-0.7-0.7-0.7c-0.3,0-0.4-0.2-0.4-0.4s0.2-0.4,0.4-0.4c0.9,0,1.6,0.7,1.6,1.6V15       C13.7,15.9,13,16.6,12.1,16.6z"/></g></g><g><g><path d="M12.1,10.9c-0.3,0-0.4-0.2-0.4-0.4V9.9c0-0.2,0.2-0.4,0.4-0.4c0.2,0,0.4,0.2,0.4,0.4v0.6       C12.5,10.7,12.3,10.9,12.1,10.9z"/></g><g><path d="M12.1,17.3c-0.3,0-0.4-0.2-0.4-0.4v-0.6c0-0.2,0.2-0.4,0.4-0.4c0.2,0,0.4,0.2,0.4,0.4v0.6       C12.5,17.1,12.3,17.3,12.1,17.3z"/></g></g></g><g><g><path d="M12.1,18.7c-3,0-5.4-2.4-5.4-5.4c0-2.9,2.4-5.3,5.4-5.3c3,0,5.4,2.4,5.4,5.3C17.5,16.3,15.1,18.7,12.1,18.7z M12.1,8.9      c-2.5,0-4.5,2-4.5,4.5c0,2.5,2,4.5,4.5,4.5c2.5,0,4.5-2,4.5-4.5C16.6,10.9,14.6,8.9,12.1,8.9z"/></g></g></g></g></svg>