<?xml version="1.0" ?><!DOCTYPE svg  PUBLIC '-//W3C//DTD SVG 1.1//EN'  'http://www.w3.org/Graphics/SVG/1.1/DTD/svg11.dtd'><svg enable-background="new 0 0 24 24" height="24px" id="Layer_1" version="1.1" viewBox="0 0 24 24" width="24px" xml:space="preserve" xmlns="http://www.w3.org/2000/svg" xmlns:xlink="http://www.w3.org/1999/xlink"><g><g><path d="M1,23.4c-0.1,0-0.3-0.1-0.4-0.1c-0.1-0.1-0.2-0.4-0.1-0.6L7.6,7.9c0.1-0.2,0.4-0.4,0.7-0.2c0.2,0.1,0.4,0.4,0.2,0.7    L2.1,21.9l13.6-6.5c0.2-0.1,0.5,0,0.7,0.2c0.1,0.2,0,0.5-0.2,0.7L1.2,23.4C1.1,23.4,1.1,23.4,1,23.4z"/></g><g><path d="M15.9,16.3c-0.1,0-0.3,0-0.4-0.1c-0.1-0.1-0.2-0.3-0.1-0.5c-0.1-0.4-1.1-1.9-3.2-3.9c-2.1-2.1-3.5-3.1-3.9-3.2    c-0.2,0.1-0.4,0-0.5-0.1c-0.2-0.2-0.2-0.5,0-0.7C7.9,7.6,8,7.5,8.3,7.5c1.1,0,4.1,2.9,4.7,3.5c0.6,0.6,3.5,3.6,3.5,4.7    c0,0.2-0.1,0.4-0.2,0.5C16.2,16.3,16,16.3,15.9,16.3z"/></g><g><path d="M13.8,17.3c-0.1,0-0.2,0-0.2-0.1l-7.8-4.4c-0.2-0.1-0.3-0.4-0.2-0.7S6,11.9,6.3,12l7.8,4.4c0.2,0.1,0.3,0.4,0.2,0.7    C14.1,17.2,14,17.3,13.8,17.3z"/></g><g><path d="M9.9,19.2c-0.1,0-0.2,0-0.2-0.1L4.3,16c-0.2-0.1-0.3-0.4-0.2-0.7s0.4-0.3,0.7-0.2l5.4,3.1c0.2,0.1,0.3,0.4,0.2,0.7    C10.3,19.1,10.1,19.2,9.9,19.2z"/></g><g><path d="M6.1,21c-0.1,0-0.2,0-0.2-0.1l-3.1-1.7c-0.2-0.1-0.3-0.4-0.2-0.7c0.1-0.2,0.4-0.3,0.7-0.2l3.1,1.7    c0.2,0.1,0.3,0.4,0.2,0.7C6.4,20.9,6.2,21,6.1,21z"/></g><g><g><path d="M14,8.1c-0.3,0-0.5-0.2-0.5-0.5s0.2-0.5,0.5-0.5c0.5,0,0.9-0.4,0.9-0.9c0-0.3,0.2-0.5,0.5-0.5h0c0.3,0,0.5,0.2,0.5,0.5     C15.8,7.3,15,8.1,14,8.1z"/></g><g><path d="M15.3,6.7c-0.3,0-0.5-0.2-0.5-0.5s0.2-0.5,0.5-0.5c0.5,0,0.9-0.4,0.9-0.9c0-0.3,0.2-0.5,0.5-0.5c0,0,0,0,0,0     c0.3,0,0.5,0.2,0.5,0.5C17.2,5.9,16.4,6.7,15.3,6.7z"/></g><g><path d="M16.7,5.4c-0.3,0-0.5-0.2-0.5-0.5s0.2-0.5,0.5-0.5c0.5,0,0.9-0.4,0.9-0.9c0-0.3,0.2-0.5,0.5-0.5h0c0.3,0,0.5,0.2,0.5,0.5     C18.6,4.5,17.7,5.4,16.7,5.4z"/></g></g><g><g><path d="M15,11.4c-0.3,0-0.5-0.2-0.5-0.5c0-1,0.8-1.9,1.9-1.9c0.3,0,0.5,0.2,0.5,0.5s-0.2,0.5-0.5,0.5c-0.5,0-0.9,0.4-0.9,0.9     C15.5,11.2,15.3,11.4,15,11.4z"/></g><g><path d="M16.4,10.1c-0.3,0-0.5-0.2-0.5-0.5c0-1,0.8-1.9,1.9-1.9c0.3,0,0.5,0.2,0.5,0.5S18,8.7,17.8,8.7c-0.5,0-0.9,0.4-0.9,0.9     C16.9,9.8,16.7,10.1,16.4,10.1z"/></g><g><path d="M17.8,8.7c-0.3,0-0.5-0.2-0.5-0.5c0-1,0.8-1.9,1.9-1.9c0.3,0,0.5,0.2,0.5,0.5s-0.2,0.5-0.5,0.5c-0.5,0-0.9,0.4-0.9,0.9     C18.3,8.5,18,8.7,17.8,8.7z"/></g></g><g><g><path d="M18.4,13.5C18.4,13.5,18.3,13.5,18.4,13.5c-0.3,0-0.5-0.3-0.5-0.6l0.1-0.6c0-0.2,0-0.3-0.1-0.5c-0.1-0.1-0.3-0.2-0.4-0.2     c-0.4,0-0.7,0.2-0.7,0.6l0,0.4c0,0.3-0.3,0.5-0.6,0.4c-0.3,0-0.5-0.3-0.4-0.6l0-0.4c0.1-0.9,0.9-1.5,1.8-1.4     c0.4,0.1,0.8,0.3,1.1,0.6c0.3,0.3,0.4,0.8,0.3,1.2l-0.1,0.6C18.8,13.4,18.6,13.5,18.4,13.5z"/></g><g><path d="M22.8,14.7" fill="none" stroke="#000000" stroke-linecap="round" stroke-linejoin="round" stroke-miterlimit="10"/></g><g><path d="M20.7,13.6C20.7,13.6,20.6,13.6,20.7,13.6c-0.3,0-0.5-0.3-0.5-0.6l0-0.4c0.1-0.9,0.9-1.5,1.8-1.4     c0.4,0.1,0.8,0.3,1.1,0.6c0.3,0.3,0.4,0.8,0.3,1.2c0,0.3-0.3,0.5-0.6,0.4c-0.3,0-0.5-0.3-0.4-0.6c0-0.2,0-0.3-0.1-0.5     c-0.1-0.1-0.3-0.2-0.4-0.2c-0.4,0-0.7,0.2-0.7,0.6l0,0.4C21.1,13.4,20.9,13.6,20.7,13.6z"/></g><g><path d="M22.8,15.2C22.8,15.2,22.7,15.2,22.8,15.2c-0.3,0-0.5-0.3-0.5-0.6l0-0.1c0-0.3,0.3-0.5,0.6-0.4c0.3,0,0.5,0.3,0.4,0.6     l0,0.1C23.2,15,23,15.2,22.8,15.2z"/></g><g><path d="M19.5,14.8c-0.1,0-0.1,0-0.2,0c-0.9-0.1-1.5-0.9-1.4-1.8c0-0.3,0.3-0.5,0.6-0.4c0.3,0,0.5,0.3,0.4,0.6     c0,0.4,0.2,0.7,0.6,0.7c0.2,0,0.3,0,0.5-0.1s0.2-0.3,0.2-0.4l0.1-0.4c0-0.3,0.3-0.5,0.6-0.4c0.3,0,0.5,0.3,0.4,0.6l-0.1,0.4     c-0.1,0.4-0.3,0.8-0.6,1.1C20.2,14.7,19.9,14.8,19.5,14.8z"/></g><g><path d="M11.2,8.4c-0.2,0-0.5-0.2-0.5-0.4c0-0.3,0.2-0.5,0.4-0.6l0.4-0.1c0.2,0,0.3-0.1,0.4-0.2c0.1-0.1,0.2-0.3,0.1-0.5     c0-0.2-0.1-0.3-0.2-0.4c-0.1-0.1-0.3-0.2-0.5-0.1l-0.6,0.1c-0.3,0-0.5-0.2-0.6-0.4c0-0.3,0.2-0.5,0.4-0.6l0.6-0.1     c0.4-0.1,0.9,0.1,1.2,0.3s0.6,0.7,0.6,1.1c0.1,0.4-0.1,0.9-0.3,1.2c-0.3,0.3-0.7,0.6-1.1,0.6L11.2,8.4     C11.3,8.4,11.3,8.4,11.2,8.4z"/></g><g><path d="M9,1.3" fill="none" stroke="#000000" stroke-linecap="round" stroke-linejoin="round" stroke-miterlimit="10"/></g><g><path d="M10.7,3.9c-0.2,0-0.5-0.2-0.5-0.4c0-0.3,0.2-0.5,0.4-0.6l0.4,0c0.4,0,0.6-0.4,0.6-0.7c0-0.2-0.1-0.3-0.2-0.4     S11,1.6,10.9,1.6c-0.3,0-0.5-0.2-0.6-0.4s0.2-0.5,0.4-0.6c0.4-0.1,0.9,0.1,1.2,0.3c0.3,0.3,0.6,0.7,0.6,1.1     c0.1,0.9-0.5,1.7-1.4,1.8L10.7,3.9C10.7,3.9,10.7,3.9,10.7,3.9z"/></g><g><path d="M9,1.8c-0.2,0-0.5-0.2-0.5-0.4c0-0.3,0.2-0.5,0.4-0.6l0.1,0c0.3,0,0.5,0.2,0.6,0.4S9.5,1.7,9.2,1.8L9,1.8     C9.1,1.8,9.1,1.8,9,1.8z"/></g><g><path d="M10.6,6.2C9.8,6.2,9.1,5.6,9,4.8C8.9,3.9,9.5,3,10.4,2.9l0.4-0.1c0.3,0,0.5,0.2,0.6,0.4c0,0.3-0.2,0.5-0.4,0.6l-0.4,0.1     C10.2,4,9.9,4.3,10,4.6c0,0.3,0.4,0.6,0.7,0.6c0.3,0,0.5,0.2,0.6,0.4c0,0.3-0.2,0.5-0.4,0.6C10.7,6.2,10.7,6.2,10.6,6.2z"/></g></g><g><path d="M13.9,13.3c-0.1,0-0.2,0-0.2-0.1L7.3,9.7C7,9.5,6.9,9.2,7.1,9c0.1-0.2,0.4-0.3,0.7-0.2l6.4,3.6c0.2,0.1,0.3,0.4,0.2,0.7    C14.2,13.2,14.1,13.3,13.9,13.3z"/></g></g></svg>