<?xml version="1.0" ?><!DOCTYPE svg  PUBLIC '-//W3C//DTD SVG 1.1//EN'  'http://www.w3.org/Graphics/SVG/1.1/DTD/svg11.dtd'><svg enable-background="new 0 0 24 24" height="24px" id="Layer_1" version="1.1" viewBox="0 0 24 24" width="24px" xml:space="preserve" xmlns="http://www.w3.org/2000/svg" xmlns:xlink="http://www.w3.org/1999/xlink"><g><g><path d="M15.7,16.3H5c-0.1,0-0.3-0.1-0.4-0.2l-2.9-4.8c-0.1-0.2-0.1-0.3,0-0.4c0.1-0.1,0.2-0.2,0.4-0.2h16.5    c0.2,0,0.3,0.1,0.4,0.2c0.1,0.1,0.1,0.3,0,0.4L16,16.1C16,16.2,15.8,16.3,15.7,16.3z M5.3,15.5h10.2l2.4-3.9h-15L5.3,15.5z"/></g><g><path d="M15.7,16.3c-0.1,0-0.1,0-0.2-0.1c-0.2-0.1-0.3-0.4-0.1-0.6l4.9-7.8c0.1-0.2,0.4-0.3,0.6-0.1C21,7.8,21,8.1,20.9,8.3    L16,16.1C16,16.2,15.8,16.3,15.7,16.3z"/></g><g><path d="M9.5,11.6H2.1c-0.2,0-0.4-0.2-0.4-0.4l0-2.1c0-3.5,2.8-6.3,6.3-6.3h1.5c0.2,0,0.4,0.2,0.4,0.4v8    C9.9,11.4,9.7,11.6,9.5,11.6z M2.5,10.7h6.5V3.6H8C5,3.6,2.5,6,2.5,9V10.7z"/></g><g><g><g><path d="M5.7,21.3c-1.3,0-2.3-1-2.3-2.3s1-2.3,2.3-2.3C7,16.8,8,17.8,8,19S7,21.3,5.7,21.3z M5.7,17.6c-0.8,0-1.4,0.6-1.4,1.4      c0,0.8,0.6,1.4,1.4,1.4c0.8,0,1.4-0.6,1.4-1.4C7.1,18.3,6.5,17.6,5.7,17.6z"/></g><path d="M5.7,18.4c-0.3,0-0.6,0.3-0.6,0.6c0,0.3,0.3,0.6,0.6,0.6s0.6-0.3,0.6-0.6C6.3,18.7,6,18.4,5.7,18.4z"/></g><g><g><path d="M15,21.3c-1.2,0-2.2-1-2.2-2.3s1-2.3,2.2-2.3c1.3,0,2.3,1,2.3,2.3S16.2,21.3,15,21.3z M15,17.6c-0.8,0-1.4,0.6-1.4,1.4      c0,0.8,0.6,1.4,1.4,1.4c0.8,0,1.4-0.6,1.4-1.4C16.4,18.3,15.8,17.6,15,17.6z"/></g><path d="M15,18.4c-0.3,0-0.6,0.3-0.6,0.6c0,0.3,0.3,0.6,0.6,0.6c0.4,0,0.6-0.3,0.6-0.6C15.6,18.7,15.3,18.4,15,18.4z"/></g></g><g><path d="M11.7,19.5H9c-0.2,0-0.4-0.2-0.4-0.4c0-0.2,0.2-0.4,0.4-0.4h2.7c0.2,0,0.4,0.2,0.4,0.4C12.1,19.3,11.9,19.5,11.7,19.5z"/></g><g><path d="M21.7,8.3h-1.2c-0.2,0-0.4-0.2-0.4-0.4c0-0.2,0.2-0.4,0.4-0.4h1.2c0.2,0,0.4,0.2,0.4,0.4C22.1,8.1,21.9,8.3,21.7,8.3z"/></g><g><path d="M9.5,11.6c-0.1,0-0.3-0.1-0.4-0.2L4.6,4.2C4.5,4,4.5,3.7,4.7,3.6c0.2-0.1,0.5-0.1,0.6,0.1l4.6,7.1c0.1,0.2,0,0.5-0.1,0.6    C9.7,11.5,9.6,11.6,9.5,11.6z"/></g><g><path d="M9.5,11.6c0,0-0.1,0-0.2-0.1L2.1,7.9C1.9,7.8,1.8,7.6,1.9,7.4C2,7.1,2.3,7.1,2.5,7.2l7.2,3.6c0.2,0.1,0.3,0.4,0.2,0.6    C9.8,11.5,9.7,11.6,9.5,11.6z"/></g></g></svg>