<?xml version="1.0" ?><svg viewBox="0 0 24 24" xmlns="http://www.w3.org/2000/svg"><defs><style>.a{fill:none;stroke:#231f20;stroke-linecap:round;stroke-linejoin:round;}</style></defs><title/><rect class="a" height="4" transform="translate(11) rotate(90)" width="4" x="3.5" y="3.5"/><rect class="a" height="4" transform="translate(17 6) rotate(90)" width="4" x="3.5" y="9.5"/><rect class="a" height="4" transform="translate(23 12) rotate(90)" width="4" x="3.5" y="15.5"/><rect class="a" height="4" transform="translate(17 -6) rotate(90)" width="4" x="9.5" y="3.5"/><rect class="a" height="4" transform="translate(23) rotate(90)" width="4" x="9.5" y="9.5"/><rect class="a" height="4" transform="translate(29 6) rotate(90)" width="4" x="9.5" y="15.5"/><rect class="a" height="4" transform="translate(23 -12) rotate(90)" width="4" x="15.5" y="3.5"/><rect class="a" height="4" transform="translate(29 -6) rotate(90)" width="4" x="15.5" y="9.5"/><rect class="a" height="4" transform="translate(35) rotate(90)" width="4" x="15.5" y="15.5"/></svg>