<?xml version="1.0" ?><!DOCTYPE svg  PUBLIC '-//W3C//DTD SVG 1.1//EN'  'http://www.w3.org/Graphics/SVG/1.1/DTD/svg11.dtd'><svg enable-background="new 0 0 512 512" id="Layer_1" version="1.1" viewBox="0 0 512 512" xml:space="preserve" xmlns="http://www.w3.org/2000/svg" xmlns:xlink="http://www.w3.org/1999/xlink"><path d="M411.7,206.8c-7.1,0-14,0.8-20.7,2.2l-25.6-84.2h38.1c4.5,0,8.2,3.7,8.2,8.2s-3.7,8.2-8.2,8.2h-16.4v16.4h16.4  c13.6,0,24.6-11,24.6-24.6c0-13.6-11-24.6-24.6-24.6h-60.2l12.5,41H192.4l-12.9-24.6h27.4v-16.4h-65.5v16.4h19.6l14.7,27.9  l-34.9,62.8c-12.3-5.6-26-8.8-40.4-8.8C46.1,206.8,2,250.9,2,305.2s44.1,98.3,98.3,98.3c51.5,0,93.7-39.7,97.9-90.1h17.6  c3.8,18.7,20.4,32.8,40.1,32.8c22.6,0,41-18.4,41-41c0-11.1-4.5-21.1-11.6-28.5l77-105.4l13,42.6c-36.3,14.5-62,49.9-62,91.3  c0,54.2,44.1,98.3,98.3,98.3s98.3-44.1,98.3-98.3S465.9,206.8,411.7,206.8z M100.3,387.1c-45.2,0-81.9-36.8-81.9-81.9  c0-45.2,36.8-81.9,81.9-81.9c11.5,0,22.5,2.4,32.4,6.7l-46.3,83.4h95.4C177.7,354.7,142.7,387.1,100.3,387.1z M114.2,297l32.8-59  c19.1,13.3,32.4,34.6,34.8,59H114.2z M215.9,297h-17.6c-2.5-30.6-19-57.2-43.2-73.4l29.7-53.4l52.1,99  C226.3,274.8,218.3,284.9,215.9,297z M256,329.7c-13.6,0-24.6-11-24.6-24.6s11-24.6,24.6-24.6c13.6,0,24.6,11,24.6,24.6  S269.6,329.7,256,329.7z M271.9,267.4c-11-4.2-17.9-3-19-2.9L201,165.9h145L271.9,267.4z M411.7,387.1c-45.2,0-81.9-36.8-81.9-81.9  c0-34,20.8-63.2,50.4-75.6l23.7,78l15.7-4.8l-23.7-78c5.1-1,10.5-1.6,15.9-1.6c45.2,0,81.9,36.8,81.9,81.9  C493.6,350.3,456.9,387.1,411.7,387.1z"/></svg>