<?xml version="1.0" ?><!DOCTYPE svg  PUBLIC '-//W3C//DTD SVG 1.1//EN'  'http://www.w3.org/Graphics/SVG/1.1/DTD/svg11.dtd'><svg enable-background="new 0 0 24 24" height="24px" id="Layer_1" version="1.1" viewBox="0 0 24 24" width="24px" xml:space="preserve" xmlns="http://www.w3.org/2000/svg" xmlns:xlink="http://www.w3.org/1999/xlink"><g><g><g><g><path d="M5.1,21.7c-0.1,0-0.1,0-0.2,0c-0.2-0.1-0.3-0.4-0.2-0.6l1.9-5.3c0.1-0.2,0.4-0.3,0.6-0.2c0.2,0.1,0.3,0.3,0.3,0.5      l-1.9,5.3C5.5,21.6,5.3,21.7,5.1,21.7z"/></g><g><path d="M6.5,22.2c0,0-0.1,0-0.1,0l-2.9-1c-0.2-0.1-0.3-0.3-0.2-0.6c0.1-0.2,0.3-0.3,0.6-0.2l2.9,1c0.2,0.1,0.3,0.4,0.2,0.6      C6.9,22.1,6.7,22.2,6.5,22.2z"/></g></g><g><path d="M12,8.4c-0.1,0-0.1,0-0.2,0L7.3,6.7C7.1,6.7,7,6.4,7,6.2C7.1,6,7.4,5.9,7.6,5.9l4.6,1.6c0.2,0.1,0.3,0.4,0.3,0.6     C12.4,8.3,12.2,8.4,12,8.4z"/></g><g><path d="M8.1,10.2c-0.1,0-0.1,0-0.1,0c-0.1,0-0.2-0.1-0.3-0.2c-0.1-0.1-0.1-0.3,0-0.4c0,0,0,0,0-0.1C7.8,9.3,8,9.2,8.2,9.3     c0.1,0,0.2,0.2,0.3,0.3c0,0.1,0.1,0.2,0,0.3h0c0,0,0,0,0,0.1c0,0,0,0,0,0.1h0C8.4,10.1,8.3,10.2,8.1,10.2z"/></g><g><path d="M8.4,14.9c0,0-0.1,0-0.2,0C8,14.7,7.9,14.4,8,14.2C8,14,8.4,13.9,8.6,14c0.1,0,0.2,0.1,0.2,0.2c0,0.1,0,0.3,0,0.3     C8.7,14.7,8.6,14.9,8.4,14.9z"/></g><g><path d="M6.8,13.2c-0.1,0-0.2,0-0.2-0.1c-0.2-0.1-0.3-0.3-0.2-0.6c0.1-0.2,0.4-0.4,0.6-0.2c0.2,0.1,0.3,0.3,0.2,0.5     C7.2,13.1,7,13.2,6.8,13.2z"/></g><g><path d="M9.1,12.9c-0.1,0-0.1,0-0.2,0c-0.2,0-0.3-0.2-0.3-0.4c0,0,0,0,0-0.1C8.7,12.1,9,12,9.2,12l0,0c0.1,0,0.2,0.1,0.2,0.2     c0.1,0.1,0.1,0.3,0.1,0.4C9.4,12.8,9.3,12.9,9.1,12.9z"/></g><g><path d="M10.6,11.1c-0.1,0-0.2,0-0.2-0.1c-0.1-0.1-0.2-0.2-0.2-0.2c0-0.1,0-0.2,0-0.3l0,0c0,0,0-0.1,0-0.1c0,0,0,0,0,0l0,0     c0.1-0.2,0.4-0.3,0.6-0.2c0.2,0.1,0.3,0.3,0.2,0.6c0,0-0.1,0.1-0.1,0.1C10.8,11,10.7,11.1,10.6,11.1z"/></g><g><path d="M9.6,9.4C9.5,9.4,9.5,9.4,9.6,9.4c-0.1,0-0.2,0-0.2-0.1C9.2,9.3,9.1,9.2,9.1,9c0-0.1,0-0.2,0-0.3     c0.1-0.2,0.4-0.4,0.6-0.2C9.8,8.6,9.9,8.7,10,8.8c0,0.1,0,0.3,0,0.4C9.9,9.3,9.7,9.4,9.6,9.4z"/></g></g><g><g><g><path d="M16.9,16.6c-1.7,0-3.2-1-3.7-2.6L10.8,3.9c-0.1-0.2,0.1-0.4,0.3-0.5l4.3-1.5c0.2-0.1,0.4,0,0.5,0.2l4.6,9.3      c0.8,2.1-0.3,4.4-2.4,5.1C17.8,16.6,17.3,16.6,16.9,16.6z M11.8,4l2.2,9.7c0.4,1.2,1.6,2,2.9,2c0.3,0,0.7-0.1,1-0.2      c1.6-0.6,2.4-2.4,1.8-4l-4.4-8.9L11.8,4z"/></g><g><path d="M20,21.7c-0.2,0-0.3-0.1-0.4-0.3l-1.9-5.3c-0.1-0.2,0-0.5,0.3-0.5c0.2-0.1,0.5,0,0.6,0.2l1.9,5.3c0.1,0.2,0,0.5-0.2,0.6      C20.1,21.7,20,21.7,20,21.7z"/></g><g><path d="M18.5,22.2c-0.2,0-0.4-0.1-0.4-0.3c-0.1-0.2,0-0.5,0.2-0.6l2.9-1c0.2-0.1,0.5,0,0.6,0.2c0.1,0.3,0,0.5-0.2,0.6l-2.9,1      C18.6,22.2,18.6,22.2,18.5,22.2z"/></g></g><g><path d="M12.3,8.7c-0.2,0-0.3-0.1-0.4-0.3c-0.1-0.2,0-0.4,0.3-0.5l5.4-2c0.2,0,0.5,0,0.6,0.3c0.1,0.2,0,0.5-0.3,0.5l-5.3,2     C12.4,8.7,12.3,8.7,12.3,8.7z"/></g><g><path d="M17,10.2c-0.2,0-0.4-0.1-0.4-0.3c0-0.1,0-0.3,0-0.4c0.1-0.1,0.2-0.2,0.3-0.3c0.2-0.1,0.4,0,0.5,0.2c0,0,0,0,0,0.1     c0,0.1,0,0.3,0,0.4c0,0.1-0.2,0.2-0.3,0.2C17.1,10.2,17,10.2,17,10.2z"/></g><g><path d="M16.7,14.9c-0.2,0-0.4-0.1-0.4-0.3c0-0.1,0-0.2,0-0.3c0-0.1,0.1-0.1,0.2-0.2v0c0,0,0,0,0,0c0,0,0,0,0,0     c0.2-0.1,0.5,0.1,0.5,0.3c0,0.1,0,0.2,0,0.3c0,0.1-0.2,0.2-0.3,0.3C16.8,14.8,16.7,14.9,16.7,14.9z"/></g><g><path d="M18.3,13.2c-0.2,0-0.4-0.1-0.4-0.3c0-0.1,0-0.2,0-0.3c0-0.1,0.1-0.1,0.2-0.2l0,0c0,0,0,0,0.1,0c0,0,0,0,0,0l0,0     c0.2-0.1,0.4,0.1,0.5,0.2c0.1,0.2,0,0.5-0.2,0.6C18.5,13.2,18.4,13.2,18.3,13.2z"/></g><g><path d="M16,12.9c-0.2,0-0.4-0.1-0.4-0.3c0-0.1,0-0.3,0.1-0.4c0-0.1,0.1-0.1,0.2-0.2l0,0c0.2-0.1,0.5,0.1,0.6,0.4c0,0,0,0,0,0.1     c0,0.2-0.1,0.4-0.3,0.4C16.1,12.9,16.1,12.9,16,12.9z"/></g><g><path d="M14.5,11.1C14.5,11.1,14.5,11.1,14.5,11.1c-0.2,0-0.3-0.1-0.4-0.3c-0.1-0.2,0-0.4,0.2-0.6c0.3-0.2,0.6,0,0.7,0.3     c0,0,0,0.1,0,0.1c0,0.2-0.1,0.3-0.3,0.4C14.7,11.1,14.6,11.1,14.5,11.1z"/></g><g><path d="M15.5,9.4c-0.2,0-0.3-0.1-0.4-0.2h0c0,0,0,0,0-0.1c0,0,0,0,0-0.1l0,0c0-0.1,0-0.2,0-0.2c0-0.1,0.1-0.2,0.2-0.2     c0.2-0.1,0.5,0,0.6,0.2C16,8.8,16,9,16,9.1c0,0.1-0.1,0.2-0.2,0.2c0,0-0.1,0-0.1,0C15.6,9.4,15.6,9.4,15.5,9.4z"/></g></g><g><path d="M8.2,16.6L8.2,16.6c-0.4,0-0.9-0.1-1.3-0.2c-2.1-0.8-3.1-3-2.4-5.1L9.1,2c0.1-0.2,0.3-0.3,0.5-0.2l3,1.1    C12.9,3,13,3.1,13,3.3c0,0.2-0.1,0.3-0.3,0.4L11.8,4L13,9.3c0,0.1,0,0.2,0,0.2l-1,4.5C11.4,15.6,9.9,16.6,8.2,16.6z M9.7,2.8    l-4.5,8.9c-0.6,1.5,0.3,3.3,1.9,3.9c0.3,0.1,0.7,0.2,1,0.2l0,0c1.3,0,2.5-0.8,2.9-2l1-4.3l-1.3-5.5c-0.1-0.2,0.1-0.4,0.3-0.5    l0.1-0.1L9.7,2.8z"/></g></g></svg>