<?xml version="1.0" ?><!DOCTYPE svg  PUBLIC '-//W3C//DTD SVG 1.1//EN'  'http://www.w3.org/Graphics/SVG/1.1/DTD/svg11.dtd'><svg enable-background="new 0 0 24 24" height="24px" id="Layer_1" version="1.1" viewBox="0 0 24 24" width="24px" xml:space="preserve" xmlns="http://www.w3.org/2000/svg" xmlns:xlink="http://www.w3.org/1999/xlink"><g><g><path d="M22.1,19.2H1.5C1.2,19.2,1,19,1,18.7V5.2C1,5,1.2,4.8,1.5,4.8h20.7c0.3,0,0.5,0.2,0.5,0.5v13.5    C22.6,19,22.4,19.2,22.1,19.2z M1.9,18.3h19.8V5.7H1.9V18.3z"/></g><g><g><polygon points="4,22.1 3.3,21.4 5.4,19.3 6,19.9    "/></g><g><rect height="0.9" transform="matrix(0.6865 0.7271 -0.7271 0.6865 20.9645 -7.2551)" width="3" x="17.4" y="20.2"/></g></g><g><path d="M16.4,16.8H5.7c-1,0-1.9-0.8-1.9-1.9V9.1c0-1,0.8-1.9,1.9-1.9h10.7c1,0,1.9,0.8,1.9,1.9v5.8    C18.3,15.9,17.4,16.8,16.4,16.8z M5.7,8.1c-0.5,0-1,0.4-1,1v5.8c0,0.5,0.4,1,1,1h10.7c0.5,0,1-0.4,1-1V9.1c0-0.5-0.4-1-1-1H5.7z"/></g><g><path d="M20.1,8.1h-0.4c-0.2,0-0.5-0.2-0.5-0.5c0-0.2,0.2-0.4,0.5-0.4h0.4c0.3,0,0.5,0.2,0.5,0.4C20.6,7.9,20.4,8.1,20.1,8.1z"/></g><g><path d="M20.1,10h-0.4c-0.2,0-0.5-0.2-0.5-0.5c0-0.3,0.2-0.5,0.5-0.5h0.4c0.3,0,0.5,0.2,0.5,0.5C20.6,9.8,20.4,10,20.1,10z"/></g><g><path d="M20.1,11.8h-0.4c-0.2,0-0.5-0.2-0.5-0.5c0-0.3,0.2-0.5,0.5-0.5h0.4c0.3,0,0.5,0.2,0.5,0.5C20.6,11.6,20.4,11.8,20.1,11.8z    "/></g><g><path d="M11.8,5.7c-0.1,0-0.2,0-0.3-0.1l-3-3.1c-0.2-0.2-0.2-0.4,0-0.6c0.2-0.2,0.4-0.2,0.6,0l2.7,2.7l2.7-2.7    c0.2-0.2,0.5-0.2,0.6,0c0.2,0.2,0.2,0.4,0,0.6l-3,3.1C12,5.6,11.9,5.7,11.8,5.7z"/></g></g></svg>