<?xml version="1.0" ?><!DOCTYPE svg  PUBLIC '-//W3C//DTD SVG 1.1//EN'  'http://www.w3.org/Graphics/SVG/1.1/DTD/svg11.dtd'><svg enable-background="new 0 0 24 24" height="24px" id="Layer_1" version="1.1" viewBox="0 0 24 24" width="24px" xml:space="preserve" xmlns="http://www.w3.org/2000/svg" xmlns:xlink="http://www.w3.org/1999/xlink"><g><g><g><path d="M20.9,22.5H4.1c-0.8,0-1.6-0.4-2-1.1c-0.4-0.7-0.5-1.6-0.1-2.3l8.4-16.3c0.4-0.8,1.2-1.3,2.1-1.3c0.9,0,1.7,0.5,2.1,1.3     L23,19.1c0.4,0.7,0.3,1.6-0.1,2.3C22.5,22.1,21.7,22.5,20.9,22.5z M12.5,2.4c-0.6,0-1.1,0.3-1.3,0.8L2.8,19.5     c-0.2,0.5-0.2,1,0,1.4c0.3,0.5,0.8,0.7,1.3,0.7h16.8c0.5,0,1-0.3,1.3-0.7c0.3-0.5,0.3-1,0.1-1.4L13.8,3.2     C13.6,2.7,13.1,2.4,12.5,2.4z"/></g></g><g><g><rect height="6.7" width="1" x="12" y="9"/><path d="M13,16.2h-1c-0.2,0-0.5-0.2-0.5-0.5V9c0-0.3,0.2-0.5,0.5-0.5h1c0.2,0,0.4,0.2,0.4,0.5v6.7C13.4,15.9,13.3,16.2,13,16.2z      M12.5,15.2h0.1V9.5h-0.1V15.2z"/></g><g><rect height="0.9" width="1" x="12" y="18"/><rect height="1.8" width="1.9" x="11.6" y="17.6"/></g></g></g></svg>