<?xml version="1.0" ?><!DOCTYPE svg  PUBLIC '-//W3C//DTD SVG 1.1//EN'  'http://www.w3.org/Graphics/SVG/1.1/DTD/svg11.dtd'><svg enable-background="new 0 0 24 24" height="24px" id="Layer_1" version="1.1" viewBox="0 0 24 24" width="24px" xml:space="preserve" xmlns="http://www.w3.org/2000/svg" xmlns:xlink="http://www.w3.org/1999/xlink"><g><g><g><path d="M21.3,18.6H2.9c-0.9,0-1.6-0.7-1.6-1.6V7c0-0.9,0.7-1.5,1.6-1.5h18.4c0.9,0,1.6,0.7,1.6,1.5v10.1     C22.9,17.9,22.2,18.6,21.3,18.6z M2.9,6.4C2.5,6.4,2.2,6.6,2.2,7v10.1c0,0.4,0.3,0.7,0.7,0.7h18.4c0.4,0,0.7-0.3,0.7-0.7V7     c0-0.3-0.3-0.6-0.7-0.6H2.9z"/></g><g><path d="M20.3,15.1h-2.3c-0.3,0-0.5-0.2-0.5-0.5c0-0.2,0.2-0.4,0.5-0.4h2.3c0.2,0,0.5,0.2,0.5,0.4C20.7,14.9,20.5,15.1,20.3,15.1     z"/></g><g><path d="M20.3,16.6h-1.2c-0.2,0-0.5-0.2-0.5-0.4c0-0.3,0.2-0.5,0.5-0.5h1.2c0.2,0,0.5,0.2,0.5,0.5C20.7,16.5,20.5,16.6,20.3,16.6     z"/></g></g><g><path d="M22.4,10.4H1.8c-0.2,0-0.4-0.2-0.4-0.5c0-0.3,0.2-0.5,0.4-0.5h20.7c0.2,0,0.5,0.2,0.5,0.5C22.9,10.2,22.7,10.4,22.4,10.4z    "/></g><g><path d="M7.3,13.2H4.2c-0.2,0-0.4-0.2-0.4-0.5s0.2-0.5,0.4-0.5h3.2c0.2,0,0.5,0.2,0.5,0.5S7.6,13.2,7.3,13.2z"/></g><g><path d="M7.3,15.1H4.2c-0.2,0-0.4-0.2-0.4-0.5c0-0.2,0.2-0.4,0.4-0.4h3.2c0.2,0,0.5,0.2,0.5,0.4C7.8,14.9,7.6,15.1,7.3,15.1z"/></g></g></svg>