<?xml version="1.0" ?><svg id="Layer_1" style="enable-background:new 0 0 32 32;" version="1.1" viewBox="0 0 32 32" xml:space="preserve" xmlns="http://www.w3.org/2000/svg" xmlns:xlink="http://www.w3.org/1999/xlink"><style type="text/css">
	.st0{fill:#231F20;}
</style><g><path class="st0" d="M31.3,4.9l-4.2-4.2c-0.4-0.4-1-0.4-1.4,0l-4.2,4.2l0,0c0,0,0,0,0,0l-9.9,9.9c0,0,0,0,0,0   c-0.1,0.1-0.1,0.2-0.2,0.3c0,0,0,0,0,0c0,0,0,0,0,0l-2.8,7.1c-0.1,0.4-0.1,0.8,0.2,1.1c0.2,0.2,0.4,0.3,0.7,0.3   c0.1,0,0.3,0,0.4-0.1l7.1-2.8c0,0,0,0,0,0c0,0,0,0,0,0c0.1,0,0.2-0.1,0.3-0.2c0,0,0,0,0,0L31.3,6.3C31.7,5.9,31.7,5.3,31.3,4.9z    M16.5,18.3l-1.4-1.4l-1.4-1.4L22.1,7l2.8,2.8L16.5,18.3z M12.6,17.3l1,1l1,1l-3.5,1.4L12.6,17.3z M26.4,8.4l-2.8-2.8l2.8-2.8   l2.8,2.8L26.4,8.4z"/><path class="st0" d="M27,15.2c-0.6,0-1,0.4-1,1V30H2V6h14c0.6,0,1-0.4,1-1s-0.4-1-1-1H1C0.4,4,0,4.4,0,5v26c0,0.6,0.4,1,1,1h26   c0.6,0,1-0.4,1-1V16.2C28,15.7,27.6,15.2,27,15.2z"/></g></svg>