<?xml version="1.0" ?><!DOCTYPE svg  PUBLIC '-//W3C//DTD SVG 1.1//EN'  'http://www.w3.org/Graphics/SVG/1.1/DTD/svg11.dtd'><svg enable-background="new 0 0 128 128" height="128px" id="Layer_1" version="1.1" viewBox="0 0 128 128" width="128px" xml:space="preserve" xmlns="http://www.w3.org/2000/svg" xmlns:xlink="http://www.w3.org/1999/xlink"><path d="M103.035,93.804h-9.637c-1.104,0-2-0.896-2-2s0.896-2,2-2h9.637c3.854,0,6.991-3.136,6.991-6.989V53.016  c0-3.854-3.137-6.989-6.991-6.989H25.021c-3.854,0-6.991,3.135-6.991,6.989v29.799c0,3.854,3.137,6.989,6.991,6.989h9.638  c1.104,0,2,0.896,2,2s-0.896,2-2,2h-9.638c-6.061,0-10.991-4.931-10.991-10.989V53.016c0-6.06,4.931-10.989,10.991-10.989h78.015  c6.061,0,10.991,4.93,10.991,10.989v29.799C114.026,88.873,109.096,93.804,103.035,93.804z"/><path d="M95.353,64.12c-3.396,0-6.159-2.762-6.159-6.158s2.763-6.16,6.159-6.16c3.395,0,6.156,2.764,6.156,6.16  S98.747,64.12,95.353,64.12z M95.353,55.802c-1.19,0-2.159,0.969-2.159,2.16c0,1.19,0.969,2.158,2.159,2.158  c1.188,0,2.156-0.968,2.156-2.158C97.509,56.771,96.541,55.802,95.353,55.802z"/><path d="M91.602,114.239H36.456c-2.094,0-3.798-1.704-3.798-3.798V74.104c0-2.096,1.704-3.801,3.798-3.801h55.146  c2.094,0,3.797,1.705,3.797,3.801v36.337C95.398,112.535,93.695,114.239,91.602,114.239z M36.658,110.239h54.74V74.304h-54.74  V110.239z"/><path d="M93.694,36.949c-1.104,0-2-0.896-2-2V18.001H36.953v16.948c0,1.104-0.896,2-2,2s-2-0.896-2-2V14.001h62.741v20.948  C95.694,36.053,94.799,36.949,93.694,36.949z"/><path d="M79.479,100.109H48.462c-1.104,0-2-0.896-2-2c0-1.105,0.896-2,2-2h31.018c1.104,0,2,0.895,2,2  C81.479,99.213,80.584,100.109,79.479,100.109z"/><path d="M76.782,88.666H51.157c-1.104,0-2-0.896-2-2s0.896-2,2-2h25.625c1.104,0,2,0.896,2,2S77.887,88.666,76.782,88.666z"/></svg>