<?xml version="1.0" ?><svg height="64" id="svg1404" version="1.1" viewBox="0 0 16.933333 16.933334" width="64" xmlns="http://www.w3.org/2000/svg" xmlns:cc="http://creativecommons.org/ns#" xmlns:dc="http://purl.org/dc/elements/1.1/" xmlns:inkscape="http://www.inkscape.org/namespaces/inkscape" xmlns:rdf="http://www.w3.org/1999/02/22-rdf-syntax-ns#" xmlns:sodipodi="http://sodipodi.sourceforge.net/DTD/sodipodi-0.dtd" xmlns:svg="http://www.w3.org/2000/svg"><defs id="defs1398"/><g id="layer1" transform="translate(0,-280.06665)"><path d="m 7.7821452,282.37174 c -0.361871,0 -0.659908,0.30062 -0.659908,0.66249 v 0.26355 c 0,0.36188 0.298037,0.66197 0.659908,0.66197 h 0.398426 v 1.06609 c -2.182244,0.0737 -3.716296,1.05084 -4.6793006,2.36161 -0.988364,1.34528 -1.3939704,3.02101 -1.4045656,4.45141 -0.1624397,0.14611 -0.2676838,0.35524 -0.2676838,0.58808 0,0.43516 0.3601392,0.79272 0.7953003,0.79272 H 14.264437 c 0.43516,0 0.795301,-0.35756 0.795301,-0.79272 0,-0.23284 -0.105244,-0.44197 -0.267685,-0.58808 -0.01058,-1.4304 -0.416197,-3.10609 -1.404564,-4.45141 -0.962676,-1.31035 -2.49618,-2.28745 -4.6772328,-2.36161 v -1.06609 h 0.396356 c 0.361871,0 0.659908,-0.30009 0.659908,-0.66197 v -0.26355 c 0,-0.36187 -0.298037,-0.66249 -0.659908,-0.66249 z m 0,0.52968 h 1.324467 c 0.07787,0 0.13281,0.055 0.13281,0.13281 v 0.26355 c 0,0.0779 -0.05495,0.13281 -0.13281,0.13281 h -1.324467 c -0.07787,0 -0.130741,-0.0549 -0.130741,-0.13281 v -0.26355 c 0,-0.0779 0.05287,-0.13281 0.130741,-0.13281 z m 0.661977,2.64635 c 2.1738728,-6e-5 3.5993868,0.90674 4.5160038,2.15439 0.859517,1.16994 1.219713,2.6424 1.265555,3.92948 H 2.663079 c 0.04584,-1.28707 0.4060397,-2.75957 1.2655558,-3.92948 0.9166144,-1.24762 2.3416094,-2.15432 4.5154874,-2.15439 z m -0.0016,0.5271 a 0.26460982,0.26460982 0 0 0 -0.01757,0.002 c -2.414214,0.18321 -3.906642,1.63825 -4.7170244,3.32434 a 0.26460982,0.26460982 0 1 0 0.4764569,0.22841 c 0.7541105,-1.56902 2.0559875,-2.85642 4.2793265,-3.02514 a 0.26486795,0.26486795 0 0 0 -0.02119,-0.52916 z m -5.8182107,6.08645 H 14.264437 c 0.151154,0 0.266134,0.11447 0.266134,0.26562 0,0.15116 -0.11498,0.26355 -0.266134,0.26355 H 2.6243215 c -0.1511548,0 -0.2661336,-0.11239 -0.2661336,-0.26355 0,-0.15115 0.1149796,-0.26562 0.2661336,-0.26562 z m -1.3224,1.85105 a 0.264845,0.264845 0 0 0 0,0.52969 H 15.588904 a 0.264845,0.264845 0 0 0 0,-0.52969 z" id="path1948" style="color:#000000;font-style:normal;font-variant:normal;font-weight:normal;font-stretch:normal;font-size:medium;line-height:normal;font-family:sans-serif;font-variant-ligatures:normal;font-variant-position:normal;font-variant-caps:normal;font-variant-numeric:normal;font-variant-alternates:normal;font-feature-settings:normal;text-indent:0;text-align:start;text-decoration:none;text-decoration-line:none;text-decoration-style:solid;text-decoration-color:#000000;letter-spacing:normal;word-spacing:normal;text-transform:none;writing-mode:lr-tb;direction:ltr;text-orientation:mixed;dominant-baseline:auto;baseline-shift:baseline;text-anchor:start;white-space:normal;shape-padding:0;clip-rule:nonzero;display:inline;overflow:visible;visibility:visible;opacity:1;isolation:auto;mix-blend-mode:normal;color-interpolation:sRGB;color-interpolation-filters:linearRGB;solid-color:#000000;solid-opacity:1;vector-effect:none;fill:#000000;fill-opacity:1;fill-rule:nonzero;stroke:none;stroke-width:0.5291667;stroke-linecap:round;stroke-linejoin:round;stroke-miterlimit:4;stroke-dasharray:none;stroke-dashoffset:0;stroke-opacity:1;paint-order:stroke fill markers;color-rendering:auto;image-rendering:auto;shape-rendering:auto;text-rendering:auto;enable-background:accumulate"/></g></svg>