<?xml version="1.0" ?><svg height="64" id="svg1404" version="1.1" viewBox="0 0 16.933333 16.933334" width="64" xmlns="http://www.w3.org/2000/svg" xmlns:cc="http://creativecommons.org/ns#" xmlns:dc="http://purl.org/dc/elements/1.1/" xmlns:inkscape="http://www.inkscape.org/namespaces/inkscape" xmlns:rdf="http://www.w3.org/1999/02/22-rdf-syntax-ns#" xmlns:sodipodi="http://sodipodi.sourceforge.net/DTD/sodipodi-0.dtd" xmlns:svg="http://www.w3.org/2000/svg"><defs id="defs1398"/><g id="layer1" transform="translate(0,-280.06665)"><path d="m 11.090988,281.04829 a 0.26460982,0.26460982 0 0 0 -0.265615,0.26561 v 0.52969 h -0.263551 a 0.26460982,0.26460982 0 0 0 -0.02739,0 0.26460982,0.26460982 0 0 0 -0.238747,0.26354 v 0.93483 c -0.3505465,0.13345 -0.6347855,0.35253 -0.8397405,0.6258 -0.342815,0.45708 -0.482142,1.04163 -0.482142,1.61489 a 0.26460982,0.26460982 0 0 0 0.265618,0.26355 h 3.7031325 a 0.26460982,0.26460982 0 0 0 0.265618,-0.26355 c 0,-0.57326 -0.141915,-1.1578 -0.484725,-1.61489 -0.205293,-0.27372 -0.488958,-0.49345 -0.839742,-0.62683 v -0.9338 a 0.26460982,0.26460982 0 0 0 -0.263552,-0.26354 h -0.265615 v -0.26614 h 3.439583 v 7.9375 H 1.3019225 a 0.26460982,0.26460982 0 0 0 -0.265617,0.26614 c 0,1.08038 0.137558,2.42648 1.16582,3.49022 0.464333,0.48035 1.102292,0.89266 1.967839,1.20199 l -0.940511,0.94052 a 0.26516505,0.26516505 0 0 0 0.375171,0.37465 l 1.058333,-1.05833 a 0.26460982,0.26460982 0 0 0 0.05839,-0.0832 c 0.973275,0.26934 2.19162,0.42479 3.722772,0.42478 1.531151,-1e-5 2.7500105,-0.15544 3.7232855,-0.42478 a 0.26460982,0.26460982 0 0 0 0.0584,0.0832 l 1.058333,1.05833 a 0.26516505,0.26516505 0 0 0 0.375169,-0.37465 l -0.940509,-0.94052 c 0.865544,-0.30932 1.503505,-0.72164 1.967838,-1.20199 1.028261,-1.06373 1.165821,-2.40984 1.165821,-3.49022 a 0.26460982,0.26460982 0 0 0 -0.263552,-0.26614 h -0.265611 v -8.20105 a 0.26460982,0.26460982 0 0 0 -0.263551,-0.26561 z m -0.265615,1.32446 h 0.529167 v 0.5271 h -0.529167 z m 0.265615,1.05627 c 0.590902,0 0.958279,0.2204 1.210779,0.55707 0.200737,0.26765 0.257984,0.65296 0.298691,1.03095 H 9.5810035 c 0.04071,-0.37799 0.09795,-0.7633 0.29869,-1.03095 0.2525035,-0.33667 0.6203955,-0.55707 1.2112945,-0.55707 z m -1.062466,2.64273 a 0.26460982,0.26460982 0 0 0 -0.2620015,0.26975 v 0.5271 a 0.2646485,0.2646485 0 0 0 0.5291675,0 v -0.5271 a 0.26460982,0.26460982 0 0 0 -0.267166,-0.26975 z m 1.058334,0 a 0.26460982,0.26460982 0 0 0 -0.261483,0.26975 v 0.5271 a 0.264648,0.264648 0 0 0 0.529167,0 v -0.5271 a 0.26460982,0.26460982 0 0 0 -0.267684,-0.26975 z m 1.058849,0 a 0.26460982,0.26460982 0 0 0 -0.261998,0.26975 v 0.5271 a 0.2646485,0.2646485 0 1 0 0.529166,0 v -0.5271 a 0.26460982,0.26460982 0 0 0 -0.267168,-0.26975 z m -2.117183,1.58802 a 0.26460982,0.26460982 0 0 0 -0.2620015,0.26768 v 0.52917 a 0.2646485,0.2646485 0 0 0 0.5291675,0 v -0.52917 a 0.26460982,0.26460982 0 0 0 -0.267166,-0.26768 z m 1.058334,0 a 0.26460982,0.26460982 0 0 0 -0.261483,0.26768 v 0.52917 a 0.264648,0.264648 0 0 0 0.529167,0 v -0.52917 a 0.26460982,0.26460982 0 0 0 -0.267684,-0.26768 z m 1.058849,0 a 0.26460982,0.26460982 0 0 0 -0.261998,0.26768 v 0.52917 a 0.2646485,0.2646485 0 1 0 0.529166,0 v -0.52917 a 0.26460982,0.26460982 0 0 0 -0.267168,-0.26768 z M 1.5949275,290.04463 H 15.293834 c -0.0042,0.1744 -0.01513,0.35136 -0.03049,0.52917 H 1.6254165 c -0.01546,-0.17781 -0.02632,-0.35476 -0.030489,-0.52917 z m 0.09974,1.05834 H 15.19462 c -0.116641,0.634 -0.36277,1.25885 -0.886767,1.80092 -0.889968,0.92066 -2.595239,1.63864 -5.8637245,1.63866 -3.268486,2e-5 -4.971176,-0.71799 -5.861142,-1.63866 -0.523995,-0.54207 -0.771101,-1.16693 -0.888319,-1.80092 z" id="path1844" style="color:#000000;font-style:normal;font-variant:normal;font-weight:normal;font-stretch:normal;font-size:medium;line-height:normal;font-family:sans-serif;font-variant-ligatures:normal;font-variant-position:normal;font-variant-caps:normal;font-variant-numeric:normal;font-variant-alternates:normal;font-feature-settings:normal;text-indent:0;text-align:start;text-decoration:none;text-decoration-line:none;text-decoration-style:solid;text-decoration-color:#000000;letter-spacing:normal;word-spacing:normal;text-transform:none;writing-mode:lr-tb;direction:ltr;text-orientation:mixed;dominant-baseline:auto;baseline-shift:baseline;text-anchor:start;white-space:normal;shape-padding:0;clip-rule:nonzero;display:inline;overflow:visible;visibility:visible;opacity:1;isolation:auto;mix-blend-mode:normal;color-interpolation:sRGB;color-interpolation-filters:linearRGB;solid-color:#000000;solid-opacity:1;vector-effect:none;fill:#000000;fill-opacity:1;fill-rule:nonzero;stroke:none;stroke-width:0.5291667;stroke-linecap:round;stroke-linejoin:round;stroke-miterlimit:4;stroke-dasharray:none;stroke-dashoffset:0;stroke-opacity:1;paint-order:stroke fill markers;color-rendering:auto;image-rendering:auto;shape-rendering:auto;text-rendering:auto;enable-background:accumulate"/></g></svg>