<?xml version="1.0" ?><!DOCTYPE svg  PUBLIC '-//W3C//DTD SVG 1.1//EN'  'http://www.w3.org/Graphics/SVG/1.1/DTD/svg11.dtd'><svg enable-background="new 0 0 85 85" height="85px" id="Layer_1" version="1.1" viewBox="0 0 85 85" width="85px" xml:space="preserve" xmlns="http://www.w3.org/2000/svg" xmlns:xlink="http://www.w3.org/1999/xlink"><g><line fill="none" stroke="#394553" stroke-miterlimit="10" stroke-width="2.5" x1="33.845" x2="25.641" y1="58.33" y2="80.14"/><line fill="none" stroke="#394553" stroke-linecap="round" stroke-miterlimit="10" stroke-width="2.5" x1="32.395" x2="25.641" y1="62.186" y2="80.14"/><line fill="none" stroke="#394553" stroke-miterlimit="10" stroke-width="2.5" x1="60.505" x2="56.72" y1="68.066" y2="58.266"/><line fill="none" stroke="#394553" stroke-miterlimit="10" stroke-width="2.5" x1="28.229" x2="56.562" y1="73.296" y2="73.296"/><circle cx="62.735" cy="73.887" fill="none" r="6.245" stroke="#394553" stroke-linecap="round" stroke-miterlimit="10" stroke-width="2.5"/><path d="M34.367,44.758   c-1.725-1.566-3.088-3.528-3.947-5.739" fill="none" stroke="#394553" stroke-linecap="round" stroke-miterlimit="10" stroke-width="2.5"/><line fill="none" stroke="#394553" stroke-linecap="round" stroke-miterlimit="10" stroke-width="2.5" x1="19.76" x2="70.531" y1="31.966" y2="31.966"/><path d="M22.203,32.005v1.49   c0,12.67,10.271,22.94,22.941,22.94s22.941-10.271,22.941-22.94v-1.49" fill="none" stroke="#394553" stroke-miterlimit="10" stroke-width="2.5"/><line fill="none" stroke="#394553" stroke-linecap="round" stroke-miterlimit="10" stroke-width="2.5" x1="22.582" x2="14.469" y1="37.887" y2="37.887"/><g><path d="M34.186,10.833    c0,0-4.359,3.582-0.415,7.692c1.247,1.3,2.963,3.796-0.832,7.33" fill="none" stroke="#394553" stroke-linecap="round" stroke-miterlimit="10" stroke-width="2.5"/><path d="M57.252,10.833    c0,0-4.361,3.582-0.416,7.692c1.247,1.3,2.963,3.796-0.832,7.33" fill="none" stroke="#394553" stroke-linecap="round" stroke-miterlimit="10" stroke-width="2.5"/><path d="M45.719,4.861    c0,0-4.36,5.008-0.416,10.754c1.248,1.817,2.963,5.305-0.832,10.246" fill="none" stroke="#394553" stroke-linecap="round" stroke-miterlimit="10" stroke-width="2.5"/></g></g></svg>