<?xml version="1.0" ?><svg height="64" id="svg1404" version="1.1" viewBox="0 0 16.933333 16.933334" width="64" xmlns="http://www.w3.org/2000/svg" xmlns:cc="http://creativecommons.org/ns#" xmlns:dc="http://purl.org/dc/elements/1.1/" xmlns:inkscape="http://www.inkscape.org/namespaces/inkscape" xmlns:rdf="http://www.w3.org/1999/02/22-rdf-syntax-ns#" xmlns:sodipodi="http://sodipodi.sourceforge.net/DTD/sodipodi-0.dtd" xmlns:svg="http://www.w3.org/2000/svg"><defs id="defs1398"/><g id="layer1" transform="translate(0,-280.06665)"><path d="m 2.9571688,281.15564 a 0.26460979,0.26460979 0 0 0 -0.2645834,0.26459 v 3.67781 l -1.5776814,7.62537 a 0.26460982,0.26460982 0 0 0 -0.010345,0.0744 v 2.9099 a 0.26460982,0.26460982 0 0 0 0.2656153,0.26406 h 1.3399715 a 0.26460982,0.26460982 0 0 0 0.2635488,-0.26975 l -0.00981,-0.52348 H 14.069153 v 0.52917 a 0.26460982,0.26460982 0 0 0 0.265615,0.26406 h 1.322401 a 0.26460982,0.26460982 0 0 0 0.263549,-0.26406 v -2.89182 a 0.26460979,0.26460979 0 0 0 -0.0047,-0.0723 l -1.581809,-7.64553 v -3.67781 a 0.26460979,0.26460979 0 0 0 -0.264583,-0.26459 z m 0.2645833,0.52917 H 13.805086 v 3.175 h -0.528651 v -1.05782 c 0,-0.0489 -0.0063,-0.0965 -0.01497,-0.14314 -0.0011,-0.005 -5.3e-4,-0.0112 -0.0016,-0.0165 -0.0026,-0.0122 -0.0083,-0.0231 -0.01138,-0.0351 -0.02304,-0.0891 -0.05847,-0.17355 -0.109035,-0.24805 -0.02866,-0.0423 -0.06114,-0.0818 -0.09715,-0.11782 -0.144336,-0.14433 -0.343109,-0.23461 -0.560689,-0.23461 H 9.5712019 c -0.21758,0 -0.415809,0.0903 -0.559657,0.23461 -0.07192,0.0722 -0.130189,0.15778 -0.170532,0.2527 -0.04038,0.0948 -0.06301,0.19869 -0.06301,0.30748 v 1.05833 h -0.528651 v -1.05782 c 0,-0.0544 -0.0059,-0.10819 -0.01654,-0.15968 -0.0027,-0.0122 -0.0083,-0.0231 -0.01138,-0.0351 -0.02305,-0.0891 -0.05847,-0.17355 -0.109034,-0.24805 -0.02866,-0.0423 -0.06166,-0.0818 -0.09767,-0.11782 -0.02977,-0.0298 -0.06307,-0.0558 -0.09715,-0.0806 -0.007,-0.005 -0.01347,-0.0122 -0.02066,-0.0171 -0.126984,-0.0862 -0.279681,-0.13694 -0.442868,-0.13694 H 4.5441528 c -0.2175801,0 -0.4158085,0.0903 -0.5596572,0.23461 -0.1440418,0.14406 -0.2335768,0.34261 -0.2335768,0.56019 0,0 0,5.3e-4 0,5.3e-4 v 1.0578 H 3.2217521 Z m 1.3229167,1.85208 h 2.9104171 c 0.05053,0 0.09406,0.0162 0.133326,0.0388 0.04877,0.0282 0.08941,0.0679 0.111104,0.12092 0.01299,0.0319 0.02016,0.0671 0.02016,0.10491 0,0 0,5.3e-4 0,5.3e-4 v 1.32238 0.26459 c 0,0 0,5.3e-4 0,5.3e-4 -6.7e-5,0.0376 -0.0072,0.0732 -0.02016,0.1049 -0.0052,0.0126 -0.01529,0.0217 -0.02223,0.0331 -0.02816,0.0461 -0.0667,0.0852 -0.117822,0.10594 -0.03199,0.0129 -0.06763,0.0196 -0.105421,0.0196 H 4.5441502 c -0.03761,0 -0.0727,-0.007 -0.1043861,-0.0196 0,0 -5.291e-4,0 -5.291e-4,0 -0.031803,-0.0129 -0.060203,-0.0318 -0.083714,-0.0553 -0.023521,-0.0235 -0.042304,-0.052 -0.055295,-0.0837 0,0 0,-5.3e-4 0,-5.3e-4 -0.00238,-0.006 -0.00159,-0.0134 -0.00362,-0.0196 -0.00857,-0.0268 -0.016034,-0.0542 -0.016034,-0.0847 v -1.5875 c 0,-0.0378 0.00672,-0.0734 0.019632,-0.10542 0.039026,-0.0957 0.131101,-0.15969 0.2444697,-0.15969 z m 5.0270831,0 h 2.9104171 c 0.03779,0 0.07301,0.007 0.104902,0.0202 0.01074,0.004 0.01852,0.0129 0.02842,0.0186 0.01934,0.0112 0.03969,0.0211 0.05529,0.0367 0.01196,0.012 0.01902,0.0282 0.02842,0.0424 0.02779,0.042 0.04754,0.0902 0.04754,0.14676 v 1.32291 0.26459 c 0,0.0614 -0.02238,0.11372 -0.05478,0.15761 -0.0075,0.0101 -0.01225,0.0227 -0.02119,0.0315 -0.02376,0.0235 -0.05224,0.0424 -0.08423,0.0553 -0.03199,0.0129 -0.06711,0.0196 -0.104902,0.0196 H 9.5712309 c -0.03054,0 -0.05797,-0.007 -0.08475,-0.016 -0.0062,-0.002 -0.01368,-0.001 -0.01963,-0.004 -1.38e-4,-6e-5 -2.65e-4,5e-5 -5.29e-4,0 -0.0318,-0.0129 -0.0602,-0.0318 -0.08371,-0.0553 -0.02347,-0.0235 -0.04179,-0.0521 -0.05478,-0.0837 -0.01291,-0.0318 -0.02016,-0.0671 -0.02016,-0.10491 v -1.5875 c 0,-0.0756 0.02791,-0.14214 0.07493,-0.18965 0.04727,-0.0473 0.113577,-0.0754 0.189156,-0.0754 z m -6.3990932,1.85209 h 0.5782601 v 5.3e-4 c 0,0.005 0.00132,0.0106 0.00159,0.016 0.00212,0.10266 0.023178,0.20105 0.061494,0.29094 0,0 0,5.3e-4 0,5.3e-4 0.020161,0.0473 0.044805,0.0922 0.07338,0.13436 0,0 0,5.3e-4 0,5.3e-4 0.028607,0.0421 0.061235,0.0814 0.097152,0.11731 0.035962,0.036 0.075094,0.0685 0.1173057,0.0971 0,0 5.292e-4,0 5.292e-4,0 0.042106,0.0285 0.08713,0.0533 0.1343607,0.0734 0,0 5.291e-4,0 5.291e-4,0 0.014896,0.006 0.031176,0.01 0.046508,0.015 0.0772,0.0274 0.1587738,0.0447 0.24443,0.0465 0.00545,1.2e-4 0.010557,0.002 0.016034,0.002 0,0 5.291e-4,0 5.291e-4,0 h 2.9093823 c 2.64e-4,0 7.94e-4,0 0.0011,0 0.108617,0 0.212267,-0.0227 0.306959,-0.063 0,0 5.29e-4,0 5.29e-4,0 0.04731,-0.0201 0.09267,-0.0448 0.134877,-0.0734 0.0422,-0.0286 0.08131,-0.0613 0.117303,-0.0972 0,0 5.29e-4,0 5.29e-4,0 0.03592,-0.0359 0.06855,-0.0757 0.09715,-0.11782 0.05732,-0.0843 0.09906,-0.18048 0.120404,-0.28319 0.01061,-0.0513 0.01654,-0.10442 0.01654,-0.15864 v -5.6e-4 h 0.528513 c 0,0.0917 0.01884,0.1787 0.04806,0.26097 0.0054,0.0153 0.0086,0.0316 0.01497,0.0465 0.08064,0.18969 0.233085,0.34248 0.422714,0.42323 1.4e-4,6e-5 2.65e-4,-6e-5 5.29e-4,0 0.01122,0.005 0.02365,0.007 0.03514,0.0114 0.08086,0.0301 0.166979,0.0484 0.25735,0.0501 0.0049,9e-5 0.0095,0.002 0.01447,0.002 1.75e-4,0 2.65e-4,0 5.29e-4,0 h 2.9099021 c 1.74e-4,0 2.64e-4,0 5.29e-4,0 0.108617,0 0.212267,-0.0227 0.306959,-0.063 0.04746,-0.0202 0.09306,-0.0448 0.135391,-0.0734 0.08452,-0.0573 0.157653,-0.13046 0.214974,-0.21497 0.05733,-0.0843 0.09906,-0.17997 0.120404,-0.28267 3.6e-5,-1.7e-4 -3.3e-5,-2.7e-4 0,-5.3e-4 0.01061,-0.0513 0.01654,-0.10443 0.01654,-0.15865 v -5.6e-4 h 0.577744 l 1.478462,7.14324 H 1.6942278 Z m -1.5389226,7.67291 H 15.391551 v 2.38022 h -0.792715 v -0.52917 a 0.26460982,0.26460982 0 0 0 -0.263549,-0.26355 H 2.6925854 a 0.26460982,0.26460982 0 0 0 -0.2635488,0.26975 l 0.00931,0.52297 H 1.6337493 Z" id="path1393" style="color:#000000;font-style:normal;font-variant:normal;font-weight:normal;font-stretch:normal;font-size:medium;line-height:normal;font-family:sans-serif;font-variant-ligatures:normal;font-variant-position:normal;font-variant-caps:normal;font-variant-numeric:normal;font-variant-alternates:normal;font-feature-settings:normal;text-indent:0;text-align:start;text-decoration:none;text-decoration-line:none;text-decoration-style:solid;text-decoration-color:#000000;letter-spacing:normal;word-spacing:normal;text-transform:none;writing-mode:lr-tb;direction:ltr;text-orientation:mixed;dominant-baseline:auto;baseline-shift:baseline;text-anchor:start;white-space:normal;shape-padding:0;clip-rule:nonzero;display:inline;overflow:visible;visibility:visible;opacity:1;isolation:auto;mix-blend-mode:normal;color-interpolation:sRGB;color-interpolation-filters:linearRGB;solid-color:#000000;solid-opacity:1;vector-effect:none;fill:#000000;fill-opacity:1;fill-rule:nonzero;stroke:none;stroke-width:0.5291667;stroke-linecap:round;stroke-linejoin:round;stroke-miterlimit:4;stroke-dasharray:none;stroke-dashoffset:0;stroke-opacity:1;paint-order:stroke fill markers;color-rendering:auto;image-rendering:auto;shape-rendering:auto;text-rendering:auto;enable-background:accumulate"/></g></svg>