<?xml version="1.0" ?><!DOCTYPE svg  PUBLIC '-//W3C//DTD SVG 1.1//EN'  'http://www.w3.org/Graphics/SVG/1.1/DTD/svg11.dtd'><svg enable-background="new 0 0 24 24" height="24px" id="Layer_1" version="1.1" viewBox="0 0 24 24" width="24px" xml:space="preserve" xmlns="http://www.w3.org/2000/svg" xmlns:xlink="http://www.w3.org/1999/xlink"><g><g><g><path d="M11.7,22.6c-0.1,0-0.1,0-0.1,0c-5.3-1.9-8.9-6.9-8.9-12.5V2.8c0-0.2,0.1-0.3,0.2-0.4C3,2.4,3.1,2.3,3.3,2.4     C4.2,2.6,5.1,2.7,6,2.7c2.2,0,4.2-0.5,5.5-1.4c0.2-0.1,0.4-0.1,0.5,0c1.3,0.9,3.3,1.4,5.5,1.4c0.9,0,1.8-0.1,2.7-0.3     c0.1,0,0.3,0,0.4,0.1c0.1,0.1,0.2,0.2,0.2,0.4v7.3c0,5.6-3.6,10.6-8.9,12.5C11.8,22.6,11.8,22.6,11.7,22.6z M3.6,3.4v6.7     c0,5.2,3.3,9.8,8.1,11.6c4.9-1.8,8.1-6.4,8.1-11.6V3.4c-3,0.5-6.2,0-8.1-1.2C9.8,3.4,6.6,3.9,3.6,3.4z"/></g></g><g><g><path d="M11.7,17.5c-0.1,0-0.1,0-0.1,0C8.9,16.5,7.2,14,7.2,11V7.4C7.2,7,7.7,6.8,7.9,7c0.2,0,0.6,0.1,1,0.1c1,0,1.9-0.2,2.5-0.7     c0.2-0.1,0.4-0.1,0.5,0c0.6,0.4,1.5,0.7,2.6,0.7c0.4,0,0.9,0,1-0.1c0.2-0.2,0.7,0,0.7,0.4V11c0,3-1.7,5.5-4.4,6.5     C11.8,17.5,11.8,17.5,11.7,17.5z M8.1,7.9V11c0,2.5,1.4,4.7,3.6,5.6c2.2-0.8,3.6-3,3.6-5.6V7.9c-0.2,0-0.5,0-0.9,0     c-1.1,0-2.1-0.2-2.8-0.7C10.9,7.7,10,8,9,8C8.6,8,8.3,8,8.1,7.9z"/></g></g><g><g><path d="M10.9,13.6c-0.1,0-0.2,0-0.3-0.1c-0.2-0.2-0.2-0.4,0-0.6l2.6-2.6c0.2-0.2,0.5-0.2,0.6,0c0.2,0.2,0.2,0.5,0,0.6l-2.6,2.6     C11.1,13.6,11,13.6,10.9,13.6z"/></g><g><path d="M10.9,13.6c-0.1,0-0.2,0-0.3-0.1l-0.9-0.9c-0.2-0.2-0.2-0.5,0-0.6c0.2-0.2,0.5-0.2,0.6,0l0.9,0.9c0.2,0.2,0.2,0.4,0,0.6     C11.1,13.6,11,13.6,10.9,13.6z"/></g></g></g></svg>