<?xml version="1.0" ?><svg id="Layer_1" style="enable-background:new 0 0 64 64;" version="1.1" viewBox="0 0 64 64" xml:space="preserve" xmlns="http://www.w3.org/2000/svg" xmlns:xlink="http://www.w3.org/1999/xlink"><g><path d="M48.731,23.715v-6.684c0-9.23-7.505-16.74-16.73-16.74c-9.225,0-16.73,7.509-16.73,16.74v6.684   c-3.02,0.811-5.254,3.565-5.254,6.838v11.173c0,12.122,9.862,21.983,21.984,21.983c5.872,0,11.394-2.287,15.545-6.438   c4.152-4.152,6.439-9.673,6.438-15.545V30.552C53.984,27.279,51.751,24.526,48.731,23.715z M18.27,17.031   c0-7.576,6.159-13.74,13.73-13.74c7.571,0,13.73,6.164,13.73,13.74v6.435h-5.62v-5.345c0-4.483-3.639-8.13-8.11-8.13   c-4.478,0-8.12,3.647-8.12,8.13v5.345h-5.61V17.031z M37.111,18.121v5.345H26.88v-5.345c0-2.829,2.297-5.13,5.12-5.13   C34.818,12.991,37.111,15.292,37.111,18.121z M50.984,41.726c0,5.07-1.974,9.838-5.56,13.423   c-3.585,3.586-8.353,5.561-13.424,5.561c-10.468,0-18.984-8.516-18.984-18.983V30.552c0-2.253,1.833-4.086,4.086-4.086h29.795   c2.253,0,4.086,1.833,4.086,4.086V41.726z"/><path d="M25.566,40.867c-0.246-0.269-0.531-0.503-0.847-0.695c-0.299-0.183-0.604-0.346-0.916-0.49   c-0.302-0.139-0.598-0.271-0.886-0.395c-0.27-0.116-0.512-0.24-0.721-0.37c-0.187-0.116-0.334-0.246-0.439-0.388   c-0.086-0.115-0.128-0.251-0.128-0.417c0-0.117,0.021-0.229,0.063-0.332c0.038-0.094,0.094-0.173,0.172-0.239   c0.085-0.073,0.197-0.133,0.333-0.178c0.339-0.112,0.892-0.087,1.291,0.028c0.243,0.072,0.458,0.151,0.644,0.238   c0.189,0.09,0.348,0.171,0.479,0.248c0.438,0.255,0.696,0.203,0.893,0.021c0.091-0.083,0.155-0.194,0.196-0.344   c0.025-0.094,0.043-0.211,0.055-0.354c0.009-0.123,0.014-0.272,0.014-0.449c0-0.157-0.003-0.288-0.009-0.396   c-0.007-0.124-0.021-0.226-0.039-0.311c-0.021-0.098-0.049-0.178-0.082-0.245c-0.039-0.078-0.099-0.155-0.188-0.245   c-0.09-0.089-0.234-0.18-0.454-0.286c-0.194-0.094-0.416-0.178-0.667-0.254c-0.245-0.073-0.509-0.132-0.791-0.175   c-0.834-0.127-1.662-0.066-2.402,0.148c-0.501,0.146-0.944,0.368-1.317,0.664c-0.378,0.301-0.682,0.683-0.904,1.136   c-0.222,0.455-0.335,0.983-0.335,1.572c0,0.512,0.079,0.963,0.235,1.34c0.154,0.372,0.358,0.699,0.606,0.973   c0.243,0.268,0.523,0.502,0.832,0.694c0.292,0.182,0.598,0.348,0.911,0.492c0.3,0.139,0.592,0.269,0.876,0.395   c0.262,0.114,0.499,0.238,0.702,0.368c0.183,0.116,0.331,0.248,0.441,0.393c0.087,0.114,0.13,0.253,0.13,0.423   c0,0.163-0.029,0.311-0.087,0.438c-0.057,0.125-0.135,0.226-0.24,0.309c-0.115,0.091-0.26,0.163-0.432,0.215   c-0.473,0.143-1.17,0.093-1.63-0.044c-0.296-0.088-0.552-0.186-0.76-0.289c-0.215-0.108-0.391-0.206-0.528-0.294   c-0.397-0.257-0.686-0.25-0.913-0.085c-0.106,0.077-0.187,0.191-0.239,0.341c-0.036,0.104-0.061,0.229-0.075,0.38   c-0.013,0.13-0.02,0.291-0.02,0.483c0,0.295,0.019,0.521,0.057,0.689c0.047,0.209,0.134,0.379,0.261,0.506   c0.098,0.099,0.243,0.202,0.442,0.317c0.191,0.109,0.418,0.21,0.696,0.308c0.268,0.095,0.579,0.177,0.928,0.243   c0.355,0.067,0.739,0.102,1.141,0.102c0.6,0,1.174-0.08,1.708-0.239c0.542-0.162,1.024-0.408,1.434-0.732   c0.416-0.33,0.749-0.745,0.989-1.234c0.243-0.491,0.366-1.065,0.366-1.706c0-0.495-0.079-0.936-0.235-1.311   C26.025,41.469,25.819,41.143,25.566,40.867z"/><path d="M35.341,40.867c-0.244-0.268-0.529-0.502-0.848-0.695c-0.3-0.183-0.604-0.347-0.915-0.49   c-0.302-0.139-0.598-0.271-0.886-0.395c-0.27-0.116-0.512-0.24-0.721-0.37c-0.187-0.116-0.334-0.246-0.439-0.388   c-0.086-0.115-0.128-0.251-0.128-0.417c0-0.117,0.021-0.229,0.063-0.332c0.038-0.094,0.094-0.173,0.172-0.239   c0.085-0.073,0.197-0.133,0.333-0.178c0.339-0.112,0.891-0.087,1.291,0.028c0.244,0.072,0.458,0.15,0.643,0.238   c0.189,0.089,0.349,0.17,0.48,0.249c0.501,0.288,0.754,0.144,0.895,0.019c0.088-0.08,0.15-0.189,0.195-0.344   c0.023-0.092,0.041-0.208,0.054-0.354c0.009-0.122,0.013-0.271,0.013-0.447c0-0.158-0.002-0.289-0.009-0.396   c-0.007-0.127-0.021-0.23-0.038-0.306c-0.02-0.094-0.047-0.177-0.081-0.246c-0.037-0.077-0.097-0.155-0.191-0.252   c-0.092-0.089-0.235-0.179-0.451-0.283c-0.193-0.094-0.415-0.178-0.667-0.254c-0.244-0.073-0.51-0.132-0.791-0.175   c-0.834-0.127-1.662-0.066-2.402,0.148c-0.501,0.146-0.944,0.368-1.317,0.664c-0.378,0.301-0.682,0.683-0.904,1.136   c-0.222,0.455-0.335,0.983-0.335,1.572c0,0.512,0.079,0.963,0.235,1.34c0.154,0.372,0.358,0.699,0.606,0.973   c0.243,0.268,0.523,0.502,0.832,0.694c0.292,0.182,0.598,0.348,0.911,0.492c0.3,0.139,0.592,0.269,0.876,0.395   c0.263,0.115,0.5,0.239,0.702,0.368c0.184,0.117,0.332,0.249,0.441,0.394c0.088,0.113,0.13,0.251,0.13,0.422   c0,0.162-0.029,0.311-0.088,0.439c-0.057,0.125-0.134,0.225-0.238,0.307c-0.115,0.092-0.26,0.164-0.431,0.216   c-0.476,0.143-1.171,0.093-1.631-0.044c-0.296-0.088-0.552-0.186-0.76-0.289c-0.215-0.108-0.391-0.206-0.528-0.294   c-0.397-0.257-0.686-0.25-0.913-0.085c-0.106,0.077-0.187,0.191-0.239,0.341c-0.036,0.104-0.061,0.229-0.075,0.38   c-0.013,0.13-0.02,0.291-0.02,0.483c0,0.295,0.019,0.521,0.057,0.689c0.047,0.209,0.134,0.379,0.261,0.506   c0.098,0.099,0.243,0.202,0.442,0.317c0.191,0.109,0.418,0.21,0.696,0.308c0.268,0.095,0.579,0.177,0.928,0.243   c0.355,0.067,0.739,0.102,1.141,0.102c0.599,0,1.173-0.08,1.708-0.239c0.543-0.163,1.025-0.409,1.435-0.733   c0.417-0.332,0.749-0.747,0.987-1.232c0.244-0.492,0.367-1.066,0.367-1.707c0-0.491-0.079-0.932-0.235-1.31   C35.801,41.47,35.595,41.144,35.341,40.867z"/><path d="M45.495,44.682c-0.054-0.136-0.132-0.242-0.235-0.32c-0.106-0.077-0.235-0.118-0.371-0.118h-3.127V35.66   c0-0.146-0.05-0.282-0.14-0.391c-0.083-0.104-0.204-0.181-0.355-0.23c-0.108-0.037-0.245-0.065-0.422-0.087   c-0.306-0.037-0.861-0.038-1.186,0c-0.18,0.021-0.314,0.049-0.421,0.085c-0.155,0.052-0.276,0.129-0.356,0.229   c-0.093,0.112-0.143,0.249-0.143,0.395v10.111c0,0.364,0.109,0.644,0.323,0.829c0.198,0.172,0.441,0.26,0.724,0.26h5.103   c0.142,0,0.274-0.046,0.384-0.133c0.099-0.079,0.175-0.191,0.225-0.329c0.041-0.106,0.069-0.231,0.086-0.379   c0.017-0.131,0.025-0.29,0.025-0.48c0-0.191-0.009-0.352-0.025-0.478C45.565,44.907,45.536,44.782,45.495,44.682z"/></g></svg>