<?xml version="1.0" ?><svg viewBox="0 0 520 520" xmlns="http://www.w3.org/2000/svg"><title/><g data-name="Layer 8" id="Layer_8"><path d="M515.61,4.39A15,15,0,0,0,503.2.11,1655.16,1655.16,0,0,0,336.1,31.05c-120.5,29-203,65.12-245.17,107.3C41.74,187.54,10.17,248.7,2.05,310.55c-7.56,57.6,5.91,109.6,38,148.15L5.29,493.5A15,15,0,0,0,26.5,514.71l34.8-34.8C92.85,506.2,133.4,520,178.66,520a237.25,237.25,0,0,0,30.79-2c61.85-8.12,123-39.69,172.2-88.88C423.83,386.89,459.93,304.4,489,183.9A1655.16,1655.16,0,0,0,519.89,16.8,15,15,0,0,0,515.61,4.39ZM360.44,407.85c-44.55,44.55-99.56,73.09-154.9,80.35-48,6.3-91-4.19-122.91-29.62l44.05-44.05h153.5a15,15,0,1,0,0-30H156.68l69.82-69.82H340.07a15,15,0,0,0,0-30H256.5l94.41-94.41a15,15,0,1,0-21.21-21.21L235.29,263.5V179.93a15,15,0,0,0-30,0V293.5l-69.82,69.82V239.82a15,15,0,0,0-30,0v153.5l-44,44.05C5.08,366.69,26,245.73,112.15,159.56c78.43-78.44,307.16-117,375.3-127C477.49,100.68,438.92,329.37,360.44,407.85Z"/></g></svg>