<?xml version="1.0" ?><!DOCTYPE svg  PUBLIC '-//W3C//DTD SVG 1.1//EN'  'http://www.w3.org/Graphics/SVG/1.1/DTD/svg11.dtd'><svg height="26.047px" style="enable-background:new 0 0 29 26.047;" version="1.1" viewBox="0 0 29 26.047" width="29px" xml:space="preserve" xmlns="http://www.w3.org/2000/svg" xmlns:xlink="http://www.w3.org/1999/xlink"><g id="swimming_pool"><g><path d="M1.77,18.57l10.144-5.188c0.245-0.125,0.343-0.425,0.219-0.67L9.8,8.09    c-0.145-0.286-0.169-0.61-0.068-0.915c0.1-0.303,0.312-0.549,0.598-0.693l10.604-5.354c0.588-0.297,1.31-0.06,1.607,0.528    c0.145,0.286,0.169,0.611,0.068,0.915c-0.1,0.304-0.312,0.55-0.599,0.695l-8.089,4.122c-0.245,0.125-0.343,0.424-0.22,0.669    l5.561,11.084c0.088,0.175,0.265,0.275,0.447,0.275c0.076,0,0.152-0.017,0.225-0.053c0.246-0.124,0.346-0.425,0.223-0.672    L14.818,8.053l7.643-3.895c0.524-0.264,0.914-0.717,1.098-1.274c0.184-0.558,0.139-1.153-0.126-1.678    c-0.547-1.08-1.868-1.517-2.951-0.97L9.879,5.589C9.355,5.853,8.965,6.305,8.782,6.862C8.598,7.42,8.642,8.017,8.907,8.541    l2.108,4.177L1.314,17.68c-0.246,0.126-0.343,0.427-0.218,0.673C1.223,18.598,1.524,18.694,1.77,18.57z" style="fill:#575756;"/><path d="M21.476,9.166c-2.205,1.114-3.095,3.815-1.982,6.023c0.768,1.52,2.304,2.463,4.007,2.463    c0.705,0,1.384-0.162,2.017-0.481c2.205-1.115,3.095-3.817,1.982-6.024c-0.768-1.519-2.303-2.462-4.006-2.462    C22.788,8.684,22.109,8.846,21.476,9.166z M26.606,11.597c0.864,1.714,0.173,3.815-1.541,4.681    c-0.492,0.248-1.019,0.374-1.565,0.374c-1.324,0-2.518-0.733-3.114-1.914c-0.864-1.715-0.173-3.814,1.541-4.68    c0.492-0.249,1.019-0.375,1.566-0.375C24.816,9.684,26.01,10.417,26.606,11.597z" style="fill:#575756;"/><path d="M0.5,20.416c0.824,0,1.205,0.305,1.687,0.69c0.533,0.426,1.137,0.909,2.312,0.909    s1.779-0.483,2.312-0.909c0.482-0.386,0.863-0.69,1.687-0.69c0.824,0,1.204,0.305,1.686,0.69c0.533,0.426,1.136,0.909,2.311,0.909    s1.778-0.483,2.311-0.909c0.482-0.386,0.862-0.69,1.687-0.69s1.205,0.305,1.687,0.69c0.533,0.426,1.137,0.909,2.313,0.909    s1.78-0.483,2.314-0.909c0.482-0.386,0.864-0.69,1.69-0.69s1.208,0.305,1.691,0.69c0.533,0.426,1.138,0.909,2.313,0.909    c0.276,0,0.5-0.224,0.5-0.5s-0.224-0.5-0.5-0.5c-0.825,0-1.207-0.305-1.689-0.69c-0.534-0.426-1.139-0.909-2.315-0.909    s-1.781,0.483-2.315,0.909c-0.482,0.386-0.864,0.69-1.689,0.69s-1.205-0.305-1.688-0.69c-0.533-0.426-1.137-0.909-2.312-0.909    s-1.779,0.483-2.312,0.909c-0.482,0.386-0.862,0.69-1.686,0.69s-1.204-0.305-1.686-0.69c-0.533-0.426-1.136-0.909-2.311-0.909    c-1.175,0-1.779,0.483-2.312,0.909c-0.482,0.386-0.862,0.69-1.687,0.69s-1.205-0.305-1.687-0.69    c-0.533-0.426-1.137-0.909-2.312-0.909c-0.276,0-0.5,0.224-0.5,0.5S0.224,20.416,0.5,20.416z" style="fill:#575756;"/><path d="M28.5,25.047c-0.825,0-1.207-0.305-1.689-0.69c-0.534-0.426-1.139-0.909-2.315-0.909    s-1.781,0.483-2.315,0.909c-0.482,0.386-0.864,0.69-1.689,0.69s-1.205-0.305-1.688-0.69c-0.533-0.426-1.137-0.909-2.312-0.909    s-1.779,0.483-2.312,0.909c-0.482,0.386-0.862,0.69-1.686,0.69s-1.204-0.305-1.686-0.69c-0.533-0.426-1.136-0.909-2.311-0.909    c-1.175,0-1.779,0.483-2.312,0.909c-0.482,0.386-0.862,0.69-1.687,0.69s-1.205-0.305-1.687-0.69    c-0.533-0.426-1.137-0.909-2.312-0.909c-0.276,0-0.5,0.224-0.5,0.5s0.224,0.5,0.5,0.5c0.824,0,1.205,0.305,1.687,0.69    c0.533,0.426,1.137,0.909,2.312,0.909s1.779-0.483,2.312-0.909c0.482-0.386,0.863-0.69,1.687-0.69c0.824,0,1.204,0.305,1.686,0.69    c0.533,0.426,1.136,0.909,2.311,0.909s1.778-0.483,2.311-0.909c0.482-0.386,0.862-0.69,1.687-0.69s1.205,0.305,1.687,0.69    c0.533,0.426,1.137,0.909,2.313,0.909s1.78-0.483,2.314-0.909c0.482-0.386,0.864-0.69,1.69-0.69s1.208,0.305,1.691,0.69    c0.533,0.426,1.138,0.909,2.313,0.909c0.276,0,0.5-0.224,0.5-0.5S28.776,25.047,28.5,25.047z" style="fill:#575756;"/></g></g><g id="Warstwa_1"/></svg>