<?xml version="1.0" ?><svg id="Layer_1" style="enable-background:new 0 0 128 128;" version="1.1" viewBox="0 0 128 128" xml:space="preserve" xmlns="http://www.w3.org/2000/svg" xmlns:xlink="http://www.w3.org/1999/xlink"><g><path d="M67.855484,93.5947037c-0.6923981,0.0009995-1.3954849,0.0820999-2.0976944,0.2509995   c-4.7851028,1.1552963-7.7294998,5.969696-6.5762024,10.7558975c0.9854126,4.0848999,4.6357994,6.8281021,8.660202,6.8281021   c0.6923981,0,1.3955002-0.0820007,2.097702-0.2509995c4.7860947-1.155304,7.729393-5.9707031,6.5750961-10.7568054   C75.5292892,96.3378983,71.878891,93.5947037,67.855484,93.5947037z M69.0019989,107.2900009   c-0.3829117,0.0927963-0.7735138,0.1397018-1.1602097,0.1397018c-2.2743988,0-4.2373009-1.5488052-4.7714996-3.7656021   c-0.6348-2.6338043,0.9921951-5.2939987,3.625-5.9297028c0.3827972-0.0927963,0.7734985-0.1386948,1.1601944-0.1396942   c2.2744064,0,4.2363052,1.5488968,4.7705154,3.7646942C73.2616882,103.9941025,71.6347885,106.6542969,69.0019989,107.2900009z"/><path d="M93.8466873,96.2422028c0.9853134,4.0839996,4.634697,6.827095,8.6582031,6.827095   c0.6923981,0,1.3955002-0.0820007,2.0975952-0.2509003c4.7862015-1.1542969,7.7305145-5.9706955,6.5772018-10.756897   c-0.9862976-4.0839996-4.6366882-6.8271027-8.660202-6.8271027c-0.6923981,0-1.3954849,0.0820007-2.0975952,0.2509995   C95.6356888,86.6406021,92.6913834,91.4561005,93.8466873,96.2422028z M102.5194855,89.2343979   c2.2735138,0,4.2364044,1.5488052,4.7715149,3.7646027c0.6347885,2.6347961-0.9922104,5.2958984-3.6259995,5.9307022   c-0.3828125,0.0927963-0.7734146,0.139595-1.1601105,0.139595c-2.2735062,0-4.235405-1.5487976-4.7695007-3.7655945   c-0.6358032-2.6338043,0.9901962-5.2938995,3.6240005-5.9297028   C101.7421875,89.2813034,102.1327896,89.2343979,102.5194855,89.2343979z"/><path d="M94.2597885,68.8856964c0.6922989,0,1.3964996-0.0809937,2.0986023-0.2508926   c4.7860947-1.1534042,7.7294998-5.9688034,6.5761948-10.7549019c-0.9853973-4.0840034-4.6337967-6.8272018-8.6581955-6.8272018   c-0.6923904,0-1.3955002,0.0811005-2.0987015,0.2509995C89.2636871,52.0059013,87.0390854,54.0693016,86,56.6543007v6.6328011   C87.3573837,66.6816025,90.6552887,68.8856964,94.2597885,68.8856964z M90.0741882,57.4062996   C90.7597885,56.2860985,91.8388901,55.5,93.116188,55.1924019c0.3828125-0.0928001,0.7733994-0.1397018,1.1611023-0.1397018   c2.2734985,0,4.2343979,1.5479012,4.7686005,3.7647018c0.3075943,1.2763977,0.0995941,2.5956993-0.5850067,3.7157974   c-0.684494,1.1191025-1.7635956,1.9053001-3.0410004,2.2129021c-0.3827972,0.0927963-0.7733994,0.139595-1.1600952,0.139595   c-2.2734985,0-4.2343979-1.5477982-4.7695999-3.7635956C89.1825867,59.8456993,89.3895874,58.5253983,90.0741882,57.4062996z"/><path d="M128.1239929,103.1797028l-15.2909927-63.402401c-0.881813-3.6533012-4.1787109-6.1240005-7.787117-6.1240005   c-0.6161957,0-1.2421951,0.0723-1.8661957,0.2226982L86,38.0195007v4.1142998l18.118187-4.3692017   c0.305603-0.0741997,0.6172028-0.1112976,0.9276962-0.1112976c1.8311157,0,3.4707031,1.2880974,3.898407,3.0615005   l15.2910995,63.4034004c0.2489929,1.0292969,0.077095,2.1015015-0.4833908,3.0185013   c-0.5606155,0.9169998-1.4375153,1.5595932-2.4668121,1.8075943l-63.4034004,15.2910995   c-0.3055992,0.0742035-0.6171989,0.1113052-0.9277,0.1113052c-1.8310852,0-3.4706993-1.2881012-3.8983994-3.0615005L44.545887,86   h-4.1152l8.7363129,36.222702c0.8817902,3.6532974,4.178688,6.1239929,7.7870865,6.1239929   c0.6162033,0,1.2422028-0.0722961,1.8662033-0.222702l63.4023972-15.2909927   C126.5,111.8007965,129.1562805,107.4570007,128.1239929,103.1797028z"/><path d="M82,74V8c0-4.4004002-3.5996094-8-8-8H8C3.5995893,0,0,3.5996001,0,8v66c0,4.4003983,3.5995893,8,8,8h66   C78.4003906,82,82,78.4003983,82,74z M4,74V8c0-2.2061,1.7938895-4,4-4h66c2.2060852,0,4,1.7939,4,4v66   c0,2.2061005-1.7939148,4-4,4H8C5.7938895,78,4,76.2061005,4,74z"/><path d="M23,14.5c-4.9707108,0-9,4.0293007-9,9s4.0292892,9,9,9c4.9706879,0,9-4.0293007,9-9S27.9706879,14.5,23,14.5z M23,28.5   c-2.7568111,0-5-2.2432003-5-5s2.2431889-5,5-5c2.7567883,0,5,2.2432003,5,5S25.7567883,28.5,23,28.5z"/><path d="M59,14.5c-4.9707108,0-9,4.0293007-9,9s4.0292892,9,9,9c4.9706879,0,9-4.0293007,9-9S63.9706879,14.5,59,14.5z M59,28.5   c-2.756813,0-5-2.2432003-5-5s2.243187-5,5-5c2.7567863,0,5,2.2432003,5,5S61.7567863,28.5,59,28.5z"/><path d="M23,50c-4.9707108,0-9,4.0293007-9,9s4.0292892,9,9,9c4.9706879,0,9-4.0293007,9-9S27.9706879,50,23,50z M23,64   c-2.7568111,0-5-2.2431984-5-5s2.2431889-5,5-5c2.7567883,0,5,2.2431984,5,5S25.7567883,64,23,64z"/><path d="M59,50c-4.9707108,0-9,4.0293007-9,9s4.0292892,9,9,9c4.9706879,0,9-4.0293007,9-9S63.9706879,50,59,50z M59,64   c-2.756813,0-5-2.2431984-5-5s2.243187-5,5-5c2.7567863,0,5,2.2431984,5,5S61.7567863,64,59,64z"/></g></svg>