<?xml version="1.0" ?><svg height="64" id="svg1404" version="1.1" viewBox="0 0 16.933333 16.933334" width="64" xmlns="http://www.w3.org/2000/svg" xmlns:cc="http://creativecommons.org/ns#" xmlns:dc="http://purl.org/dc/elements/1.1/" xmlns:inkscape="http://www.inkscape.org/namespaces/inkscape" xmlns:rdf="http://www.w3.org/1999/02/22-rdf-syntax-ns#" xmlns:sodipodi="http://sodipodi.sourceforge.net/DTD/sodipodi-0.dtd" xmlns:svg="http://www.w3.org/2000/svg"><defs id="defs1398"/><g id="layer1" transform="translate(0,-280.06665)"><path d="m 8.4461497,281.04207 c -1.377016,0 -2.559282,0.84726 -3.055112,2.04742 l -0.333827,-0.11524 c -0.411435,-0.14172 -0.867,0.0816 -1.008724,0.493 l -1.464511,4.25297 c -0.141724,0.41143 0.08001,0.86596 0.491442,1.00769 l 0.500229,0.1726 -1.982308,5.75417 c -0.09399,0.27285 0.0553,0.57884 0.328144,0.67283 l 1.501717,0.51728 c 0.272849,0.094 0.578842,-0.0553 0.672827,-0.32815 l 1.981793,-5.75417 0.500745,0.1726 c 0.411435,0.14173 0.865963,-0.0805 1.00769,-0.49196 l 0.621151,-1.80351 c 0.07914,0.006 0.158179,0.0119 0.238744,0.0119 0.07531,0 0.150268,-0.003 0.225309,-0.008 l 0.619601,1.79886 c 0.141746,0.41149 0.597681,0.63373 1.0092403,0.49196 l 0.500745,-0.1726 1.982309,5.75417 c 0.09399,0.27285 0.399978,0.42215 0.672827,0.32814 l 1.499132,-0.51676 c 0.272844,-0.094 0.422135,-0.39997 0.328147,-0.67283 l -1.981793,-5.75365 0.500745,-0.1726 c 0.411494,-0.14175 0.633728,-0.59768 0.491961,-1.00924 l -1.465027,-4.25297 c -0.106333,-0.3087 -0.387604,-0.5125 -0.6966,-0.5333 a 0.26460979,0.26460979 0 0 0 -0.02635,-5.3e-4 0.26460979,0.26460979 0 0 0 -0.077,0.0145 0.26460979,0.26460979 0 0 0 -5.29e-4,0 c -0.06981,0.004 -0.139798,0.004 -0.208775,0.0279 l -0.320392,0.11007 c -0.506719,-1.2271 -1.7086073,-2.04277 -3.0535613,-2.04277 z m 0,0.52917 c 1.12081,0 2.1191913,0.671 2.5517823,1.68672 l -2.5584993,0.88108 -2.5492,-0.87798 c 0.421614,-0.99435 1.405509,-1.68982 2.555917,-1.68982 z m -3.666961,1.88826 c 0.03434,-0.002 0.07021,0.003 0.10594,0.015 l 0.346231,0.11937 c -0.0568,0.24234 -0.08992,0.49354 -0.08992,0.75293 2e-6,0.26757 0.03528,0.52636 0.0956,0.77566 -0.09038,0.0525 -0.164526,0.13373 -0.200504,0.23771 l -0.511596,1.47847 c -0.07976,0.23054 0.0483,0.4893 0.279051,0.56844 l 1.222666,0.41961 c 0.230754,0.0791 0.491778,-0.0464 0.57154,-0.27698 l 0.13281,-0.38344 c 0.28915,0.17657 0.606848,0.30997 0.94516,0.39119 l -0.590145,1.71359 c -0.04923,0.14291 -0.192471,0.21252 -0.335378,0.1633 l -1.000974,-0.34469 -0.750858,-0.25838 -0.750343,-0.2589 c -2.64e-4,-1.1e-4 -7.94e-4,1.1e-4 -0.0011,0 l -0.999938,-0.34471 c -0.142915,-0.0492 -0.212526,-0.19247 -0.163298,-0.33538 l 1.465027,-4.25245 c 0.03692,-0.10719 0.126958,-0.17429 0.22996,-0.18035 z m 7.3184183,0.002 c 0.102568,0.007 0.19463,0.0707 0.23151,0.17777 l 1.465027,4.25297 c 0.04919,0.14279 -0.02148,0.28721 -0.16433,0.33642 l -1.000974,0.34468 -1.499651,0.51624 c -7.93e-4,2.6e-4 -0.0013,8e-4 -0.0021,10e-4 l -0.999422,0.34417 c -0.1427903,0.0492 -0.2872053,-0.0215 -0.3364153,-0.16433 l -0.588076,-1.70791 c 0.335233,-0.079 0.655648,-0.20959 0.9503283,-0.38757 l 0.128675,0.37413 c 0.07943,0.23059 0.338883,0.35849 0.569476,0.27906 l 1.218528,-0.42013 c 0.230597,-0.0794 0.355899,-0.3394 0.276471,-0.56999 l -0.508498,-1.47743 c -0.07943,-0.23059 -0.338883,-0.35849 -0.569473,-0.27906 l -0.02379,0.008 -0.0072,0.003 a 0.26460979,0.26460979 0 0 0 -0.01913,0.006 l -1.168406,0.40256 c -0.2305953,0.0794 -0.3558993,0.33992 -0.2764683,0.57051 l 0.201538,0.58498 c -0.288477,0.19092 -0.608679,0.32566 -0.946713,0.39842 l -0.309541,-0.89813 0.332279,-0.96583 c 0,0 0,-5.3e-4 0,-5.3e-4 0.08,-0.23274 0.04082,-0.47796 -0.0801,-0.67438 l 2.3967553,-0.82527 a 0.26460979,0.26460979 0 0 0 0.117305,-0.0408 l 0.507463,-0.17466 c 0.03529,-0.0122 0.07049,-0.0163 0.104902,-0.014 z m -6.3655023,0.30541 2.614827,0.90021 a 0.26460979,0.26460979 0 0 0 0.0062,0.003 l 0.03411,0.0119 c 0.08477,0.0292 0.13948,0.0934 0.163298,0.1695 0.01476,0.0476 0.01765,0.0989 0.0026,0.15193 -0.0013,0.005 -2.65e-4,0.01 -0.0021,0.015 0,0 0,5.3e-4 0,5.3e-4 l -0.362252,1.05214 -0.340029,0.9865 c -0.341871,-0.0747 -0.660469,-0.21133 -0.942062,-0.39894 l 0.203089,-0.58653 c 0.07976,-0.23054 -0.04726,-0.49137 -0.278019,-0.57051 l -1.044382,-0.3576 c -0.07518,-0.25234 -0.116787,-0.51914 -0.11679,-0.79633 0,-0.19928 0.02183,-0.39309 0.0615,-0.58033 z m -0.271301,1.988 c 0.197416,0.41688 0.47821,0.78591 0.822687,1.0852 l -0.159678,0.4625 -1.071772,-0.36742 z m 5.9613933,0.0238 0.398425,1.15601 -1.064019,0.36638 -0.15503,-0.45062 c 0.345096,-0.29721 0.623684,-0.66247 0.820624,-1.07177 z m -0.610817,0.0202 c -0.112382,0.18315 -0.246047,0.35269 -0.397907,0.50539 l -0.113689,-0.32918 z m -4.7252923,0.006 0.49661,0.17053 -0.11162,0.32298 c -0.146791,-0.14889 -0.274619,-0.31516 -0.38499,-0.49382 z m 2.352829,1.16375 0.05168,0.1509 c -0.01487,2.3e-4 -0.02957,0.003 -0.04444,0.003 -0.02008,0 -0.03946,-0.003 -0.05943,-0.003 z m -4.362527,2.10478 1.501201,0.51677 -1.982306,5.75417 -1.501201,-0.51728 z m 8.7245323,0 1.982309,5.75417 -1.499651,0.51625 -1.982306,-5.75365 z m -8.2268883,0.74001 a 0.26460982,0.26460982 0 0 0 -0.02687,0.001 0.26460982,0.26460982 0 0 0 -0.228409,0.18138 l -0.345715,0.99994 a 0.26467724,0.26467724 0 1 0 0.49971,0.17415 l 0.345715,-1.00201 a 0.26460982,0.26460982 0 0 0 -0.24443,-0.3545 z m 7.7230453,0.001 a 0.26460982,0.26460982 0 0 0 -0.238228,0.35346 l 0.345715,1.00201 a 0.26467724,0.26467724 0 0 0 0.49971,-0.17415 l -0.343648,-0.99994 a 0.26460982,0.26460982 0 0 0 -0.263549,-0.18138 z m -8.3261073,1.74976 a 0.26460982,0.26460982 0 0 0 -0.255799,0.18345 l -0.259932,0.75034 a 0.26528186,0.26528186 0 1 0 0.501777,0.17157 l 0.257865,-0.74983 a 0.26460982,0.26460982 0 0 0 -0.243911,-0.35553 z m 8.9276183,0.002 a 0.26460982,0.26460982 0 0 0 -0.236159,0.35346 l 0.259416,0.74983 a 0.26460982,0.26460982 0 1 0 0.500227,-0.17157 l -0.259932,-0.75034 a 0.26460982,0.26460982 0 0 0 -0.263552,-0.18138 z m -9.4454163,1.49913 a 0.26460982,0.26460982 0 0 0 -0.02532,0.001 0.26460982,0.26460982 0 0 0 -0.230475,0.18138 l -0.343649,0.99994 a 0.26483834,0.26483834 0 0 0 0.500229,0.17415 l 0.343646,-1.002 a 0.26460982,0.26460982 0 0 0 -0.244427,-0.3545 z m 9.9632173,0.001 a 0.26460982,0.26460982 0 0 0 -0.236681,0.35347 l 0.344168,1.002 a 0.26559979,0.26559979 0 1 0 0.501777,-0.17415 l -0.345716,-0.99994 a 0.26460982,0.26460982 0 0 0 -0.263548,-0.18138 z" id="path1367" style="color:#000000;font-style:normal;font-variant:normal;font-weight:normal;font-stretch:normal;font-size:medium;line-height:normal;font-family:sans-serif;font-variant-ligatures:normal;font-variant-position:normal;font-variant-caps:normal;font-variant-numeric:normal;font-variant-alternates:normal;font-feature-settings:normal;text-indent:0;text-align:start;text-decoration:none;text-decoration-line:none;text-decoration-style:solid;text-decoration-color:#000000;letter-spacing:normal;word-spacing:normal;text-transform:none;writing-mode:lr-tb;direction:ltr;text-orientation:mixed;dominant-baseline:auto;baseline-shift:baseline;text-anchor:start;white-space:normal;shape-padding:0;clip-rule:nonzero;display:inline;overflow:visible;visibility:visible;opacity:1;isolation:auto;mix-blend-mode:normal;color-interpolation:sRGB;color-interpolation-filters:linearRGB;solid-color:#000000;solid-opacity:1;vector-effect:none;fill:#000000;fill-opacity:1;fill-rule:nonzero;stroke:none;stroke-width:0.5291667;stroke-linecap:round;stroke-linejoin:round;stroke-miterlimit:4;stroke-dasharray:none;stroke-dashoffset:0;stroke-opacity:1;paint-order:stroke fill markers;color-rendering:auto;image-rendering:auto;shape-rendering:auto;text-rendering:auto;enable-background:accumulate"/></g></svg>