<?xml version="1.0" ?><svg viewBox="0 0 25 25" xmlns="http://www.w3.org/2000/svg"><title/><g id="golf"><path d="M12.5,14c-.856,0-1.692.035-2.5.1V8.347l7.676-2.878a.5.5,0,0,0,.048-.915l-8-4.5a.506.506,0,0,0-.486.021A.5.5,0,0,0,9,.5V8H9v6.2c-5.2.606-9,2.522-9,4.8,0,2.761,5.6,5,12.5,5S25,21.762,25,19,19.4,14,12.5,14ZM10,7.279V1.308l6.251,3.627ZM12.5,23C5.375,23,1,20.671,1,19c0-1.376,2.973-3.2,8-3.8v.918C7.256,16.4,6,17.131,6,18c0,1.1,2.015,2,4.5,2s4.5-.9,4.5-2-2.015-2-4.5-2c-.171,0-.334.014-.5.022V15.1c.79-.065,1.624-.1,2.5-.1C19.625,15,24,17.33,24,19S19.625,23,12.5,23ZM9,18.872a3.315,3.315,0,0,1-2-.852c.068-.208.756-.668,2-.892Zm1-1.851c.164-.009.323-.021.5-.021,2.2,0,3.411.74,3.5.979C13.911,18.261,12.7,19,10.5,19c-.177,0-.336-.012-.5-.021Z"/></g></svg>