<?xml version="1.0" ?><!DOCTYPE svg  PUBLIC '-//W3C//DTD SVG 1.1//EN'  'http://www.w3.org/Graphics/SVG/1.1/DTD/svg11.dtd'><svg enable-background="new 0 0 85 85" height="85px" id="Layer_1" version="1.1" viewBox="0 0 85 85" width="85px" xml:space="preserve" xmlns="http://www.w3.org/2000/svg" xmlns:xlink="http://www.w3.org/1999/xlink"><g><g><g><line fill="none" stroke="#394553" stroke-miterlimit="10" stroke-width="2.5" x1="16.191" x2="16.191" y1="64.757" y2="21.937"/></g><g><line fill="none" stroke="#394553" stroke-miterlimit="10" stroke-width="2.5" x1="68.809" x2="68.809" y1="21.937" y2="68.795"/></g></g><polyline fill="none" points="   19.354,21.539 13.057,21.539 13.057,15.884 71.943,15.884 71.943,21.539 28.398,21.539  " stroke="#394553" stroke-linecap="round" stroke-linejoin="round" stroke-miterlimit="10" stroke-width="2.5"/><g><path d="    M38.336,45.648c1.234-3.126,3.143-4.931,3.143-4.931C40.061,49.161,46,53.032,46,53.032s4.18-2.209,4.488-4.521    c0,0,5.578,9.795,2.715,15.15" fill="none" stroke="#394553" stroke-linecap="round" stroke-linejoin="round" stroke-miterlimit="10" stroke-width="2.5"/><path d="    M38.842,57.054c-0.678-5.068-4.688-8.607-4.688-8.607s1.59,3.362-1.189,7.16c0,0-3.193,3.801-1.109,8.055" fill="none" stroke="#394553" stroke-linecap="round" stroke-linejoin="round" stroke-miterlimit="10" stroke-width="2.5"/></g><path d="M24.969,64.757V48.875   c0-9.475,7.902-17.227,17.559-17.227S60.086,39.4,60.086,48.875v19.919" fill="none" stroke="#394553" stroke-miterlimit="10" stroke-width="2.5"/><line fill="none" stroke="#394553" stroke-linecap="round" stroke-linejoin="round" stroke-miterlimit="10" stroke-width="2.5" x1="12.25" x2="72.75" y1="69.116" y2="69.116"/></g></svg>