<?xml version="1.0" ?><svg data-name="Layer 1" id="Layer_1" viewBox="0 0 512 512" xmlns="http://www.w3.org/2000/svg"><title/><path d="M444.368,368.429a50.04,50.04,0,0,0-7.142-17.316c-11.569-18.568-29.5-30.8-41.245-33.294-6.77-1.436-14.612-5.248-23.162-9.284-9.678-4.568-20.819-9.57-31.819-12.786V259.326l6.671-.288c51.707-1.743,94.6-44.761,95.788-95.915l.47-12.674a8.047,8.047,0,0,0-8.37-8.326l-12.461.528C388.529,143.83,357,163.86,341,192.484v-20.9l6.108-6.894c35.331-37.795,35.206-98.624-.124-135.637l-8.646-9.335a8.049,8.049,0,0,0-11.819,0l-8.605,9.345c-34.94,37.406-34.709,98.248.189,135.58l6.9,7.247v20.6c-17-28.639-47.971-48.663-82.5-49.84l-12.866-.531a8.136,8.136,0,0,0-6.048,2.336,8.025,8.025,0,0,0-2.365,5.99l.513,12.674c1.191,51.154,44.424,94.172,96.069,95.913l7.194.29v33.441c-20-1.892-37.708,3.383-54.813,8.514-7.5,2.251-14.71,4.377-21.7,5.8-16.753,3.407-23.871,23.013-26.773,36.483a108.67,108.67,0,0,0-97.733-5.876l1.589-14.624a8.012,8.012,0,0,0-7.09-8.825l-66.263-7.271a8,8,0,0,0-8.827,7.08L27.431,459.453a8,8,0,0,0,7.079,8.824l66.261,7.271a7.988,7.988,0,0,0,8.825-7.079l.789-7.191,18.224-7.917a30.128,30.128,0,0,1,22.588-.615l100.651,37.362c.167.062.337.119.507.169a111.751,111.751,0,0,0,69.713-2.159,8.007,8.007,0,0,0,1.036-.464l157.3-84.382a8,8,0,0,0,3.481-10.4A42.04,42.04,0,0,0,444.368,368.429ZM342.945,239.1c1.447-42.9,37.539-78.99,80.517-80.455l4.059-.169-.168,4.06c0,.051,0,.1,0,.154-.963,42.849-37.053,78.9-80.513,80.364l-4.062.17Zm-24.778,3.952c-43.4-1.463-79.487-37.513-80.45-80.362,0-.052,0-.1-.005-.154l-.169-4.06,4.121.171c42.917,1.463,79.01,37.554,80.456,80.453,0,.021,0,.042,0,.063l.169,4.061ZM329.641,39.939l2.751-2.99,2.751,2.99c.035.039.069.076.105.113,29.618,30.979,29.591,81.99-.105,113.758l-2.751,2.99-2.8-3.037C300.285,122.407,300.286,71.366,329.641,39.939Zm-78.086,282.82c7.706-1.567,15.478-3.9,23-6.153,16.169-4.849,32.892-9.861,50.269-7.736,14.84,1.817,28.7,8.361,40.937,14.134,9.417,4.445,18.311,8.644,26.905,10.466,9.354,1.985,23.253,13.695,30.985,26.1,2.845,4.566,4.607,8.906,5.086,12.346l-67.315,25.307a53.22,53.22,0,0,0-43.077-31.953l-60.427-6.63a64.661,64.661,0,0,1-21.595-6.361C238.067,341.223,243.016,324.5,251.555,322.759ZM44.208,453.246l14.21-129.5,50.356,5.526-14.211,129.5ZM316.051,473.28a95.679,95.679,0,0,1-58.892,1.733L156.765,437.746a46.048,46.048,0,0,0-34.531.94l-9.839,4.275,9.488-86.467A92.762,92.762,0,0,1,216.4,359.08l5.9,3.7c.336.211.678.412,1.018.618.089.059.183.111.275.166a80.75,80.75,0,0,0,32.57,10.987l60.426,6.631a37.26,37.26,0,0,1,32.928,32.985l-90.513-9.933a8,8,0,0,0-1.746,15.905l99.327,10.9a8,8,0,0,0,8.825-7.079,53.232,53.232,0,0,0,.045-11.156l70.188-26.387c.065-.024.13-.05.195-.076a26.069,26.069,0,0,1,29.4,6.91Z"/></svg>