<?xml version="1.0" ?><!DOCTYPE svg  PUBLIC '-//W3C//DTD SVG 1.1//EN'  'http://www.w3.org/Graphics/SVG/1.1/DTD/svg11.dtd'><svg enable-background="new 0 0 595.3 595.3" id="Layer_1" version="1.1" viewBox="0 0 595.3 595.3" xml:space="preserve" xmlns="http://www.w3.org/2000/svg" xmlns:xlink="http://www.w3.org/1999/xlink"><g><g><path d="M355.6,351.3c-32.1,0-59.9-10.8-80.3-31.3c-24.5-24.5-35.2-59.8-30-99.4c5.1-38.8,24.9-77.2,55.8-108.2    c36.3-36.3,82.7-57.1,127.2-57.1c32.1,0,59.9,10.8,80.3,31.3c24.5,24.5,35.2,59.8,30,99.4c-5.1,38.8-24.9,77.2-55.8,108.2    C446.5,330.5,400.1,351.3,355.6,351.3z M428.3,70.4c-40.6,0-83.1,19.2-116.6,52.7c-28.6,28.6-46.9,63.9-51.6,99.5    c-4.6,34.8,4.6,65.7,25.7,86.8c17.6,17.6,41.7,26.9,69.7,26.9c40.6,0,83.1-19.2,116.6-52.7c28.6-28.6,46.9-63.9,51.6-99.5    c4.6-34.8-4.6-65.7-25.7-86.8C480.5,79.7,456.3,70.4,428.3,70.4z" fill="#3F403F"/></g><g><path d="M259,199.1c-1,0-2-0.4-2.8-1.2c-1.6-1.6-1.6-4.1,0-5.7L380.9,67.5c1.6-1.6,4.1-1.6,5.7,0    c1.6,1.6,1.6,4.1,0,5.7L261.8,197.9C261,198.7,260,199.1,259,199.1z" fill="#3F403F"/></g><g><path d="M253.8,260.8c-1,0-2-0.4-2.8-1.2c-1.6-1.6-1.6-4.1,0-5.7L442.6,62.3c1.6-1.6,4.1-1.6,5.7,0    c1.6,1.6,1.6,4.1,0,5.7L256.6,259.6C255.8,260.4,254.8,260.8,253.8,260.8z" fill="#3F403F"/></g><g><path d="M269.9,301.1c-1,0-2-0.4-2.8-1.2c-1.6-1.6-1.6-4.1,0-5.7L482.9,78.5c1.6-1.6,4.1-1.6,5.7,0    c1.6,1.6,1.6,4.1,0,5.7L272.7,299.9C272,300.7,270.9,301.1,269.9,301.1z" fill="#3F403F"/></g><g><path d="M298.2,329.4c-1,0-2-0.4-2.8-1.2c-1.6-1.6-1.6-4.1,0-5.7l215.8-215.8c1.6-1.6,4.1-1.6,5.7,0    c1.6,1.6,1.6,4.1,0,5.7L301,328.2C300.2,329,299.2,329.4,298.2,329.4z" fill="#3F403F"/></g><g><path d="M338.5,345.5c-1,0-2-0.4-2.8-1.2c-1.6-1.6-1.6-4.1,0-5.7l191.6-191.6c1.6-1.6,4.1-1.6,5.7,0    c1.6,1.6,1.6,4.1,0,5.7L341.3,344.3C340.5,345.1,339.5,345.5,338.5,345.5z" fill="#3F403F"/></g><g><path d="M400.2,340.3c-1,0-2-0.4-2.8-1.2c-1.6-1.6-1.6-4.1,0-5.7l124.7-124.7c1.6-1.6,4.1-1.6,5.7,0    c1.6,1.6,1.6,4.1,0,5.7L403,339.1C402.2,339.9,401.2,340.3,400.2,340.3z" fill="#3F403F"/></g><g><path d="M531.5,189.7c-1,0-2-0.4-2.8-1.2L406.8,66.6c-1.6-1.6-1.6-4.1,0-5.7c1.6-1.6,4.1-1.6,5.7,0l121.9,121.9    c1.6,1.6,1.6,4.1,0,5.7C533.6,189.3,532.6,189.7,531.5,189.7z" fill="#3F403F"/></g><g><path d="M516.4,237.4c-1,0-2-0.4-2.8-1.2L359,81.7c-1.6-1.6-1.6-4.1,0-5.7c1.6-1.6,4.1-1.6,5.7,0l154.5,154.5    c1.6,1.6,1.6,4.1,0,5.7C518.4,237,517.4,237.4,516.4,237.4z" fill="#3F403F"/></g><g><path d="M492.1,276c-1,0-2-0.4-2.8-1.2L320.4,106c-1.6-1.6-1.6-4.1,0-5.7c1.6-1.6,4.1-1.6,5.7,0l168.8,168.8    c1.6,1.6,1.6,4.1,0,5.7C494.1,275.6,493.1,276,492.1,276z" fill="#3F403F"/></g><g><path d="M460.6,307.5c-1,0-2-0.4-2.8-1.2L289,137.5c-1.6-1.6-1.6-4.1,0-5.7c1.6-1.6,4.1-1.6,5.7,0l168.8,168.8    c1.6,1.6,1.6,4.1,0,5.7C462.7,307.1,461.6,307.5,460.6,307.5z" fill="#3F403F"/></g><g><path d="M422,331.8c-1,0-2-0.4-2.8-1.2L264.7,176.1c-1.6-1.6-1.6-4.1,0-5.7c1.6-1.6,4.1-1.6,5.7,0l154.5,154.5    c1.6,1.6,1.6,4.1,0,5.7C424.1,331.4,423.1,331.8,422,331.8z" fill="#3F403F"/></g><g><path d="M374.3,346.9c-1,0-2-0.4-2.8-1.2L249.5,223.8c-1.6-1.6-1.6-4.1,0-5.7c1.6-1.6,4.1-1.6,5.7,0l121.9,121.9    c1.6,1.6,1.6,4.1,0,5.7C376.4,346.5,375.3,346.9,374.3,346.9z" fill="#3F403F"/></g><g><path d="M83.9,539.9c-1.9,0-3.8-0.7-5.3-2.2l-21-21c-2.9-2.9-2.9-7.7,0-10.6l121.5-121.5c1.4-1.4,3.3-2.2,5.3-2.2    s3.9,0.8,5.3,2.2l21,21c1.4,1.4,2.2,3.3,2.2,5.3s-0.8,3.9-2.2,5.3L89.2,537.7C87.7,539.2,85.8,539.9,83.9,539.9z M73.5,511.4    l10.4,10.4l110.9-110.9l-10.4-10.4L73.5,511.4z" fill="#3F403F"/></g><g><path d="M194.9,407.9c-1.9,0-3.8-0.7-5.3-2.2c-2.9-2.9-2.9-7.7,0-10.6c46.2-46.2,57.8-185.4,57.9-186.8    c0.3-4.1,3.9-7.2,8.1-6.9c4.1,0.3,7.2,3.9,6.9,8.1c-0.5,5.9-12.1,146.2-62.2,196.3C198.7,407.1,196.8,407.9,194.9,407.9z" fill="#3F403F"/></g><g><path d="M194.9,407.9c-1.9,0-3.8-0.7-5.3-2.2c-2.9-2.9-2.9-7.7,0-10.6c50.1-50.1,190.3-61.7,196.3-62.2    c4.1-0.3,7.7,2.8,8.1,6.9c0.3,4.1-2.8,7.7-6.9,8.1c-1.4,0.1-140.7,11.7-186.8,57.9C198.7,407.1,196.8,407.9,194.9,407.9z" fill="#3F403F"/></g><g><path d="M205.4,418.4c-2,0-3.9-0.8-5.3-2.2l-21-21c-1.8-1.8-2.6-4.4-2-6.9c0.5-2.5,2.3-4.5,4.7-5.4l33.2-12.2    c2.7-1,5.8-0.3,7.9,1.7c2.1,2.1,2.7,5.1,1.7,7.9l-12.2,33.2c-0.9,2.4-2.9,4.2-5.4,4.7C206.5,418.3,205.9,418.4,205.4,418.4z     M198,392.9l4.4,4.4l2.6-7L198,392.9z" fill="#3F403F"/></g></g></svg>