<?xml version="1.0" ?><!DOCTYPE svg  PUBLIC '-//W3C//DTD SVG 1.1//EN'  'http://www.w3.org/Graphics/SVG/1.1/DTD/svg11.dtd'><svg enable-background="new 0 0 24 24" height="24px" id="Layer_1" version="1.1" viewBox="0 0 24 24" width="24px" xml:space="preserve" xmlns="http://www.w3.org/2000/svg" xmlns:xlink="http://www.w3.org/1999/xlink"><g><g><g><path d="M14.7,11.6c-0.4,0-0.8-0.1-1.3-0.3c-1.7-0.7-2.1-2-1.3-3.9c0.7-1.6,2.5-3.8,4-3.8c0.2,0,0.4,0,0.6,0.1     c0.7,0.3,1.1,1.2,1.1,2.6c0,1.1-0.3,2.3-0.7,3.3C16.5,10.9,15.7,11.6,14.7,11.6z M16.1,4.7c-0.8,0-2.4,1.6-3.1,3.2     c-0.7,1.5-0.2,2.1,0.8,2.5c0.3,0.2,0.6,0.2,0.9,0.2c0.4,0,0.9-0.1,1.5-1.4c0.4-0.8,0.6-2,0.6-2.9c0-0.9-0.2-1.5-0.5-1.6     C16.2,4.7,16.2,4.7,16.1,4.7z"/></g><g><path d="M19.1,20.3h-2.5c-0.3,0-0.5-0.2-0.5-0.4l-0.3-3c-3,1.2-7.4,1.3-10.6,0.2l-1.3,1.5l0.8,0.8C4.9,19.5,5,19.7,5,19.8     c0,0.3-0.2,0.5-0.5,0.5c0,0,0,0,0,0H1.5c-0.3,0-0.5-0.2-0.5-0.5v-6.9C1,10,5,10,9.7,10h0.5c1,0,1.9,0,2.8,0c0.1,0,0.2,0,0.3,0.1     c0.2,0.1,0.3,0.2,0.5,0.3c0.7,0.3,1.2,0.3,1.7-0.1l0.2-0.2c0.2-0.2,0.4-0.5,0.5-0.9c0.8-1.8,0.8-4.1,0.2-4.5     c-0.2-0.1-0.2-0.3-0.2-0.5l0-0.2c0-0.3,0.2-0.4,0.5-0.4h2.3c0.7,0.1,1.8,0.6,1.8,2.1c0,0.1,0,0.1,0,0.1c0,0,0.1,0.1,0.3,0.1     c0.2,0,0.4,0,0.6,0c0.2,0,0.4,0,0.6,0c0.8,0,1,0.5,1.1,0.7c0.1,0.6,0.4,1.7-0.4,2.8c-0.7,1-2,1.7-4,2.1c0.3,0.4,0.4,0.8,0.4,1.4     l-0.7,5.7l0.7,0.9c0.1,0.2,0.1,0.4,0.1,0.5S19.3,20.3,19.1,20.3z M17,19.3h1l-0.2-0.3c-0.1-0.1-0.1-0.2-0.1-0.4l0.7-5.9     c0-0.5-0.2-0.9-0.8-1.2c-0.2-0.1-0.3-0.3-0.3-0.5c0-0.2,0.1-0.4,0.3-0.4l0.1,0c2.3-0.4,3.7-1,4.3-1.9c0.5-0.7,0.4-1.5,0.3-2     c-0.1,0-0.4,0-0.7,0c-0.2,0-0.5,0-0.7,0c-1.2,0-1.3-0.8-1.4-1.2c0-0.9-0.7-1.1-0.9-1.1l-1.3,0c0.6,1.3,0.2,3.5-0.4,5     c-0.2,0.5-0.5,0.9-0.8,1.2L16.1,11c-0.8,0.6-1.6,0.7-2.7,0.2c-0.2-0.1-0.4-0.2-0.5-0.3c-0.8,0-1.7,0-2.6,0H9.7     C5,11,2,11.1,2,12.9v6.4h1.2L2.9,19c-0.2-0.2-0.2-0.5,0-0.7l1.8-2.1C4.8,16,5,16,5.2,16c1.5,0.6,3.2,0.9,5,0.9     c2.1,0,4.2-0.4,5.7-1.2c0.1-0.1,0.3-0.1,0.5,0c0.1,0.1,0.2,0.2,0.3,0.4L17,19.3z"/></g><g><path d="M1.5,13.4c-0.3,0-0.5-0.2-0.5-0.5c0-2.1,2.2-2.5,2.9-2.6C5.4,10,7.5,10,9.9,10h0.3c0.3,0,0.5,0.2,0.5,0.5     S10.5,11,10.2,11H9.9c-2.3,0-4.4,0-5.9,0.3C2.2,11.6,2,12.3,2,12.9C2,13.2,1.8,13.4,1.5,13.4z"/></g><g><path d="M22.8,7.3H22c-0.3,0-0.5-0.2-0.5-0.5V6.1c0-0.3,0.2-0.5,0.5-0.5h0.8c0.3,0,0.5,0.2,0.5,0.5v0.8     C23.3,7.1,23.1,7.3,22.8,7.3z"/></g><g><path d="M18.7,6.8c-0.3,0-0.6-0.3-0.6-0.6s0.3-0.6,0.6-0.6s0.6,0.3,0.6,0.6S18.9,6.8,18.7,6.8z"/></g><g><path d="M3.2,11.4c-1.5,0-2.7-1.2-2.7-2.7c0-0.3,0.2-0.5,0.5-0.5s0.5,0.2,0.5,0.5c0,0.9,0.7,1.7,1.7,1.7c0.3,0,0.5,0.2,0.5,0.5     S3.4,11.4,3.2,11.4z"/></g></g><g><path d="M8.7,15.5c-1.8,0-3.3-1.5-3.3-3.3v-1.2c0-0.3,0.2-0.5,0.5-0.5s0.5,0.2,0.5,0.5v1.2c0,1.3,1,2.3,2.3,2.3s2.3-1,2.3-2.3    v-1.2c0-0.3,0.2-0.5,0.5-0.5s0.5,0.2,0.5,0.5v1.2C12,14.1,10.5,15.5,8.7,15.5z"/></g></g></svg>