<?xml version="1.0" ?><!DOCTYPE svg  PUBLIC '-//W3C//DTD SVG 1.1//EN'  'http://www.w3.org/Graphics/SVG/1.1/DTD/svg11.dtd'><svg enable-background="new 0 0 24 24" height="24px" id="Layer_1" version="1.1" viewBox="0 0 24 24" width="24px" xml:space="preserve" xmlns="http://www.w3.org/2000/svg" xmlns:xlink="http://www.w3.org/1999/xlink"><g><g><path d="M21.2,17.1h-1.4c-0.2,0-0.5-0.2-0.5-0.5c0-0.8-0.6-1.5-1.5-1.5s-1.5,0.6-1.5,1.5c0,0.3-0.2,0.5-0.4,0.5H9    c-0.3,0-0.5-0.2-0.5-0.5c0-0.8-0.7-1.5-1.5-1.5s-1.5,0.6-1.5,1.5c0,0.3-0.2,0.5-0.5,0.5H3c-1,0-1.7-0.8-1.7-1.7v-3.8    c0-0.8,0.5-1.4,1.3-1.6l3.1-0.8L7,5.9c0.3-0.6,0.9-1,1.6-1h9.3c0.8,0,1.4,0.5,1.6,1.2l0.9,3.1L22,10c0.6,0.3,1,0.9,1,1.5v3.8    C22.9,16.3,22.2,17.1,21.2,17.1z M20.2,16.2h1c0.4,0,0.8-0.4,0.8-0.8v-3.8c0-0.3-0.2-0.6-0.5-0.7l-1.8-1c-0.1,0-0.2-0.2-0.2-0.3    l-1-3.2c-0.1-0.4-0.4-0.6-0.8-0.6H8.6C8.2,5.8,8,5.9,7.8,6.2L6.4,9.6C6.4,9.7,6.2,9.8,6.1,9.9l-3.3,0.9c-0.4,0.1-0.6,0.4-0.6,0.8    v3.8c0,0.4,0.4,0.8,0.8,0.8h1.6c0.2-1.1,1.2-1.9,2.3-1.9c1.2,0,2.1,0.8,2.4,1.9h6.1c0.2-1.1,1.2-1.9,2.4-1.9S20,15.1,20.2,16.2z"/></g><g><path d="M7,19c-1.3,0-2.4-1.1-2.4-2.4c0-1.3,1.1-2.4,2.4-2.4c1.3,0,2.4,1.1,2.4,2.4C9.4,17.9,8.3,19,7,19z M7,15.1    c-0.8,0-1.5,0.6-1.5,1.5s0.6,1.5,1.5,1.5s1.5-0.7,1.5-1.5S7.8,15.1,7,15.1z"/></g><g><path d="M17.9,19c-1.3,0-2.4-1.1-2.4-2.4c0-1.3,1.1-2.4,2.4-2.4c1.3,0,2.4,1.1,2.4,2.4C20.2,17.9,19.2,19,17.9,19z M17.9,15.1    c-0.8,0-1.5,0.6-1.5,1.5s0.7,1.5,1.5,1.5s1.5-0.7,1.5-1.5S18.7,15.1,17.9,15.1z"/></g><g><rect height="0.9" width="1.4" x="2.9" y="12.4"/></g><g><rect height="0.9" width="14" x="6" y="9"/></g><g><rect height="4.1" width="0.9" x="12.6" y="5.3"/></g></g></svg>