<?xml version="1.0" ?><!DOCTYPE svg  PUBLIC '-//W3C//DTD SVG 1.1//EN'  'http://www.w3.org/Graphics/SVG/1.1/DTD/svg11.dtd'><svg height="50px" id="Layer_1" style="enable-background:new 0 0 58 50;" version="1.1" viewBox="0 0 58 50" width="58px" xml:space="preserve" xmlns="http://www.w3.org/2000/svg" xmlns:xlink="http://www.w3.org/1999/xlink"><g><g><path d="M53.2,26c0.2-0.6,0.3-1.3,0.3-2c0-3.6-2.9-6.5-6.5-6.5s-6.5,2.9-6.5,6.5c0,0.7,0.1,1.3,0.3,2H0l4.5,16.2    c0,5.9,2,7.8,8,7.8h34c6.3,0,7-2.3,7-7.8L58,26H53.2z M47,19.5c2.5,0,4.5,2,4.5,4.5c0,0.6-0.1,1.2-0.3,1.7l0.6,0.2h-8.8    c-0.3-0.6-0.5-1.3-0.5-2C42.5,21.6,44.5,19.5,47,19.5z M51.5,41.8V42c0,5.2-0.3,6-5,6h-34c-4.9,0-6-1.1-6-6v-0.2L3,28h52    L51.5,41.8z M17.5,8c1.1,0,2-0.9,2-2c0-1.1-0.9-2-2-2c-1.1,0-2,0.9-2,2C15.5,7.1,16.4,8,17.5,8z M31.5,8c2.2,0,4-1.8,4-4    c0-2.2-1.8-4-4-4c-2.2,0-4,1.8-4,4C27.5,6.2,29.3,8,31.5,8z M31.5,2c1.1,0,2,0.9,2,2c0,1.1-0.9,2-2,2c-1.1,0-2-0.9-2-2    C29.5,2.9,30.4,2,31.5,2z M23.5,19c2.2,0,4-1.8,4-4c0-2.2-1.8-4-4-4c-2.2,0-4,1.8-4,4C19.5,17.2,21.3,19,23.5,19z M23.5,13    c1.1,0,2,0.9,2,2c0,1.1-0.9,2-2,2c-1.1,0-2-0.9-2-2C21.5,13.9,22.4,13,23.5,13z"/></g></g></svg>