<?xml version="1.0" ?><!DOCTYPE svg  PUBLIC '-//W3C//DTD SVG 1.1//EN'  'http://www.w3.org/Graphics/SVG/1.1/DTD/svg11.dtd'><svg height="18px" style="enable-background:new 0 0 30 18;" version="1.1" viewBox="0 0 30 18" width="30px" xml:space="preserve" xmlns="http://www.w3.org/2000/svg" xmlns:xlink="http://www.w3.org/1999/xlink"><g id="gym"><path d="M28,7h-1V5c0-1.104-0.896-2-2-2c-0.366,0-0.705,0.105-1,0.277V2c0-1.104-0.896-2-2-2s-2,0.896-2,2v5   H10V2c0-1.104-0.896-2-2-2S6,0.896,6,2v1.277C5.705,3.105,5.366,3,5,3C3.896,3,3,3.896,3,5v2H2C0.896,7,0,7.896,0,9s0.896,2,2,2h1   v2c0,1.104,0.896,2,2,2c0.366,0,0.705-0.105,1-0.277V16c0,1.104,0.896,2,2,2s2-0.896,2-2v-5h10v5c0,1.104,0.896,2,2,2s2-0.896,2-2   v-1.277C24.295,14.895,24.634,15,25,15c1.104,0,2-0.896,2-2v-2h1c1.104,0,2-0.896,2-2S29.104,7,28,7z M3,10H2c-0.551,0-1-0.449-1-1   s0.449-1,1-1h1V10z M5,14c-0.551,0-1-0.448-1-1V5c0-0.551,0.449-1,1-1s1,0.449,1,1v8C6,13.552,5.551,14,5,14z M9,16   c0,0.552-0.449,1-1,1s-1-0.448-1-1V2c0-0.551,0.449-1,1-1s1,0.449,1,1V16z M20,10H10V8h10V10z M23,16c0,0.552-0.448,1-1,1   s-1-0.448-1-1V2c0-0.551,0.448-1,1-1s1,0.449,1,1V16z M26,13c0,0.552-0.448,1-1,1s-1-0.448-1-1V5c0-0.551,0.448-1,1-1s1,0.449,1,1   V13z M28,10h-1V8h1c0.552,0,1,0.449,1,1S28.552,10,28,10z" style="fill:#575756;"/></g><g id="Warstwa_1"/></svg>