<?xml version="1.0" ?><!DOCTYPE svg  PUBLIC '-//W3C//DTD SVG 1.1//EN'  'http://www.w3.org/Graphics/SVG/1.1/DTD/svg11.dtd'><svg height="30px" style="enable-background:new 0 0 24 30;" version="1.1" viewBox="0 0 24 30" width="24px" xml:space="preserve" xmlns="http://www.w3.org/2000/svg" xmlns:xlink="http://www.w3.org/1999/xlink"><g id="washing_machine"><g><path d="M12,10.101c-4.21,0-7.635,3.413-7.635,7.607c0,4.196,3.425,7.609,7.635,7.609    s7.635-3.413,7.635-7.609C19.635,13.513,16.21,10.101,12,10.101z M12,24.317c-3.659,0-6.635-2.965-6.635-6.609    c0-3.644,2.977-6.607,6.635-6.607c3.658,0,6.635,2.964,6.635,6.607C18.635,21.353,15.658,24.317,12,24.317z" style="fill:#575756;"/><path d="M6,5.98c1.09,0,1.978-0.884,1.978-1.972S7.09,2.037,6,2.037c-1.09,0-1.977,0.884-1.977,1.972    S4.91,5.98,6,5.98z M6,3.037c0.539,0,0.978,0.436,0.978,0.972S6.539,4.98,6,4.98c-0.539,0-0.977-0.436-0.977-0.972    S5.461,3.037,6,3.037z" style="fill:#575756;"/><path d="M16.979,4.51c0.13,0,0.25-0.05,0.36-0.15c0.09-0.1,0.14-0.22,0.14-0.35s-0.05-0.26-0.149-0.36    c-0.19-0.18-0.521-0.18-0.71,0.01c-0.09,0.09-0.141,0.22-0.141,0.35s0.051,0.25,0.15,0.36C16.72,4.46,16.85,4.51,16.979,4.51z" style="fill:#575756;"/><path d="M14.979,4.51c0.13,0,0.25-0.05,0.36-0.15c0.09-0.09,0.14-0.22,0.14-0.35s-0.05-0.26-0.149-0.35    c-0.19-0.19-0.53-0.19-0.7-0.01c-0.1,0.09-0.15,0.22-0.15,0.36c0,0.13,0.051,0.26,0.15,0.36C14.72,4.46,14.85,4.51,14.979,4.51z" style="fill:#575756;"/><path d="M18.96,4.51c0.13,0,0.26-0.05,0.359-0.15c0.091-0.1,0.141-0.22,0.141-0.35s-0.05-0.25-0.15-0.36    C19.12,3.47,18.78,3.47,18.6,3.66c-0.09,0.09-0.14,0.22-0.14,0.35s0.05,0.26,0.14,0.35C18.689,4.46,18.819,4.51,18.96,4.51z" style="fill:#575756;"/><path d="M22.424,0H1.59C0.713,0,0,0.712,0,1.587v26.826C0,29.288,0.713,30,1.59,30h20.833    C23.293,30,24,29.288,24,28.413V1.587C24,0.712,23.293,0,22.424,0z M1.59,1h20.833C22.747,1,23,1.258,23,1.587V7H1V1.587    C1,1.263,1.265,1,1.59,1z M22.424,29H1.59C1.265,29,1,28.736,1,28.413V8h22v20.413C23,28.742,22.747,29,22.424,29z" style="fill:#575756;"/><path d="M14.734,18.182c-0.538,0-0.786-0.158-1.1-0.359c-0.36-0.23-0.809-0.518-1.64-0.518    c-0.831,0-1.278,0.287-1.638,0.518c-0.313,0.201-0.561,0.359-1.098,0.359s-0.784-0.158-1.097-0.359    c-0.36-0.23-0.807-0.518-1.638-0.518c-0.276,0-0.5,0.224-0.5,0.5s0.224,0.5,0.5,0.5c0.537,0,0.785,0.158,1.098,0.359    c0.36,0.23,0.807,0.518,1.637,0.518c0.831,0,1.278-0.287,1.638-0.518c0.313-0.201,0.561-0.359,1.098-0.359    c0.539,0,0.786,0.158,1.101,0.359c0.359,0.23,0.808,0.518,1.639,0.518s1.279-0.287,1.64-0.518    c0.313-0.201,0.562-0.359,1.101-0.359c0.276,0,0.5-0.224,0.5-0.5s-0.224-0.5-0.5-0.5c-0.831,0-1.279,0.287-1.64,0.518    C15.521,18.023,15.273,18.182,14.734,18.182z" style="fill:#575756;"/><path d="M12.882,13.574c1.063,0.218,1.992,0.83,2.615,1.725c0.097,0.14,0.253,0.214,0.41,0.214    c0.099,0,0.198-0.029,0.286-0.09c0.227-0.158,0.282-0.469,0.124-0.696c-0.771-1.106-1.919-1.864-3.235-2.133    c-0.27-0.055-0.534,0.119-0.589,0.39C12.437,13.254,12.612,13.519,12.882,13.574z" style="fill:#575756;"/></g></g><g id="Warstwa_1"/></svg>