<?xml version="1.0" ?><!DOCTYPE svg  PUBLIC '-//W3C//DTD SVG 1.1//EN'  'http://www.w3.org/Graphics/SVG/1.1/DTD/svg11.dtd'><svg enable-background="new 0 0 24 24" height="24px" id="Layer_1" version="1.1" viewBox="0 0 24 24" width="24px" xml:space="preserve" xmlns="http://www.w3.org/2000/svg" xmlns:xlink="http://www.w3.org/1999/xlink"><g><g><g><g><g><g><rect height="0.9" width="6.3" x="2.3" y="9.8"/></g><g><path d="M2.4,10.7H1.9c-0.3,0-0.5-0.2-0.5-0.5s0.2-0.5,0.5-0.5h0.5c0.3,0,0.4,0.2,0.4,0.5S2.6,10.7,2.4,10.7z"/></g></g></g><g><path d="M20.3,15.2h-8.5c-1.4,0-2.6-1.2-2.6-2.6v-2.3c0-0.3,0.2-0.5,0.4-0.5h12.7c0.3,0,0.5,0.2,0.5,0.5v2.3      C22.9,14,21.7,15.2,20.3,15.2z M10.2,10.7v1.9c0,0.9,0.8,1.7,1.7,1.7h8.5c0.9,0,1.7-0.8,1.7-1.7v-1.9H10.2z"/></g><g><g><g><path d="M13.2,5.9c-0.1,0-0.2,0-0.3-0.1c-0.4-0.4-0.7-1-0.7-1.6s0.2-1.2,0.7-1.6c0.2-0.2,0.5-0.2,0.6,0c0.2,0.2,0.2,0.4,0,0.6        c-0.2,0.2-0.4,0.6-0.4,1s0.2,0.7,0.4,1c0.2,0.2,0.2,0.5,0,0.6C13.4,5.9,13.3,5.9,13.2,5.9z"/></g><g><path d="M13.2,8.5c-0.1,0-0.2,0-0.3-0.1c-0.2-0.2-0.2-0.4,0-0.6c0.2-0.3,0.4-0.6,0.4-1c0-0.4-0.2-0.7-0.4-1        c-0.2-0.2-0.2-0.5,0-0.6C13,5,13.3,5,13.5,5.2c0.4,0.4,0.7,1,0.7,1.6c0,0.6-0.3,1.2-0.7,1.6C13.4,8.5,13.3,8.5,13.2,8.5z"/></g></g><g><g><path d="M16.1,5.9c-0.1,0-0.2,0-0.3-0.1c-0.9-0.9-0.9-2.3,0-3.2c0.2-0.2,0.5-0.2,0.6,0c0.2,0.2,0.2,0.4,0,0.6        c-0.5,0.5-0.5,1.4,0,1.9c0.2,0.2,0.2,0.5,0,0.6C16.3,5.9,16.2,5.9,16.1,5.9z"/></g><g><path d="M16.1,8.5c-0.1,0-0.2,0-0.3-0.1c-0.2-0.2-0.2-0.4,0-0.6c0.2-0.3,0.4-0.6,0.4-1c0-0.4-0.2-0.7-0.4-1        c-0.2-0.2-0.2-0.5,0-0.6c0.2-0.2,0.5-0.2,0.6,0c0.4,0.4,0.7,1,0.7,1.6c0,0.6-0.3,1.2-0.7,1.6C16.3,8.5,16.2,8.5,16.1,8.5z"/></g></g><g><g><path d="M19,5.9c-0.1,0-0.3,0-0.3-0.1c-0.4-0.4-0.7-1-0.7-1.6s0.3-1.2,0.7-1.6c0.2-0.2,0.4-0.2,0.6,0c0.2,0.2,0.2,0.4,0,0.6        c-0.2,0.2-0.4,0.6-0.4,1s0.2,0.7,0.4,1c0.2,0.2,0.2,0.5,0,0.6C19.2,5.9,19.1,5.9,19,5.9z"/></g><g><path d="M19,8.5c-0.1,0-0.3,0-0.3-0.1c-0.2-0.2-0.2-0.4,0-0.6c0.2-0.3,0.4-0.6,0.4-1c0-0.4-0.2-0.7-0.4-1        c-0.2-0.2-0.2-0.5,0-0.6c0.2-0.2,0.4-0.2,0.6,0c0.4,0.4,0.6,1,0.6,1.6c0,0.6-0.2,1.2-0.6,1.6C19.2,8.5,19.1,8.5,19,8.5z"/></g></g></g><g><g><path d="M11.2,21.4c-1,0-1.8-0.8-1.8-1.8c0-0.4,0.2-0.8,0.4-1.1l1.4-1.9l1.4,1.9c0.2,0.3,0.4,0.7,0.4,1.1       C12.9,20.6,12.1,21.4,11.2,21.4z M11.2,18.2l-0.6,0.9c-0.1,0.1-0.2,0.3-0.2,0.5c0,0.5,0.4,0.9,0.9,0.9c0.5,0,0.8-0.4,0.8-0.9       c0-0.2-0.1-0.4-0.2-0.5L11.2,18.2z"/></g><g><path d="M16.1,21.4c-1,0-1.8-0.8-1.8-1.8c0-0.4,0.1-0.8,0.4-1.1l1.4-1.9l1.4,1.9c0.2,0.3,0.4,0.7,0.4,1.1       C17.8,20.6,17.1,21.4,16.1,21.4z M16.1,18.2l-0.6,0.9c-0.1,0.1-0.2,0.3-0.2,0.5c0,0.5,0.4,0.9,0.8,0.9c0.5,0,0.9-0.4,0.9-0.9       c0-0.2-0.1-0.4-0.2-0.5L16.1,18.2z"/></g><g><path d="M21,21.4c-1,0-1.8-0.8-1.8-1.8c0-0.4,0.2-0.8,0.4-1.1l1.4-1.9l1.4,1.9c0.2,0.3,0.4,0.7,0.4,1.1       C22.8,20.6,22,21.4,21,21.4z M21,18.2l-0.7,0.9c-0.1,0.1-0.2,0.3-0.2,0.5c0,0.5,0.4,0.9,0.9,0.9c0.5,0,0.9-0.4,0.9-0.9       c0-0.2-0.1-0.4-0.2-0.5L21,18.2z"/></g></g></g></g></g></svg>