<?xml version="1.0" ?><svg id="Layer_1" style="enable-background:new 0 0 64 64;" version="1.1" viewBox="0 0 64 64" xml:space="preserve" xmlns="http://www.w3.org/2000/svg" xmlns:xlink="http://www.w3.org/1999/xlink"><g><path d="M52.083,62.917H11.917c-2.67,0-4.834-2.164-4.834-4.834V29.547c0-2.411,1.954-4.365,4.365-4.365h0.139v-3.185   c0-11.053,8.578-20.48,19.624-20.899c11.613-0.44,21.201,8.88,21.201,20.397v3.687h0.14c2.411,0,4.365,1.954,4.365,4.365v28.537   C56.917,60.753,54.753,62.917,52.083,62.917z M13.084,59.417h37.833c1.381,0,2.5-1.119,2.5-2.5v-27.37   c0-0.478-0.387-0.865-0.865-0.865h-1.89c-0.966,0-1.75-0.784-1.75-1.75v-4.989c0-9.46-7.74-17.516-17.199-17.358   c-9.194,0.153-16.626,7.68-16.626,16.91v5.437c0,0.966-0.784,1.75-1.75,1.75h-1.89c-0.478,0-0.865,0.387-0.865,0.865v27.371   C10.583,58.298,11.703,59.417,13.084,59.417z"/><path d="M34.767,55.607h-5.535c-0.909,0-1.777-0.39-2.381-1.069c-0.604-0.68-0.888-1.588-0.781-2.491l0.842-7.062   c-1.581-1.499-2.411-3.587-2.287-5.78c0.215-3.793,3.361-6.848,7.161-6.956c2.023-0.059,3.917,0.685,5.361,2.087   c1.442,1.402,2.237,3.283,2.237,5.296c0,2.028-0.834,3.96-2.299,5.353l0.842,7.062c0.107,0.903-0.177,1.812-0.78,2.491   S35.677,55.607,34.767,55.607z M29.588,52.107h4.823l-0.839-7.036c-0.113-0.942,0.249-1.877,0.97-2.502   c0.854-0.74,1.344-1.811,1.344-2.937c0-1.059-0.418-2.049-1.178-2.787c-0.759-0.737-1.753-1.132-2.822-1.098   c-1.998,0.057-3.652,1.662-3.766,3.656c-0.069,1.216,0.418,2.37,1.337,3.165c0.72,0.623,1.083,1.559,0.969,2.502L29.588,52.107z    M37.047,44.654C37.047,44.654,37.047,44.654,37.047,44.654l0.001,0.002C37.047,44.655,37.047,44.655,37.047,44.654z"/><path d="M41.652,28.681H22.347c-0.966,0-1.75-0.784-1.75-1.75v-5.437c0-6.288,5.115-11.403,11.403-11.403   c6.287,0,11.402,5.115,11.402,11.403v5.437C43.402,27.898,42.619,28.681,41.652,28.681z M24.097,25.181h15.805v-3.687   c0-4.357-3.545-7.903-7.902-7.903s-7.903,3.545-7.903,7.903V25.181z"/></g></svg>