<?xml version="1.0" ?><svg data-name="Layer 1" id="Layer_1" viewBox="0 0 30 30" xmlns="http://www.w3.org/2000/svg"><defs><style>.cls-1{fill:#414042;}</style></defs><title/><path class="cls-1" d="M28.91,11a3.5,3.5,0,0,0-2.6-1,3.14,3.14,0,0,0-.31,0V8.5A4.5,4.5,0,0,0,21.5,4H8.5A4.5,4.5,0,0,0,4,8.5v1.55a3.14,3.14,0,0,0-.31,0,3.51,3.51,0,0,0-2.6,1A3.49,3.49,0,0,0,2,16.65V21.5A2.5,2.5,0,0,0,4.5,24H5v1.5a0.5,0.5,0,0,0,.5.5h2A0.5,0.5,0,0,0,8,25.5V24H22v1.5a0.5,0.5,0,0,0,.5.5h2a0.5,0.5,0,0,0,.5-0.5V24h0.5A2.5,2.5,0,0,0,28,21.5V16.65A3.49,3.49,0,0,0,28.91,11ZM5,8.5A3.5,3.5,0,0,1,8.5,5h13A3.5,3.5,0,0,1,25,8.5v1.86a3.73,3.73,0,0,0-2,3.31v2.2a37.83,37.83,0,0,0-16,0v-2.2a3.73,3.73,0,0,0-2-3.31V8.5ZM7,25H6V24H7v1Zm17,0H23V24h1v1Zm3.33-9.15a0.5,0.5,0,0,0-.33.47V21.5A1.5,1.5,0,0,1,25.5,23H4.5A1.5,1.5,0,0,1,3,21.5V16.32a0.5,0.5,0,0,0-.33-0.47A2.5,2.5,0,0,1,3.5,11H3.63A2.62,2.62,0,0,1,6,13.67V16.5a0.5,0.5,0,0,0,.61.49,36.79,36.79,0,0,1,16.77,0,0.51,0.51,0,0,0,.43-0.09A0.5,0.5,0,0,0,24,16.5V13.67A2.62,2.62,0,0,1,26.37,11,2.5,2.5,0,0,1,27.33,15.85Z"/></svg>