<?xml version="1.0" ?><!DOCTYPE svg  PUBLIC '-//W3C//DTD SVG 1.1//EN'  'http://www.w3.org/Graphics/SVG/1.1/DTD/svg11.dtd'><svg enable-background="new 0 0 24 24" height="24px" id="Layer_1" version="1.1" viewBox="0 0 24 24" width="24px" xml:space="preserve" xmlns="http://www.w3.org/2000/svg" xmlns:xlink="http://www.w3.org/1999/xlink"><g><g><g><path d="M20.1,23.3H3.9c-1.9,0-3.4-1.5-3.4-3.4V7.1c0-1.9,1.5-3.4,3.4-3.4h16.1c1.9,0,3.4,1.5,3.4,3.4v12.8     C23.5,21.8,22,23.3,20.1,23.3z M3.9,4.6c-1.3,0-2.4,1.1-2.4,2.4v12.8c0,1.3,1.1,2.4,2.4,2.4h16.1c1.3,0,2.4-1.1,2.4-2.4V7.1     c0-1.3-1.1-2.4-2.4-2.4H3.9z"/></g><g><rect height="1" width="22" x="1" y="7.1"/></g><g><g><g><rect height="1" width="1.4" x="5.9" y="11.7"/></g><g><rect height="1" width="2.6" x="10.7" y="11.7"/></g><g><rect height="1" width="2.6" x="16.1" y="11.7"/></g></g><g><g><rect height="1" width="2.6" x="10.7" y="15"/></g><g><rect height="1" width="2.6" x="16.1" y="15"/></g></g><g><g><rect height="1" width="2.6" x="5.3" y="18.3"/></g><g><rect height="1" width="2.6" x="10.7" y="18.3"/></g><g><rect height="1" width="2.6" x="16.1" y="18.3"/></g></g></g><g><g><g><rect height="1.7" width="1" x="3.7" y="1.1"/></g><g><path d="M4.2,2.4c-0.3,0-0.5-0.2-0.5-0.5V1.2c0-0.3,0.2-0.5,0.5-0.5s0.5,0.2,0.5,0.5v0.7C4.7,2.2,4.5,2.4,4.2,2.4z"/></g></g><g><g><rect height="1.7" width="1" x="6.3" y="1.1"/></g><g><path d="M6.8,2.4c-0.3,0-0.5-0.2-0.5-0.5V1.2c0-0.3,0.2-0.5,0.5-0.5s0.5,0.2,0.5,0.5v0.7C7.3,2.2,7.1,2.4,6.8,2.4z"/></g></g><g><g><rect height="1.7" width="1" x="8.9" y="1.1"/></g><g><path d="M9.4,2.4c-0.3,0-0.5-0.2-0.5-0.5V1.2c0-0.3,0.2-0.5,0.5-0.5s0.5,0.2,0.5,0.5v0.7C9.9,2.2,9.7,2.4,9.4,2.4z"/></g></g><g><g><rect height="1.7" width="1" x="11.5" y="1.1"/></g><g><path d="M12,2.4c-0.3,0-0.5-0.2-0.5-0.5V1.2c0-0.3,0.2-0.5,0.5-0.5s0.5,0.2,0.5,0.5v0.7C12.5,2.2,12.3,2.4,12,2.4z"/></g></g><g><g><rect height="1.7" width="1" x="14.1" y="1.1"/></g><g><path d="M14.6,2.4c-0.3,0-0.5-0.2-0.5-0.5V1.2c0-0.3,0.2-0.5,0.5-0.5s0.5,0.2,0.5,0.5v0.7C15.1,2.2,14.9,2.4,14.6,2.4z"/></g></g><g><g><rect height="1.7" width="1" x="16.7" y="1.1"/></g><g><path d="M17.2,2.4c-0.3,0-0.5-0.2-0.5-0.5V1.2c0-0.3,0.2-0.5,0.5-0.5s0.5,0.2,0.5,0.5v0.7C17.7,2.2,17.5,2.4,17.2,2.4z"/></g></g><g><g><rect height="1.7" width="1" x="19.3" y="1.1"/></g><g><path d="M19.8,2.4c-0.3,0-0.5-0.2-0.5-0.5V1.2c0-0.3,0.2-0.5,0.5-0.5s0.5,0.2,0.5,0.5v0.7C20.3,2.2,20.1,2.4,19.8,2.4z"/></g></g></g><g><g><g><rect height="1.7" width="1" x="19.3" y="3.6"/></g><g><path d="M19.8,5.7c-0.3,0-0.5-0.2-0.5-0.5V4.5c0-0.3,0.2-0.5,0.5-0.5s0.5,0.2,0.5,0.5v0.7C20.3,5.5,20.1,5.7,19.8,5.7z"/></g></g><g><g><rect height="1.7" width="1" x="16.7" y="3.6"/></g><g><path d="M17.2,5.7c-0.3,0-0.5-0.2-0.5-0.5V4.5c0-0.3,0.2-0.5,0.5-0.5s0.5,0.2,0.5,0.5v0.7C17.7,5.5,17.5,5.7,17.2,5.7z"/></g></g><g><g><rect height="1.7" width="1" x="14.1" y="3.6"/></g><g><path d="M14.6,5.7c-0.3,0-0.5-0.2-0.5-0.5V4.5c0-0.3,0.2-0.5,0.5-0.5s0.5,0.2,0.5,0.5v0.7C15.1,5.5,14.9,5.7,14.6,5.7z"/></g></g><g><g><rect height="1.7" width="1" x="11.5" y="3.6"/></g><g><path d="M12,5.7c-0.3,0-0.5-0.2-0.5-0.5V4.5C11.5,4.2,11.7,4,12,4s0.5,0.2,0.5,0.5v0.7C12.5,5.5,12.3,5.7,12,5.7z"/></g></g><g><g><rect height="1.7" width="1" x="8.9" y="3.6"/></g><g><path d="M9.4,5.7c-0.3,0-0.5-0.2-0.5-0.5V4.5C8.9,4.2,9.1,4,9.4,4s0.5,0.2,0.5,0.5v0.7C9.9,5.5,9.7,5.7,9.4,5.7z"/></g></g><g><g><rect height="1.7" width="1" x="6.3" y="3.6"/></g><g><path d="M6.8,5.7c-0.3,0-0.5-0.2-0.5-0.5V4.5C6.3,4.2,6.5,4,6.8,4s0.5,0.2,0.5,0.5v0.7C7.3,5.5,7.1,5.7,6.8,5.7z"/></g></g><g><g><rect height="1.7" width="1" x="3.7" y="3.6"/></g><g><path d="M4.2,5.7c-0.3,0-0.5-0.2-0.5-0.5V4.5C3.7,4.2,3.9,4,4.2,4s0.5,0.2,0.5,0.5v0.7C4.7,5.5,4.5,5.7,4.2,5.7z"/></g></g></g></g><g><path d="M6.6,14.8c-1.5,0-2.6-1.2-2.6-2.6c0-1.5,1.2-2.6,2.6-2.6s2.6,1.2,2.6,2.6C9.2,13.7,8,14.8,6.6,14.8z M6.6,10.6    c-0.9,0-1.6,0.7-1.6,1.6s0.7,1.6,1.6,1.6s1.6-0.7,1.6-1.6S7.5,10.6,6.6,10.6z"/></g></g></svg>