<?xml version="1.0" ?><!DOCTYPE svg  PUBLIC '-//W3C//DTD SVG 1.1//EN'  'http://www.w3.org/Graphics/SVG/1.1/DTD/svg11.dtd'><svg enable-background="new 0 0 24 24" height="24px" id="Layer_1" version="1.1" viewBox="0 0 24 24" width="24px" xml:space="preserve" xmlns="http://www.w3.org/2000/svg" xmlns:xlink="http://www.w3.org/1999/xlink"><g><g><g><path d="M19,21.9H4.8c-0.2,0-0.4-0.2-0.4-0.4v-9.9H2c-0.2,0-0.3-0.1-0.4-0.3c-0.1-0.2,0-0.3,0.1-0.5l9.8-8.7     C11.7,2,12,2,12.2,2.1l9.9,8.7c0.1,0.1,0.2,0.3,0.1,0.5c0,0.2-0.2,0.3-0.4,0.3h-2.3v9.9C19.4,21.7,19.2,21.9,19,21.9z M5.2,21.1     h13.4v-9.9c0-0.2,0.2-0.4,0.4-0.4h1.6L11.9,3l-8.7,7.8h1.6c0.2,0,0.4,0.2,0.4,0.4V21.1z"/></g><g><path d="M5.2,6.9H4.3V2.6c0-0.2,0.2-0.4,0.4-0.4h3.7c0.2,0,0.4,0.2,0.4,0.4v1H8V3.1H5.2V6.9z"/></g></g><g><g><path d="M11.9,18.4c-2.7,0-4.9-2.2-4.9-4.9c0-2.7,2.2-4.9,4.9-4.9c2.7,0,4.9,2.2,4.9,4.9C16.8,16.2,14.6,18.4,11.9,18.4z      M11.9,9.5c-2.2,0-4,1.8-4,4c0,2.2,1.8,4,4,4c2.2,0,4-1.8,4-4C15.9,11.3,14.1,9.5,11.9,9.5z"/></g><g><g><path d="M11.9,14c-0.2,0-0.4-0.2-0.4-0.4v-2.8c0-0.2,0.2-0.4,0.4-0.4c0.2,0,0.4,0.2,0.4,0.4v2.8C12.3,13.8,12.1,14,11.9,14z"/></g></g><g><g><path d="M10.8,15.1c-0.1,0-0.2,0-0.3-0.1c-0.2-0.2-0.2-0.4,0-0.6l1.1-1.1c0.2-0.2,0.4-0.2,0.6,0c0.2,0.2,0.2,0.4,0,0.6l-1.1,1.1      C11,15,10.9,15.1,10.8,15.1z"/></g></g></g></g></svg>