<?xml version="1.0" ?><!DOCTYPE svg  PUBLIC '-//W3C//DTD SVG 1.1//EN'  'http://www.w3.org/Graphics/SVG/1.1/DTD/svg11.dtd'><svg enable-background="new 0 0 24 24" height="24px" id="Layer_1" version="1.1" viewBox="0 0 24 24" width="24px" xml:space="preserve" xmlns="http://www.w3.org/2000/svg" xmlns:xlink="http://www.w3.org/1999/xlink"><g><g><g><path d="M18.9,22H4.7c-0.2,0-0.4-0.2-0.4-0.4v-9.9H2c-0.2,0-0.3-0.1-0.4-0.3c-0.1-0.2,0-0.3,0.1-0.5l9.8-8.8     c0.2-0.1,0.4-0.1,0.6,0l9.9,8.8c0.1,0.1,0.2,0.3,0.1,0.5c0,0.2-0.2,0.3-0.4,0.3h-2.3v9.9C19.4,21.8,19.2,22,18.9,22z M5.1,21.1     h13.4v-9.9c0-0.2,0.2-0.4,0.4-0.4h1.6L11.8,3l-8.7,7.8h1.6c0.2,0,0.4,0.2,0.4,0.4V21.1z"/></g><g><path d="M5.1,6.9H4.3V2.7c0-0.2,0.2-0.4,0.4-0.4h3.7c0.2,0,0.4,0.2,0.4,0.4v1H8V3.1H5.1V6.9z"/></g></g><g><g><rect height="0.9" width="1.8" x="10.5" y="12.9"/></g><g><rect height="0.9" width="2.7" x="10.5" y="17.6"/></g><g><rect height="5.6" width="0.9" x="11.4" y="12.9"/></g><g><path d="M11.8,11.1c-0.4,0-0.8-0.3-0.8-0.7s0.3-0.7,0.8-0.7c0.4,0,0.7,0.3,0.7,0.7S12.2,11.1,11.8,11.1z"/></g></g></g></svg>