<?xml version="1.0" ?><svg height="256" viewBox="0 0 256 256" width="256" xmlns="http://www.w3.org/2000/svg"><title/><path d="M190.06,173.2886h-.0244a5.0214,5.0214,0,0,1-3.56-1.5054l-16.76-17.0869a5.0208,5.0208,0,1,1,7.1689-7.0312l13.21,13.4673,23.6738-23.6733a5.0209,5.0209,0,0,1,7.1006,7.1006L193.61,171.8179A5.0212,5.0212,0,0,1,190.06,173.2886Z"/><path d="M195.31,202.4956a47.8582,47.8582,0,1,1,47.8584-47.8574A47.9121,47.9121,0,0,1,195.31,202.4956Zm0-85.6743a37.8162,37.8162,0,1,0,37.8164,37.8169A37.8593,37.8593,0,0,0,195.31,116.8213Z"/><path d="M157.89,109.3687H55.4106a5.021,5.021,0,1,1,0-10.042H157.89a5.021,5.021,0,1,1,0,10.042Z"/><path d="M137.8057,143.2363H55.4106a5.021,5.021,0,0,1,0-10.042h82.395a5.021,5.021,0,0,1,0,10.042Z"/><path d="M125.0557,177.1045H55.4106a5.021,5.021,0,0,1,0-10.042h69.645a5.021,5.021,0,1,1,0,10.042Z"/><path d="M175.3643,251.1553H37.9365A25.1328,25.1328,0,0,1,12.832,226.0508V75.3477A5.0216,5.0216,0,0,1,14.2212,71.88L76.7378,6.3984A5.0224,5.0224,0,0,1,80.37,4.8447h94.9946a25.1332,25.1332,0,0,1,25.105,25.1045v80.1943a5.021,5.021,0,1,1-10.042,0V29.9492a15.08,15.08,0,0,0-15.063-15.0625H82.5181L22.874,77.3594V226.0508a15.0793,15.0793,0,0,0,15.0625,15.0625H175.3643a15.08,15.08,0,0,0,15.063-15.0625V199.3071a5.021,5.021,0,1,1,10.042,0v26.7437A25.1332,25.1332,0,0,1,175.3643,251.1553Z"/><path d="M60.2856,80.3687H17.853a5.021,5.021,0,0,1,0-10.042H60.2856a15.08,15.08,0,0,0,15.063-15.063V9.8657a5.021,5.021,0,0,1,10.042,0V55.2637A25.1336,25.1336,0,0,1,60.2856,80.3687Z"/></svg>