<?xml version="1.0" ?><svg height="64" id="svg1404" version="1.1" viewBox="0 0 16.933333 16.933334" width="64" xmlns="http://www.w3.org/2000/svg" xmlns:cc="http://creativecommons.org/ns#" xmlns:dc="http://purl.org/dc/elements/1.1/" xmlns:inkscape="http://www.inkscape.org/namespaces/inkscape" xmlns:rdf="http://www.w3.org/1999/02/22-rdf-syntax-ns#" xmlns:sodipodi="http://sodipodi.sourceforge.net/DTD/sodipodi-0.dtd" xmlns:svg="http://www.w3.org/2000/svg"><defs id="defs1398"/><g id="layer1" transform="translate(0,-280.06665)"><path d="m 3.680528,283.1603 a 0.2646485,0.2646485 0 0 0 -0.2625169,0.27027 v 2.64428 H 2.8883285 v -2.64428 a 0.26460982,0.26460982 0 0 0 -0.2692347,-0.26975 0.26460982,0.26460982 0 0 0 -0.2599321,0.26975 v 2.64428 H 1.8299951 v -2.64428 a 0.26460982,0.26460982 0 0 0 -0.2676843,-0.26975 0.26460982,0.26460982 0 0 0 -0.2619984,0.26975 v 2.9099 a 0.26460982,0.26460982 0 0 0 0.2661338,0.26407 h 0.7927155 v 4.47466 a 0.2646485,0.2646485 0 0 0 0.00159,0.0233 h -0.00159 c -0.288581,0 -0.5291666,0.24058 -0.5291666,0.52916 v 1.58802 c 0,0.28858 0.2405856,0.52916 0.5291666,0.52916 h 0.5291668 c 0.288581,0 0.5296826,-0.24058 0.5296826,-0.52916 v -1.58802 c 0,-0.28858 -0.2411016,-0.52917 -0.5296826,-0.52917 h -0.00106 a 0.2646485,0.2646485 0 0 0 0.00106,-0.0233 v -4.47467 h 0.793234 a 0.26460982,0.26460982 0 0 0 0.2656153,-0.26406 v -2.9099 A 0.2646485,0.2646485 0 0 0 3.680528,283.1603 Z m 10.580752,0.005 a 0.26460982,0.26460982 0 0 0 -0.259416,0.26561 v 3.65404 a 0.26460982,0.26460982 0 0 0 0,0.0982 v 3.91966 c -0.288582,0 -0.529167,0.24058 -0.529167,0.52916 v 1.58802 c 0,0.28858 0.240585,0.52916 0.529167,0.52916 h 0.527097 c 0.288581,0 0.529167,-0.24058 0.529167,-0.52916 v -1.58802 c 0,-0.28858 -0.240586,-0.52917 -0.529167,-0.52917 v -3.70313 h 0.794785 a 0.26460982,0.26460982 0 0 0 0.264067,-0.26562 v -2.64428 a 0.26460982,0.26460982 0 0 0 -0.07648,-0.18759 L 14.453,283.24333 a 0.26460982,0.26460982 0 0 0 -0.191717,-0.078 z m 0.267681,0.90434 0.529167,0.52916 v 2.2717 h -0.529167 z m -5.8513213,0.12298 c -2.339684,0 -4.2405674,1.90244 -4.2405674,4.24212 0,2.33969 1.9008834,4.24212 4.2405674,4.24212 2.3396843,0 4.2421173,-1.90243 4.2421173,-4.24212 0,-2.33968 -1.902433,-4.24212 -4.2421173,-4.24212 z m 0,0.52917 c 2.0537013,0 3.7129513,1.65925 3.7129513,3.71295 0,2.0537 -1.65925,3.71296 -3.7129513,3.71296 -2.053701,0 -3.7129512,-1.65926 -3.7129512,-3.71296 0,-2.0537 1.6592502,-3.71295 3.7129512,-3.71295 z m 0.02326,0.97875 c -0.687012,0 -1.317385,0.24957 -1.802474,0.66404 a 0.26460982,0.26460982 0 1 0 0.343649,0.40205 c 0.393149,-0.33592 0.900131,-0.53692 1.458825,-0.53692 0.564941,0 1.077883,0.20613 1.4727793,0.5488 a 0.26521117,0.26521117 0 1 0 0.347782,-0.40049 C 10.03423,285.95489 9.3955897,285.7002 8.7008997,285.7002 Z m 1.7363283,4.32842 a 0.26460982,0.26460982 0 0 0 -0.02739,0.002 0.26460982,0.26460982 0 0 0 -0.156062,0.0744 c -0.4039153,0.38534 -0.9494733,0.6227 -1.5528763,0.6227 -0.551683,0 -1.054291,-0.19872 -1.44539,-0.5271 a 0.26482651,0.26482651 0 0 0 -0.339513,0.40544 c 0.482576,0.40518 1.106514,0.65061 1.784903,0.65061 0.741984,0 1.4199263,-0.29459 1.9182293,-0.76998 a 0.26460982,0.26460982 0 0 0 -0.181901,-0.45837 z m -8.0780632,1.603 h 0.5291668 v 1.58802 H 2.3591617 Z m 11.6427022,0 h 0.527097 v 1.58802 h -0.527097 z" id="path1998" style="color:#000000;font-style:normal;font-variant:normal;font-weight:normal;font-stretch:normal;font-size:medium;line-height:normal;font-family:sans-serif;font-variant-ligatures:normal;font-variant-position:normal;font-variant-caps:normal;font-variant-numeric:normal;font-variant-alternates:normal;font-feature-settings:normal;text-indent:0;text-align:start;text-decoration:none;text-decoration-line:none;text-decoration-style:solid;text-decoration-color:#000000;letter-spacing:normal;word-spacing:normal;text-transform:none;writing-mode:lr-tb;direction:ltr;text-orientation:mixed;dominant-baseline:auto;baseline-shift:baseline;text-anchor:start;white-space:normal;shape-padding:0;clip-rule:nonzero;display:inline;overflow:visible;visibility:visible;opacity:1;isolation:auto;mix-blend-mode:normal;color-interpolation:sRGB;color-interpolation-filters:linearRGB;solid-color:#000000;solid-opacity:1;vector-effect:none;fill:#000000;fill-opacity:1;fill-rule:nonzero;stroke:none;stroke-width:0.5291667;stroke-linecap:round;stroke-linejoin:miter;stroke-miterlimit:4;stroke-dasharray:none;stroke-dashoffset:0;stroke-opacity:1;color-rendering:auto;image-rendering:auto;shape-rendering:auto;text-rendering:auto;enable-background:accumulate"/></g></svg>